<svg width="24" height="24" viewBox="0 0 24 24" fill="none" xmlns="http://www.w3.org/2000/svg">
<path d="M12.499 3.51472C12.4989 3.23862 12.2751 3.01477 11.999 3.01477C11.7231 3.01496 11.4991 3.23873 11.4991 3.51472V11.5001H3.51374C3.23778 11.5002 3.01384 11.724 3.01379 12C3.01379 12.276 3.23775 12.4998 3.51374 12.4999H11.4991V20.4853C11.4991 20.7612 11.7231 20.985 11.999 20.9852C12.2751 20.9852 12.4989 20.7614 12.499 20.4853V12.4999H20.4843C20.7604 12.4999 20.9842 12.2761 20.9842 12C20.9842 11.7239 20.7604 11.5001 20.4843 11.5001H12.499V3.51472Z" fill="#1A1A1A"/>
</svg>
