<svg width="32" height="32" viewBox="0 0 32 32" fill="none" xmlns="http://www.w3.org/2000/svg">
<path d="M26.9717 3.68945C27.476 3.72315 27.898 3.80637 28.1953 3.88281C28.3437 3.92097 28.4627 3.95764 28.5459 3.98535C28.5872 3.99912 28.6211 4.01093 28.6445 4.01953C28.6559 4.02372 28.666 4.02763 28.6729 4.03027C28.6758 4.03147 28.6786 4.0333 28.6807 4.03418L28.6855 4.03613H28.6846L28.6855 4.03711L28.6865 4.03613C28.6887 4.037 28.6913 4.03817 28.6934 4.03906C28.7096 4.04592 28.7248 4.05594 28.7402 4.06445C28.7545 4.07228 28.7699 4.07886 28.7832 4.08789C28.7914 4.09358 28.7988 4.10125 28.8066 4.10742C28.8501 4.14131 28.8884 4.18063 28.918 4.22559C28.9236 4.23413 28.9275 4.24401 28.9326 4.25293C28.9431 4.27127 28.9528 4.29008 28.9609 4.30957C28.9651 4.31967 28.9682 4.33036 28.9717 4.34082C28.9792 4.36291 28.9859 4.3852 28.9902 4.4082C28.9906 4.40985 28.9919 4.41143 28.9922 4.41309H28.9912V4.41406H28.9922L28.9932 4.41602V4.41895C28.9936 4.42149 28.9945 4.42492 28.9951 4.42871C28.9964 4.43667 28.9981 4.44781 29 4.46094C29.0038 4.48769 29.0086 4.52551 29.0137 4.57227C29.0238 4.66611 29.0348 4.79945 29.0391 4.96387C29.0476 5.2922 29.0303 5.75052 28.9287 6.28125C28.7246 7.34725 28.1783 8.70688 26.8271 9.87793C25.4249 11.0929 23.9899 11.1009 22.9238 10.793C22.5821 10.6942 22.28 10.5612 22.0273 10.4307C22.0188 10.4328 22.0096 10.4329 22.001 10.4346V14.5254C23.6658 14.6775 24.669 15.5784 25.2451 16.4805C25.5555 16.9666 25.7421 17.4497 25.8506 17.8086C25.8877 17.9313 25.9142 18.0413 25.9355 18.1328C26.0803 18.092 26.2285 18.0523 26.3789 18.0146C27.3571 17.7702 28.3567 17.9048 29.0654 18.2666C29.4185 18.4469 29.7379 18.7045 29.9238 19.041C30.1215 19.3991 30.1495 19.8191 29.9473 20.2236C29.8989 20.3203 29.8204 20.3989 29.7236 20.4473L20.3574 25.1309C19.8716 25.3737 19.3352 25.5 18.792 25.5H13.4082C12.9148 25.5001 12.432 25.6462 12.0215 25.9199L11.2773 26.416C11.1862 26.4767 11.0821 26.5021 10.9805 26.498L11.2695 26.876C11.7842 27.5493 11.6398 28.5152 10.9502 29.0078L9.10938 30.3223C8.43263 30.8055 7.4913 30.6461 7.01172 29.9668L2.12402 23.042C1.67355 22.4034 1.78859 21.5259 2.38867 21.0254L3.87891 19.7832C4.53408 19.2374 5.51202 19.3473 6.03027 20.0244L6.13379 20.1602C6.13795 20.1557 6.14213 20.1509 6.14648 20.1465C7.16952 19.1235 7.79142 18.6053 9.20898 17.5928C10.6993 16.5282 12.1937 16.1981 13.4102 16.3145C14.4597 16.415 15.3824 16.8672 15.8203 17.5459C15.8399 17.5507 15.8595 17.5547 15.8779 17.5596C15.998 17.5915 16.1336 17.6356 16.2734 17.6836C16.4138 17.7317 16.5699 17.7879 16.7314 17.8457C16.8193 17.8771 16.9111 17.9078 17.0039 17.9404C17.0046 17.9346 17.0049 17.9287 17.0059 17.9229L17.5 18L17.0059 17.9219L17.0068 17.9199C17.007 17.9188 17.0066 17.9174 17.0068 17.916C17.0073 17.9131 17.008 17.9095 17.0088 17.9053C17.0103 17.8965 17.0128 17.8844 17.0156 17.8701C17.0212 17.8416 17.0294 17.8021 17.041 17.7539C17.0642 17.6574 17.1014 17.5237 17.1572 17.3652C17.2687 17.049 17.4582 16.6258 17.7744 16.2012C18.3631 15.4108 19.3659 14.6512 21.001 14.5215V10.0332C20.8765 10.1432 20.7397 10.2536 20.5898 10.3584C19.6804 10.9943 18.3194 11.4508 16.5996 10.7539C14.9427 10.0822 13.9868 8.97118 13.4492 8.02832C13.1817 7.55899 13.0169 7.13081 12.9189 6.81738C12.8699 6.66052 12.8372 6.5305 12.8164 6.43848C12.8061 6.39283 12.7989 6.35559 12.7939 6.3291C12.7915 6.31605 12.7895 6.30483 12.7881 6.29688C12.7874 6.29307 12.7866 6.28967 12.7861 6.28711C12.7859 6.28613 12.7853 6.28498 12.7852 6.28418L12.7861 6.28223H12.7871L12.7861 6.28125H12.7852C12.7849 6.2797 12.7862 6.27794 12.7861 6.27637C12.7828 6.25314 12.7813 6.22943 12.7812 6.20605C12.7812 6.19499 12.7806 6.18379 12.7812 6.17285C12.7826 6.1518 12.786 6.13109 12.79 6.11035C12.792 6.1003 12.7924 6.08994 12.7949 6.08008C12.8084 6.02786 12.832 5.97785 12.8623 5.93164C12.8677 5.92335 12.8721 5.91422 12.8779 5.90625C12.8876 5.8934 12.9001 5.88215 12.9111 5.87012C12.923 5.8571 12.9341 5.84281 12.9473 5.83105C12.949 5.8295 12.9514 5.8277 12.9531 5.82617H12.9541L12.9551 5.8252H12.9541L12.958 5.82227C12.9597 5.82071 12.9613 5.8176 12.9639 5.81543C12.9695 5.81072 12.9779 5.80452 12.9873 5.79688C13.0067 5.78118 13.0347 5.7588 13.0693 5.73242C13.1391 5.67929 13.2399 5.60563 13.3682 5.52148C13.6249 5.35304 13.9973 5.13822 14.4639 4.94336C15.3978 4.55343 16.7274 4.24061 18.2773 4.57324C19.9217 4.92635 20.7984 6.13268 21.2529 7.17578C21.2867 7.25337 21.3171 7.33101 21.3467 7.40723C21.536 6.40144 22.0417 5.29231 23.2432 4.57129C24.6025 3.75582 25.9619 3.62218 26.9717 3.68945ZM5.23633 20.6318C5.06353 20.4063 4.73689 20.3698 4.51855 20.5518L3.0293 21.793C2.82934 21.9598 2.79042 22.253 2.94043 22.4658L7.82812 29.3896C7.98788 29.616 8.30179 29.6695 8.52734 29.5088L10.3691 28.1934C10.5985 28.0291 10.6467 27.7077 10.4756 27.4834L5.23633 20.6318ZM13.3145 17.3105C12.3561 17.2189 11.1001 17.4722 9.79102 18.4072C8.40898 19.3944 7.83035 19.8767 6.85352 20.8535C6.81676 20.8902 6.77418 20.9175 6.73047 20.9404L10.5137 25.8877C10.5413 25.7679 10.6123 25.6576 10.7227 25.584L11.4668 25.0879C12.0416 24.7047 12.7174 24.5001 13.4082 24.5H18.792C19.1799 24.5 19.5632 24.4098 19.9102 24.2363L29.085 19.6475C29.084 19.6067 29.0723 19.567 29.0488 19.5244C28.9902 19.4183 28.8526 19.281 28.6104 19.1572C28.128 18.9112 27.3775 18.7963 26.6211 18.9854C25.6547 19.227 24.805 19.5498 24.0566 19.8408C23.479 20.0655 22.9254 20.285 22.4395 20.4131C22.3176 20.829 22.0284 21.1509 21.7529 21.375C21.3838 21.6751 20.952 21.8767 20.6582 21.9746C20.6073 21.9915 20.5536 22 20.5 22H16C15.724 21.9998 15.5 21.776 15.5 21.5C15.5 21.224 15.7241 21.0002 16 21H20.4082C20.6121 20.9237 20.8926 20.7862 21.1221 20.5996C21.3862 20.3848 21.5 20.1793 21.5 20C21.5 19.9606 21.4984 19.8458 21.167 19.7158C20.8289 19.5834 20.278 19.5 19.5 19.5C18.612 19.4999 17.6697 19.2255 16.9268 18.9736C16.7385 18.9098 16.5595 18.8457 16.3955 18.7871C16.23 18.7279 16.0818 18.6744 15.9492 18.6289C15.816 18.5832 15.7067 18.5491 15.6211 18.5264C15.5303 18.5023 15.4972 18.5001 15.5 18.5C15.3002 18.4998 15.1188 18.3809 15.04 18.1973C14.8921 17.8525 14.3117 17.4061 13.3145 17.3105ZM21.5 15.5C19.9034 15.5001 19.0479 16.1668 18.5771 16.7988C18.3349 17.1241 18.1864 17.4511 18.0996 17.6973C18.0564 17.8197 18.0299 17.9208 18.0137 17.9883C18.0056 18.0218 18.0001 18.0471 17.9971 18.0625C17.9957 18.0697 17.9936 18.0745 17.9932 18.0771C17.9839 18.1365 17.963 18.1905 17.9355 18.2402C18.4649 18.3898 19.0057 18.4999 19.5 18.5C20.3211 18.5 21.0204 18.5836 21.5322 18.7842C21.8598 18.9126 22.1595 19.1145 22.3359 19.4033C22.7023 19.2939 23.1459 19.1221 23.6934 18.9092C24.0823 18.7579 24.5119 18.5925 24.9785 18.4326C24.9611 18.3505 24.9341 18.235 24.8926 18.0977C24.8027 17.8004 24.6504 17.4081 24.4023 17.0195C23.9167 16.259 23.0623 15.5 21.5 15.5ZM18.0674 5.55078C16.7675 5.27187 15.6495 5.53131 14.8496 5.86523C14.4499 6.03215 14.1322 6.21723 13.917 6.3584C13.8911 6.37542 13.8676 6.39354 13.8447 6.40918C13.8543 6.44281 13.862 6.48003 13.874 6.51855C13.9548 6.77683 14.0925 7.13795 14.3184 7.53418C14.7683 8.32317 15.5666 9.25624 16.9746 9.82715C18.32 10.3724 19.3268 10.0213 20.0166 9.53906C20.0604 9.50841 20.1013 9.47402 20.1426 9.44238L16.7979 7.95703L16.71 7.90625C16.5208 7.77107 16.4458 7.51759 16.5439 7.29688C16.6421 7.07636 16.8805 6.962 17.1074 7.01172L17.2041 7.04297L20.665 8.58008C20.5974 8.28941 20.4943 7.93658 20.3369 7.5752C19.9504 6.68827 19.2729 5.80969 18.0674 5.55078ZM26.9043 4.68652C26.0394 4.62896 24.8977 4.74491 23.7578 5.42871C22.7006 6.06322 22.3429 7.11293 22.2637 8.07715C22.2519 8.22094 22.2478 8.36135 22.2471 8.49609L24.7529 7.06543C24.9926 6.92896 25.2987 7.01242 25.4355 7.25195C25.5721 7.4915 25.4883 7.79751 25.249 7.93457L22.458 9.52832C22.6677 9.63862 22.919 9.75046 23.2012 9.83203C24.0098 10.0656 25.0757 10.0727 26.1729 9.12207C27.3211 8.12672 27.7754 6.98589 27.9463 6.09375C28.0321 5.64571 28.0461 5.25977 28.0391 4.98926C28.038 4.94873 28.0331 4.91102 28.0312 4.87598C28.0047 4.86858 27.9762 4.85927 27.9463 4.85156C27.6971 4.7875 27.3364 4.71536 26.9043 4.68652Z" fill="#1A1A1A"/>
</svg>
