<svg width="32" height="32" viewBox="0 0 32 32" fill="none" xmlns="http://www.w3.org/2000/svg">
<path d="M25.4346 21.5098C25.6622 21.5565 25.834 21.7585 25.834 22C25.834 22.2415 25.6622 22.4435 25.4346 22.4902L25.334 22.5H6.66699C6.39085 22.5 6.16699 22.2761 6.16699 22C6.16699 21.7239 6.39085 21.5 6.66699 21.5H25.334L25.4346 21.5098ZM25.4346 15.5098C25.6622 15.5565 25.834 15.7585 25.834 16C25.834 16.2415 25.6622 16.4435 25.4346 16.4902L25.334 16.5H6.66699C6.39085 16.5 6.16699 16.2761 6.16699 16C6.16699 15.7239 6.39085 15.5 6.66699 15.5H25.334L25.4346 15.5098ZM25.4346 9.50977C25.6622 9.55655 25.834 9.75852 25.834 10C25.834 10.2415 25.6622 10.4435 25.4346 10.4902L25.334 10.5H6.66699C6.39085 10.5 6.16699 10.2761 6.16699 10C6.16699 9.72386 6.39085 9.5 6.66699 9.5H25.334L25.4346 9.50977Z" fill="#1A1A1A"/>
</svg>
