<svg width="41" height="41" viewBox="0 0 41 41" fill="none" xmlns="http://www.w3.org/2000/svg">
<path d="M24.7611 25.4402C24.9328 25.4863 25.0679 25.6203 25.1146 25.7917L25.9515 28.8718L28.7904 30.3318C28.9483 30.4132 29.0505 30.5723 29.0599 30.7498C29.0692 30.9274 28.9841 31.0976 28.8353 31.1951L26.1644 32.9421L25.6537 36.0935C25.6251 36.269 25.5053 36.4165 25.3392 36.4802C25.1732 36.5438 24.9857 36.5145 24.847 36.4031L22.3588 34.4041L19.2054 34.8914C19.0296 34.9185 18.8516 34.8499 18.7396 34.7117C18.6279 34.5734 18.5984 34.3857 18.6615 34.2195L19.7933 31.2361L18.3549 28.3865C18.2749 28.2277 18.2854 28.0375 18.3822 27.8884C18.4791 27.7393 18.6489 27.6532 18.8265 27.6619L22.0131 27.8162L24.2797 25.5681L24.3295 25.5251C24.4514 25.4327 24.6109 25.4 24.7611 25.4402ZM22.5619 28.6824C22.4624 28.7809 22.3258 28.8326 22.1859 28.8259L19.6351 28.7009L20.7855 30.9822C20.8486 31.1073 20.8557 31.2535 20.806 31.3845L19.9008 33.7712L22.4242 33.3816L22.5277 33.3767C22.6311 33.3824 22.7317 33.4202 22.8138 33.4861L24.8041 35.0847L25.2133 32.5652C25.2358 32.4268 25.3157 32.3041 25.433 32.2273L27.5697 30.8279L25.2982 29.6599C25.1737 29.5957 25.0812 29.4826 25.0443 29.3474L24.3744 26.8826L22.5619 28.6824ZM8.73962 13.1394C8.91141 13.0934 9.09574 13.1421 9.22205 13.2673L11.8363 15.8611L15.515 15.6833C15.6924 15.6749 15.8605 15.7612 15.9574 15.9099C16.0543 16.0591 16.0649 16.2491 15.9847 16.408L14.3256 19.6951L15.6322 23.1394C15.6952 23.3057 15.666 23.4934 15.5541 23.6316C15.4422 23.7697 15.2649 23.8373 15.0892 23.8103L11.4486 23.2478L8.57751 25.5554C8.43887 25.6665 8.25121 25.6962 8.08533 25.6326C7.91935 25.5687 7.80034 25.4204 7.77185 25.2449L7.18103 21.6091L4.10095 19.5925C3.95208 19.495 3.86605 19.3249 3.87537 19.1472C3.88495 18.9699 3.98794 18.8105 4.14587 18.7292L7.41931 17.0447L8.38708 13.491L8.40857 13.4285C8.46788 13.2875 8.58963 13.1798 8.73962 13.1394ZM8.32751 17.5203C8.2906 17.6556 8.19834 17.7696 8.07361 17.8337L5.3656 19.2253L7.91345 20.8943C8.03082 20.9712 8.1107 21.0946 8.13318 21.2332L8.61951 24.2371L10.9945 22.3308C11.1039 22.243 11.2455 22.2049 11.3842 22.2263L14.3929 22.6902L13.3129 19.8445C13.2632 19.7134 13.2713 19.5673 13.3344 19.4421L14.7054 16.7224L11.6644 16.8708C11.5244 16.8775 11.388 16.8251 11.2885 16.7263L9.12634 14.5818L8.32751 17.5203ZM30.7875 3.99487C30.9589 4.04098 31.0932 4.17424 31.14 4.34546L32.6625 9.94312L37.8226 12.5974C37.9806 12.6788 38.0838 12.8389 38.0931 13.0164C38.1023 13.1938 38.0161 13.3632 37.8676 13.4607L33.0131 16.6384L32.0844 22.365C32.0558 22.5406 31.936 22.6889 31.7699 22.7527C31.6039 22.8162 31.4163 22.7859 31.2777 22.6746L26.7552 19.0408L21.0219 19.9265C20.8462 19.9536 20.669 19.8858 20.557 19.7478C20.4451 19.6096 20.4149 19.4219 20.4779 19.2556L22.5365 13.8308L19.9222 8.65308C19.8421 8.49421 19.8527 8.3033 19.9496 8.15405C20.0465 8.00526 20.2156 7.91904 20.3929 7.92749L26.1869 8.20776L30.306 4.1228L30.3549 4.07886C30.4769 3.98612 30.637 3.95456 30.7875 3.99487ZM26.7357 9.07397C26.6361 9.17283 26.4989 9.22529 26.3588 9.21851L21.2015 8.96753L23.5287 13.5769C23.5919 13.7021 23.5999 13.849 23.5502 13.9802L21.7172 18.8074L26.8207 18.0193L26.9242 18.0144C27.0273 18.0201 27.1274 18.0572 27.2094 18.1228L31.2347 21.3572L32.0619 16.2605C32.0845 16.1223 32.1645 15.9994 32.2816 15.9226L36.601 13.0935L32.0092 10.7332C31.8846 10.669 31.7931 10.5548 31.7562 10.4197L30.4008 5.43628L26.7357 9.07397Z" fill="#1A1A1A"/>
</svg>
