<svg width="32" height="32" viewBox="0 0 32 32" fill="none" xmlns="http://www.w3.org/2000/svg">
<path d="M11.4893 2C11.6909 1.99832 11.8739 2.11821 11.9531 2.30371L17.082 14.3037C17.1902 14.5575 17.0721 14.8514 16.8184 14.96C16.5644 15.0685 16.2706 14.9502 16.1621 14.6963L11.5049 3.7998L2.49219 26H10.9932V22.8398L7.07422 19.623C6.86082 19.4478 6.82972 19.1333 7.00488 18.9199C7.1801 18.7066 7.49462 18.6755 7.70801 18.8506L10.9932 21.5469V8.39453C10.9933 8.11863 11.2173 7.89476 11.4932 7.89453C11.7692 7.89463 11.993 8.11855 11.9932 8.39453V10.4355C11.9959 10.4568 12 10.478 12 10.5V16.0205L13.6787 14.6162C13.8905 14.4391 14.2066 14.4671 14.3838 14.6787C14.5609 14.8904 14.5329 15.2066 14.3213 15.3838L12 17.3252V26H14.0576C14.3337 26.0001 14.5576 26.2239 14.5576 26.5C14.5576 26.7761 14.3337 26.9999 14.0576 27H12V30C12 30.2761 11.7761 30.4999 11.5 30.5C11.2239 30.5 11 30.2761 11 30V27H1.75C1.58366 27 1.42788 26.9173 1.33496 26.7793C1.2421 26.6413 1.22454 26.4656 1.28711 26.3115L11.0303 2.31152L11.0635 2.24512C11.1517 2.09619 11.3126 2.00161 11.4893 2ZM31 23.5C31.2761 23.5001 31.5 23.7239 31.5 24V30C31.5 30.2761 31.2761 30.4999 31 30.5C30.7239 30.5 30.5 30.2761 30.5 30V24.5H17.5V30C17.5 30.2761 17.2761 30.4999 17 30.5C16.7239 30.5 16.5 30.2761 16.5 30V24C16.5 23.7239 16.7239 23.5 17 23.5H31ZM29 20.5C29.2761 20.5001 29.5 20.7239 29.5 21C29.5 21.2761 29.2761 21.4999 29 21.5H19C18.7239 21.5 18.5 21.2761 18.5 21C18.5 20.7239 18.7239 20.5 19 20.5H29ZM29 17.5C29.2761 17.5001 29.5 17.7239 29.5 18C29.5 18.2761 29.2761 18.4999 29 18.5H19C18.7239 18.5 18.5 18.2761 18.5 18C18.5 17.7239 18.7239 17.5 19 17.5H29Z" fill="#1A1A1A"/>
</svg>
