<svg width="21" height="20" viewBox="0 0 21 20" fill="none" xmlns="http://www.w3.org/2000/svg">
<path d="M11.1634 16.2561L15.8922 19.2516C16.4967 19.6341 17.2467 19.0648 17.0674 18.3591L15.7017 12.9853C15.6631 12.8356 15.6676 12.6781 15.7145 12.5308C15.7615 12.3836 15.8491 12.2525 15.9672 12.1528L20.2077 8.62408C20.7642 8.16058 20.4777 7.23583 19.7614 7.18933L14.2242 6.82933C14.0751 6.81875 13.9321 6.76605 13.8118 6.67735C13.6915 6.58866 13.5989 6.46762 13.5447 6.32833L11.4792 1.12783C11.423 0.980034 11.3231 0.852824 11.1929 0.763067C11.0627 0.673309 10.9083 0.625244 10.7502 0.625244C10.5921 0.625244 10.4377 0.673309 10.3075 0.763067C10.1773 0.852824 10.0774 0.980034 10.0212 1.12783L7.9557 6.32833C7.90163 6.46776 7.80905 6.58896 7.68874 6.67779C7.56844 6.76662 7.42536 6.81944 7.2762 6.83008L1.73895 7.19008C1.02345 7.23583 0.735446 8.16058 1.2927 8.62408L5.5332 12.1536C5.65118 12.2532 5.73867 12.3841 5.78563 12.5312C5.8326 12.6784 5.83712 12.8358 5.7987 12.9853L4.5327 17.9691C4.31745 18.8158 5.2182 19.4991 5.9427 19.0393L10.3377 16.2561C10.4612 16.1775 10.6046 16.1358 10.7509 16.1358C10.8973 16.1358 11.0407 16.1775 11.1642 16.2561H11.1634Z" stroke="currentColor" stroke-linecap="round" stroke-linejoin="round"/>
</svg>
