<svg width="32" height="32" viewBox="0 0 32 32" fill="none" xmlns="http://www.w3.org/2000/svg">
<path d="M22.7725 2.55371C24.4089 1.57194 26.6296 1.66528 27.9092 3.23535C29.7288 5.46831 30.5063 7.8133 30.2793 9.97559C30.065 12.0158 28.9618 13.8257 27.1289 15.168L30.6914 21.3379C30.8295 21.577 30.747 21.8834 30.5078 22.0215L19.25 28.5215C19.0109 28.6596 18.7045 28.577 18.5664 28.3379L17.1367 25.8613L6.52832 19.1104C5.87742 19.9422 5.07779 20.3403 4.25879 20.4541C3.2411 20.5954 2.25829 20.292 1.5957 20.0068C0.741929 19.6391 0.604036 18.6296 1.06738 17.9619L4.09766 13.5967C4.56532 12.9238 5.5839 12.7001 6.21387 13.4131C7.01718 14.3226 8.13147 16.1193 7.05957 18.2637L12.0078 21.4121L13.9092 20.2705L9.82422 13.1953L9.78223 13.1035C9.70855 12.8829 9.79762 12.6336 10.0068 12.5127L20.9189 6.21191C20.4178 5.07334 20.832 3.71739 21.9219 3.06348L22.7725 2.55371ZM10.9404 13.1289L11.7656 14.5586L17.2607 11.5615C17.5031 11.4295 17.8063 11.5184 17.9385 11.7607C18.0704 12.003 17.9814 12.3062 17.7393 12.4385L12.2646 15.4238L19.1826 27.4053L29.5752 21.4053L21.332 7.12891L10.9404 13.1289ZM12.9502 22.0117L16.0547 23.9873L14.4092 21.1367L12.9502 22.0117ZM5.21387 13.9775C5.11459 13.9896 5.00066 14.0496 4.91895 14.167L1.88867 18.5322C1.80793 18.6488 1.78985 18.7762 1.8125 18.876C1.83387 18.9699 1.89095 19.0457 1.99121 19.0889C2.5833 19.3437 3.36651 19.5685 4.12109 19.4639C4.83736 19.3643 5.59008 18.9606 6.16113 17.8262C6.96012 16.2386 6.18264 14.888 5.46484 14.0752C5.3936 13.9946 5.30622 13.9665 5.21387 13.9775ZM27.1338 3.86719C26.2394 2.76973 24.6016 2.62267 23.2871 3.41113L22.4365 3.92188C21.7368 4.3417 21.5004 5.24367 21.9053 5.95215L26.6592 14.2695C28.2189 13.0843 29.1086 11.5516 29.2852 9.87109C29.4781 8.03318 28.8273 5.94537 27.1338 3.86719Z" fill="#1A1A1A"/>
</svg>
