<svg width="24" height="24" viewBox="0 0 24 24" fill="none" xmlns="http://www.w3.org/2000/svg">
<path d="M16.7305 2.38336C13.5485 1.67209 10.2484 1.67215 7.06641 2.38336L6.72656 2.45953C4.83001 2.88366 3.3335 4.33851 2.85547 6.22223C2.0478 9.40493 2.04784 12.7388 2.85547 15.9214C3.29884 17.6685 4.61808 19.0476 6.32031 19.5767L6.75977 22.1978C6.80497 22.4674 6.9931 22.6913 7.25098 22.7818C7.50887 22.8722 7.79532 22.8146 7.99902 22.6324L10.6523 20.2584C12.6857 20.3729 14.7317 20.2071 16.7305 19.7603L17.0693 19.6841C18.9659 19.2601 20.4633 17.8053 20.9414 15.9214C21.749 12.7389 21.749 9.40483 20.9414 6.22223C20.4633 4.3384 18.9661 2.88357 17.0693 2.45953L16.7305 2.38336ZM7.39355 3.84723C10.3601 3.18418 13.4368 3.18413 16.4033 3.84723L16.7422 3.9234C18.087 4.22409 19.1483 5.25579 19.4873 6.59137C20.2334 9.53197 20.2335 12.6127 19.4873 15.5533C19.1482 16.8887 18.0868 17.9196 16.7422 18.2203L16.4033 18.2964C14.4424 18.7347 12.433 18.8838 10.4395 18.7427C10.2372 18.7284 10.0378 18.7961 9.88672 18.9312L8.01465 20.607L7.71973 18.8492C7.66933 18.5482 7.44144 18.3074 7.14355 18.2408L7.05469 18.2203C5.70993 17.9197 4.64762 16.8889 4.30859 15.5533C3.56236 12.6127 3.56243 9.53195 4.30859 6.59137C4.64755 5.25569 5.70986 4.224 7.05469 3.9234L7.39355 3.84723ZM7.96387 6.20172C7.77818 6.17464 7.58831 6.21172 7.42676 6.30719H7.41309C7.0379 6.52711 6.70032 6.80575 6.41211 7.13141C6.1726 7.40834 6.04291 7.68885 6.00879 7.95856C5.98851 8.11919 6.00195 8.27974 6.0498 8.43317L6.06641 8.44391C6.33613 9.23665 6.68864 9.99941 7.11914 10.7173C7.67367 11.7259 8.35601 12.6589 9.14941 13.4927L9.17383 13.5259L9.21094 13.5543L9.23438 13.5816L9.26172 13.605C10.0986 14.4007 11.0343 15.0863 12.0449 15.6451C13.1999 16.2737 13.9007 16.5715 14.3213 16.6949V16.7017C14.4446 16.7392 14.5571 16.7554 14.6699 16.7554C15.0283 16.7291 15.3678 16.5839 15.6338 16.3423C15.9579 16.0541 16.2326 15.7144 16.4473 15.3375V15.3306C16.6484 14.9515 16.5805 14.5929 16.29 14.3502C15.7079 13.8414 15.0784 13.3895 14.4102 13.0005C13.9628 12.7579 13.5078 12.9041 13.3232 13.15L12.9297 13.6461C12.7301 13.8895 12.3692 13.8586 12.3623 13.858L12.3516 13.8648C9.62095 13.1672 8.89258 10.4019 8.89258 10.4019C8.89199 10.3952 8.86096 10.0244 9.11133 9.83453L9.60352 9.43805C9.83907 9.24641 10.0026 8.79245 9.75 8.3443C9.36374 7.67503 8.91264 7.04458 8.40332 6.46344C8.29203 6.32672 8.13607 6.23368 7.96289 6.20074L7.96387 6.20172ZM12.5781 4.99957C12.3022 4.99973 12.0781 5.22353 12.0781 5.49957C12.0782 5.77559 12.3022 5.99941 12.5781 5.99957C13.8426 5.99957 14.8935 6.41322 15.7236 7.20465C16.1509 7.63802 16.4838 8.15114 16.7021 8.71246C16.9212 9.27578 17.0207 9.87641 16.9951 10.4781C16.9834 10.7539 17.1977 10.9869 17.4736 10.9986C17.7494 11.0104 17.9823 10.7968 17.9941 10.5211C18.0256 9.78066 17.903 9.04123 17.6338 8.34918C17.3646 7.6573 16.9547 7.02647 16.4297 6.49567L16.4199 6.48688C15.3899 5.50185 14.084 4.99957 12.5781 4.99957ZM12.5254 8.31793C12.2497 8.30356 12.0145 8.51588 12 8.79156C11.9858 9.06702 12.1973 9.30226 12.4727 9.31696C12.8911 9.33898 13.1584 9.46406 13.3262 9.63336C13.4947 9.80351 13.6205 10.0764 13.6436 10.5035C13.6585 10.7792 13.8942 10.9909 14.1699 10.9761C14.4456 10.9613 14.6574 10.7256 14.6426 10.4498C14.6103 9.84989 14.4225 9.31952 14.0371 8.93024C13.6508 8.54018 13.1229 8.34938 12.5254 8.31793ZM12.5449 6.6441C12.269 6.6441 12.0452 6.86817 12.0449 7.1441C12.0449 7.42024 12.2688 7.6441 12.5449 7.6441H12.5605C13.4729 7.7084 14.137 8.01313 14.6025 8.51227C15.079 9.02643 15.3259 9.66542 15.3076 10.4556C15.3014 10.7313 15.5202 10.9598 15.7959 10.9664C16.072 10.9728 16.3012 10.7542 16.3076 10.4781C16.3316 9.4407 15.9981 8.54588 15.3359 7.8316L15.335 7.83063C14.6584 7.10464 13.7296 6.72112 12.6113 6.64606L12.5947 6.6441H12.5449Z" fill="#1A1A1A"/>
</svg>
