<svg width="32" height="32" viewBox="0 0 32 32" fill="none" xmlns="http://www.w3.org/2000/svg">
<path d="M25.6807 6.00488C27.53 6.09841 29.0008 7.62746 29.001 9.5V22.5C29.001 24.433 27.434 26 25.501 26H6.50098C4.62825 26 3.0994 24.5292 3.00586 22.6797L3.00098 22.5V11.0098C3.00091 11.0065 3 11.0033 3 11C3 10.9964 3.0009 10.9928 3.00098 10.9893V9.5C3.0012 7.56719 4.56812 6 6.50098 6H25.501L25.6807 6.00488ZM4.00098 22.5L4.01367 22.7559C4.1418 24.0164 5.20664 25 6.50098 25H25.501C26.8817 25 28.001 23.8807 28.001 22.5V11.5H4.00098V22.5ZM16 21.5C16.2761 21.5 16.5 21.7239 16.5 22C16.5 22.2761 16.2761 22.5 16 22.5H7C6.72386 22.5 6.5 22.2761 6.5 22C6.5 21.7239 6.72386 21.5 7 21.5H16ZM12 18.5C12.2761 18.5 12.5 18.7239 12.5 19C12.5 19.2761 12.2761 19.5 12 19.5H7C6.72386 19.5 6.5 19.2761 6.5 19C6.5 18.7239 6.72386 18.5 7 18.5H12ZM6.50098 7C5.1204 7 4.0012 8.11948 4.00098 9.5V10.5H28.001V9.5C28.0008 8.20584 27.0172 7.14081 25.7568 7.0127L25.501 7H6.50098Z" fill="#1A1A1A"/>
</svg>
