<svg width="32" height="32" viewBox="0 0 32 32" fill="none" xmlns="http://www.w3.org/2000/svg">
<path d="M30 6.5C30.2761 6.5 30.5 6.72386 30.5 7V30C30.5 30.2761 30.2761 30.5 30 30.5H2C1.72386 30.5 1.5 30.2761 1.5 30V7C1.5 6.72386 1.72386 6.5 2 6.5H30ZM2.5 29.5H29.5V7.5H2.5V29.5ZM19.4365 9.19141C20.6934 9.12287 21.7785 9.22559 22.5508 9.3457C22.9373 9.40584 23.2473 9.4703 23.4619 9.52051C23.5689 9.54553 23.653 9.56648 23.7109 9.58203C23.7398 9.58977 23.7635 9.59706 23.7793 9.60156C23.7866 9.60365 23.7925 9.60517 23.7969 9.60645C23.7989 9.60703 23.8014 9.608 23.8027 9.6084H23.8057L23.8281 9.61719C23.845 9.62316 23.8618 9.62998 23.8779 9.6377L23.8994 9.64746C23.9056 9.6508 23.9119 9.65462 23.918 9.6582C23.9282 9.66431 23.9384 9.67091 23.9482 9.67773C23.9609 9.68655 23.9727 9.6962 23.9844 9.70605C23.9886 9.70964 23.9939 9.71307 23.998 9.7168L24.0332 9.75195C24.0366 9.75578 24.0397 9.7607 24.043 9.76465C24.0529 9.77638 24.0624 9.78904 24.0713 9.80176C24.0781 9.81159 24.0847 9.82175 24.0908 9.83203C24.0946 9.83826 24.0991 9.84415 24.1025 9.85059L24.1113 9.87207C24.1191 9.88826 24.1268 9.90491 24.1328 9.92188L24.1416 9.94434V9.94824C24.142 9.94957 24.143 9.9513 24.1436 9.95312C24.1449 9.95759 24.1473 9.96412 24.1494 9.97168C24.1539 9.98756 24.1603 10.0113 24.168 10.04C24.1835 10.098 24.2045 10.1814 24.2295 10.2881C24.2797 10.5027 24.3442 10.8127 24.4043 11.1992C24.5244 11.9715 24.6281 13.0565 24.5596 14.3135C24.4223 16.8294 23.5958 20.0534 20.834 22.8154C17.8996 25.7498 14.677 26.5817 12.1904 26.6738C10.9505 26.7198 9.89373 26.5823 9.14551 26.4326C8.77131 26.3578 8.47256 26.2799 8.26562 26.2197C8.25838 26.2176 8.25116 26.215 8.24414 26.2129L6.69141 27.7656C6.49614 27.9608 6.17961 27.9609 5.98438 27.7656C5.78916 27.5704 5.7892 27.2539 5.98438 27.0586L7.53711 25.5059C7.53504 25.4988 7.5324 25.4916 7.53027 25.4844C7.4701 25.2774 7.39223 24.9787 7.31738 24.6045C7.16774 23.8563 7.03025 22.7995 7.07617 21.5596C7.16834 19.073 8.00024 15.8503 10.9346 12.916C13.6966 10.1542 16.9206 9.32868 19.4365 9.19141ZM22.3975 10.333C21.6783 10.2212 20.6635 10.1255 19.4902 10.1895C17.1451 10.3175 14.1824 11.0824 11.6416 13.623C8.91936 16.3453 8.15897 19.3104 8.07422 21.5967C8.03177 22.7431 8.16024 23.7201 8.29785 24.4082C8.31746 24.5063 8.33986 24.5978 8.35938 24.6836L12.9092 20.1338V14.6846L12.9189 14.583C12.9317 14.5207 12.9566 14.4626 12.9902 14.4111C12.9956 14.403 13.002 14.3955 13.0078 14.3877C13.0201 14.3711 13.0327 14.3548 13.0469 14.3398C13.0538 14.3325 13.061 14.3252 13.0684 14.3184C13.0819 14.3057 13.0964 14.2943 13.1113 14.2832C13.1223 14.275 13.1338 14.267 13.1455 14.2598C13.1625 14.2492 13.1809 14.2399 13.1992 14.2314C13.2064 14.2281 13.2133 14.2237 13.2207 14.2207C13.2396 14.213 13.2594 14.2075 13.2793 14.2021C13.3208 14.191 13.3642 14.1846 13.4092 14.1846C13.4541 14.1846 13.4976 14.191 13.5391 14.2021C13.559 14.2075 13.5788 14.213 13.5977 14.2207C13.605 14.2237 13.612 14.2281 13.6191 14.2314C13.6374 14.2399 13.6549 14.2493 13.6719 14.2598C13.6837 14.2671 13.6959 14.2749 13.707 14.2832C13.7217 14.2941 13.7356 14.3059 13.749 14.3184C13.7563 14.3251 13.7637 14.3327 13.7705 14.3398C13.7848 14.3548 13.7982 14.3711 13.8105 14.3877C13.8163 14.3955 13.8228 14.403 13.8281 14.4111C13.843 14.4338 13.8561 14.4583 13.8672 14.4834C13.8683 14.4858 13.8691 14.4887 13.8701 14.4912C13.8825 14.5206 13.8929 14.5511 13.8994 14.583L13.9092 14.6846V19.1338L21.1875 11.8555C21.3828 11.6605 21.6994 11.6603 21.8945 11.8555C22.0897 12.0506 22.0895 12.3672 21.8945 12.5625L14.6162 19.8408H19.0664C19.1007 19.8408 19.1346 19.844 19.167 19.8506C19.1987 19.8571 19.2296 19.8667 19.2588 19.8789C19.2613 19.88 19.2641 19.8817 19.2666 19.8828C19.2914 19.8937 19.3154 19.9063 19.3379 19.9209C19.3462 19.9263 19.3534 19.9336 19.3613 19.9395C19.3779 19.9517 19.3942 19.9643 19.4092 19.9785C19.4165 19.9854 19.4238 19.9926 19.4307 20C19.4433 20.0136 19.4557 20.028 19.4668 20.043C19.4752 20.0543 19.4828 20.0661 19.4902 20.0781C19.5006 20.0949 19.5102 20.1128 19.5186 20.1309C19.5218 20.1377 19.5254 20.1444 19.5283 20.1514C19.5361 20.1703 19.5415 20.1909 19.5469 20.2109C19.5581 20.2525 19.5654 20.2957 19.5654 20.3408C19.5654 20.3855 19.5579 20.4285 19.5469 20.4697C19.5415 20.4898 19.536 20.5103 19.5283 20.5293C19.5254 20.5363 19.5218 20.5429 19.5186 20.5498C19.5101 20.5682 19.5008 20.5864 19.4902 20.6035C19.4829 20.6153 19.475 20.6266 19.4668 20.6377C19.4557 20.6527 19.4434 20.667 19.4307 20.6807C19.4238 20.6881 19.4165 20.6952 19.4092 20.7021C19.3942 20.7164 19.378 20.7289 19.3613 20.7412C19.3534 20.7471 19.3462 20.7544 19.3379 20.7598C19.2865 20.7933 19.2291 20.8183 19.167 20.8311L19.0664 20.8408H13.6162L9.06641 25.3906C9.15222 25.4101 9.24373 25.4325 9.3418 25.4521C10.0299 25.5898 11.0069 25.7182 12.1533 25.6758C14.4396 25.591 17.4047 24.8307 20.127 22.1084C22.6676 19.5676 23.4325 16.6049 23.5605 14.2598C23.6245 13.0864 23.5289 12.0717 23.417 11.3525C23.3611 10.9934 23.3009 10.7084 23.2559 10.5156C23.2545 10.5097 23.2533 10.5038 23.252 10.498C23.2462 10.4967 23.2403 10.4955 23.2344 10.4941C23.0416 10.4491 22.7566 10.3889 22.3975 10.333ZM28.5 4C28.7761 4 29 4.22386 29 4.5C29 4.77614 28.7761 5 28.5 5H3.5C3.22386 5 3 4.77614 3 4.5C3 4.22386 3.22386 4 3.5 4H28.5ZM26.5 1.5C26.7761 1.5 27 1.72386 27 2C27 2.27614 26.7761 2.5 26.5 2.5H5.5C5.22386 2.5 5 2.27614 5 2C5 1.72386 5.22386 1.5 5.5 1.5H26.5Z" fill="#1A1A1A"/>
</svg>
