<svg width="24" height="24" viewBox="0 0 24 24" fill="none" xmlns="http://www.w3.org/2000/svg">
<path d="M15.7109 3.05762C14.0547 2.98038 9.95347 2.98413 8.2959 3.05762C6.83934 3.12587 5.55435 3.47788 4.51855 4.51367C2.7877 6.24472 3.00879 8.57729 3.00879 11.998C3.00878 15.4991 2.81377 17.7776 4.51855 19.4824C6.25634 21.2194 8.62265 20.9922 12.0029 20.9922C15.4711 20.9922 16.6682 20.9943 17.8945 20.5195C19.5618 19.8723 20.8204 18.3819 20.9434 15.7051C21.0213 14.0483 21.0168 9.94778 20.9434 8.29004C20.7949 5.13016 19.0988 3.21362 15.7109 3.05762ZM12.0049 4.62207C16.0015 4.62205 19.1368 4.20366 19.3252 8.36133C19.3679 9.31011 19.3779 9.59549 19.3779 11.9971C19.3772 15.7034 19.448 17.2164 18.333 18.3369C17.1982 19.4717 15.6235 19.3711 11.9814 19.3711C8.23135 19.3711 6.72717 19.4264 5.62988 18.3262C4.36608 17.0684 4.59473 15.0477 4.59473 11.9854C4.59469 7.84169 4.17035 4.85753 8.3291 4.64453C9.28431 4.61079 9.56583 4.59961 11.9707 4.59961L12.0049 4.62207ZM12.002 7.37891C9.44962 7.37893 7.38379 9.44796 7.38379 11.998C7.3839 14.5503 9.45193 16.6162 12.002 16.6162C14.5542 16.6162 16.621 14.5481 16.6211 11.998C16.6211 9.44569 14.5521 7.37891 12.002 7.37891ZM12.002 9C13.658 9 15 10.342 15 11.998C15.0006 13.654 13.6587 14.9961 12.002 14.9961C10.3452 14.9961 9.00401 13.654 9.00391 11.998C9.00391 10.342 10.3459 9.00002 12.002 9ZM16.8037 6.11719C16.2078 6.11721 15.7248 6.60038 15.7246 7.19629C15.7246 7.79235 16.2077 8.27634 16.8037 8.27637C17.3998 8.27637 17.8828 7.79237 17.8828 7.19629C17.8826 6.60036 17.3997 6.11719 16.8037 6.11719Z" fill="#1A1A1A"/>
</svg>
