<svg width="32" height="32" viewBox="0 0 32 32" fill="none" xmlns="http://www.w3.org/2000/svg">
<path d="M9.54102 1.50195C9.55635 1.5032 9.57163 1.50512 9.58691 1.50781C9.59876 1.50992 9.61042 1.51268 9.62207 1.51562C9.62917 1.51742 9.6365 1.51839 9.64355 1.52051L9.66504 1.5293C9.68202 1.53525 9.69856 1.54205 9.71484 1.5498L9.7373 1.55957L9.73828 1.56055L9.74023 1.56152C9.74147 1.56219 9.74327 1.56344 9.74512 1.56445C9.7492 1.56669 9.75485 1.56942 9.76172 1.57324C9.77615 1.58128 9.79722 1.59338 9.82324 1.6084C9.87525 1.63841 9.94959 1.68226 10.043 1.74023C10.2303 1.85652 10.4947 2.02992 10.8105 2.26074C11.4416 2.72189 12.2817 3.4162 13.1221 4.35352C14.8041 6.22967 16.5 9.0937 16.5 13C16.5 17.1333 14.8224 20.7287 13.1689 23.2725C12.3403 24.5473 11.5118 25.5676 10.8896 26.2695C10.5785 26.6206 10.3182 26.8926 10.1348 27.0781C10.0841 27.1293 10.0385 27.1731 10 27.2109V29.5H22.25V26.9961C21.4616 27.0587 20.4461 26.9282 19.5117 26.3682C18.3679 25.6825 17.3902 24.3844 17.084 22.1562C17.0484 21.897 17.2107 21.6359 17.458 21.5566C18.8639 21.1064 20.204 21.2874 21.2402 22.1309C21.916 22.681 22.435 23.493 22.7686 24.5371C23.1021 23.4927 23.6229 22.6811 24.2988 22.1309C25.335 21.2876 26.6744 21.1065 28.0801 21.5566C28.3274 21.6359 28.4907 21.897 28.4551 22.1562C28.1489 24.3842 27.171 25.6825 26.0273 26.3682C25.0773 26.9377 24.0428 27.0634 23.249 26.9932C23.2491 26.9954 23.25 26.9977 23.25 27V29.5H31C31.2761 29.5 31.5 29.7239 31.5 30C31.5 30.2761 31.2761 30.5 31 30.5H2C1.72386 30.5 1.5 30.2761 1.5 30C1.5 29.7239 1.72386 29.5 2 29.5H9V27.2109C8.96155 27.173 8.91581 27.1293 8.86523 27.0781C8.68177 26.8926 8.42153 26.6206 8.11035 26.2695C7.48815 25.5676 6.65974 24.5473 5.83105 23.2725C4.17761 20.7287 2.5 17.1333 2.5 13C2.5 9.0937 4.19586 6.22967 5.87793 4.35352C6.71832 3.4162 7.55842 2.72189 8.18945 2.26074C8.50532 2.02992 8.76974 1.85652 8.95703 1.74023C9.05041 1.68226 9.12475 1.63841 9.17676 1.6084C9.20278 1.59338 9.22385 1.58128 9.23828 1.57324C9.24515 1.56942 9.2508 1.56669 9.25488 1.56445C9.25673 1.56344 9.25853 1.56219 9.25977 1.56152L9.26172 1.56055L9.2627 1.55957L9.28418 1.5498C9.30044 1.54202 9.31702 1.53528 9.33398 1.5293L9.35645 1.52051C9.3632 1.51848 9.37016 1.51735 9.37695 1.51562C9.38859 1.51266 9.40027 1.50994 9.41211 1.50781C9.42739 1.50509 9.44268 1.50323 9.45801 1.50195C9.46355 1.50148 9.46905 1.50029 9.47461 1.5H9.52539C9.53063 1.50027 9.53579 1.50152 9.54102 1.50195ZM20.6035 22.957C19.9352 22.4131 19.0879 22.2191 18.1328 22.4131C18.4641 24.0707 19.2313 24.9839 20.0449 25.4717C20.7385 25.8874 21.4916 26.0092 22.0898 25.9893C21.8529 24.5209 21.3034 23.5269 20.6035 22.957ZM27.4062 22.4131C26.4509 22.2189 25.603 22.413 24.9346 22.957C24.2348 23.5269 23.6861 24.521 23.4492 25.9893C24.0473 26.0091 24.7999 25.8871 25.4932 25.4717C26.3067 24.9839 27.075 24.0707 27.4062 22.4131ZM9.48438 2.58984C9.31622 2.69425 9.07272 2.85296 8.7793 3.06738C8.19164 3.49682 7.40656 4.14648 6.62207 5.02148C5.05421 6.77033 3.5 9.40645 3.5 13C3.5 16.8667 5.07241 20.2713 6.66895 22.7275C7.46512 23.9524 8.26189 24.9325 8.8584 25.6055C8.90637 25.6596 8.95475 25.7107 9 25.7607V19.707L5.14648 15.8535C4.95122 15.6583 4.95122 15.3417 5.14648 15.1465C5.34175 14.9512 5.65825 14.9512 5.85352 15.1465L9 18.293V5C9 4.72386 9.22386 4.5 9.5 4.5C9.53443 4.5 9.56812 4.50314 9.60059 4.50977C9.79608 4.54966 9.95034 4.70392 9.99023 4.89941C9.99686 4.93189 10 4.96557 10 5V12.293L13.1465 9.14648C13.3417 8.95122 13.6583 8.95122 13.8535 9.14648C14.0488 9.34175 14.0488 9.65825 13.8535 9.85352L10 13.707V25.7607C10.0452 25.7107 10.0936 25.6596 10.1416 25.6055C10.7381 24.9325 11.5349 23.9524 12.3311 22.7275C13.9276 20.2713 15.5 16.8667 15.5 13C15.5 9.40645 13.9458 6.77033 12.3779 5.02148C11.5934 4.14648 10.8084 3.49682 10.2207 3.06738C9.92728 2.85296 9.68378 2.69425 9.51562 2.58984C9.51033 2.58656 9.50515 2.58326 9.5 2.58008C9.49485 2.58326 9.48967 2.58656 9.48438 2.58984Z" fill="#1A1A1A"/>
</svg>
