<svg width="16" height="16" viewBox="0 0 16 16" fill="none" xmlns="http://www.w3.org/2000/svg">
<path d="M14.9564 1.05507C15.1517 1.25033 15.1517 1.56692 14.9564 1.76218L8.71401 8.00461L14.9571 14.2477L15.0213 14.3258C15.1492 14.5198 15.1279 14.7841 14.9571 14.9548C14.7864 15.1256 14.5221 15.1469 14.3281 15.019L14.25 14.9548L8.00691 8.71171L1.75688 14.9617L1.67885 15.026C1.4848 15.1539 1.22056 15.1325 1.04978 14.9617C0.879058 14.7909 0.857582 14.5267 0.985556 14.3327L1.04978 14.2546L7.2998 8.00461L1.05047 1.75527C0.855204 1.56001 0.855204 1.24343 1.05047 1.04817C1.24573 0.852905 1.56231 0.852904 1.75757 1.04817L8.00691 7.2975L14.2493 1.05507C14.4446 0.859839 14.7612 0.859896 14.9564 1.05507Z" fill="currentColor"/>
</svg>
