<svg width="40" height="41" viewBox="0 0 40 41" fill="none" xmlns="http://www.w3.org/2000/svg">
<path d="M23.75 7.17505C24.0261 7.17505 24.25 7.39891 24.25 7.67505V10.925H31.25C31.3826 10.925 31.5097 10.9778 31.6035 11.0715L38.4785 17.9465C38.5723 18.0403 38.625 18.1674 38.625 18.3V29.55C38.625 29.8262 38.4011 30.05 38.125 30.05H35.4326C35.476 30.2936 35.5 30.5441 35.5 30.8C35.5 33.1473 33.5972 35.05 31.25 35.05C28.9028 35.05 27 33.1473 27 30.8C27 30.5441 27.024 30.2936 27.0674 30.05H14.1826C14.226 30.2936 14.25 30.5441 14.25 30.8C14.25 33.1473 12.3472 35.05 10 35.05C7.65279 35.05 5.75 33.1473 5.75 30.8C5.75 30.5441 5.77401 30.2936 5.81738 30.05H2.5C2.22386 30.05 2 29.8262 2 29.55V7.67505C2 7.39891 2.22386 7.17505 2.5 7.17505H23.75ZM10 27.55C8.20507 27.55 6.75 29.0051 6.75 30.8C6.75 32.595 8.20507 34.05 10 34.05C11.7949 34.05 13.25 32.595 13.25 30.8C13.25 29.0051 11.7949 27.55 10 27.55ZM31.25 27.55C29.4551 27.55 28 29.0051 28 30.8C28 32.595 29.4551 34.05 31.25 34.05C33.0449 34.05 34.5 32.595 34.5 30.8C34.5 29.0051 33.0449 27.55 31.25 27.55ZM24.25 29.05H27.377C28.044 27.576 29.5268 26.55 31.25 26.55C32.9732 26.55 34.456 27.576 35.123 29.05H37.625V20.9875H24.25V29.05ZM3 29.05H6.12695C6.79404 27.576 8.2768 26.55 10 26.55C11.7232 26.55 13.206 27.576 13.873 29.05H23.25V8.17505H3V29.05ZM24.25 19.9875H37.625V18.5071L31.043 11.925H24.25V19.9875Z" fill="#1A1A1A"/>
</svg>
