<svg width="16" height="16" viewBox="0 0 16 16" fill="none" xmlns="http://www.w3.org/2000/svg">
<path d="M7.99976 1.90039C4.63113 1.9006 1.90036 4.63137 1.90015 8C1.90036 11.3686 4.63113 14.1004 7.99976 14.1006C11.3685 14.1005 14.1001 11.3687 14.1003 8C14.1001 7.72416 13.8762 7.5002 13.6003 7.5C13.3243 7.5 13.1006 7.72404 13.1003 8C13.1001 10.8164 10.8162 13.1005 7.99976 13.1006C5.18341 13.1004 2.90036 10.8163 2.90015 8C2.90036 5.18366 5.18341 2.9006 7.99976 2.90039C8.80076 2.90042 9.55795 3.08501 10.2312 3.41309C10.4791 3.5336 10.7781 3.43026 10.8992 3.18262C11.0201 2.93448 10.9167 2.63473 10.6687 2.51367C9.86209 2.12069 8.95566 1.90042 7.99976 1.90039ZM14.3533 3.24609C14.158 3.0512 13.8414 3.05112 13.6462 3.24609L7.99976 8.89258L5.55347 6.44629C5.35825 6.25129 5.04164 6.25128 4.84644 6.44629C4.65134 6.64149 4.65141 6.95807 4.84644 7.15332L7.64624 9.95312C7.73996 10.0468 7.86722 10.0996 7.99976 10.0996C8.13232 10.0996 8.25951 10.0468 8.35327 9.95312L14.3533 3.95312C14.5483 3.75785 14.5485 3.44129 14.3533 3.24609Z" fill="#4A8C08"/>
</svg>
