<svg width="32" height="32" viewBox="0 0 32 32" fill="none" xmlns="http://www.w3.org/2000/svg">
<path d="M18.6846 3.42161C20.2861 2.11803 22.3605 1.83064 24.5625 2.53587C24.7786 2.60525 24.9306 2.81261 24.9414 3.03684L24.9365 3.1345C24.4504 6.67273 22.9067 8.70167 21.1279 9.76829C19.5245 10.7295 17.7652 10.8868 16.5 10.7195V14.0007H25C25.8284 14.0007 26.5 14.6723 26.5 15.5007V17.5007C26.4998 18.329 25.8283 19.0007 25 19.0007H24.418L22.79 27.948C22.5737 29.1364 21.539 30.0006 20.3311 30.0007H11.6689C10.461 30.0006 9.42626 29.1364 9.20996 27.948L7.58203 19.0007H7C6.17168 19.0007 5.50017 18.329 5.5 17.5007V15.5007C5.5 14.6723 6.17157 14.0007 7 14.0007H15.5V10.7195C14.2348 10.8868 12.4755 10.7295 10.8721 9.76829C9.0933 8.70167 7.54956 6.67273 7.06348 3.1345L7.05859 3.03684C7.06941 2.81261 7.22142 2.60525 7.4375 2.53587C9.63947 1.83064 11.7139 2.11803 13.3154 3.42161C14.5809 4.45172 15.5123 6.0857 16 8.27024C16.4877 6.0857 17.4191 4.45172 18.6846 3.42161ZM8.59961 19.0007L10.1934 27.7693C10.3232 28.4822 10.9443 29.0006 11.6689 29.0007H20.3311C21.0557 29.0006 21.6768 28.4822 21.8066 27.7693L23.4004 19.0007H8.59961ZM7 15.0007C6.72386 15.0007 6.5 15.2246 6.5 15.5007V17.5007C6.50017 17.7767 6.72396 18.0007 7 18.0007H7.98926C7.99612 18.0006 8.00294 18.0006 8.00977 18.0007H23.9814C23.9876 18.0005 23.9938 18.0007 24 18.0007H25C25.276 18.0007 25.4998 17.7767 25.5 17.5007V15.5007C25.5 15.2246 25.2761 15.0007 25 15.0007H7ZM12.6797 4.24583C11.4457 3.24154 9.86358 2.93835 8.10547 3.38352C8.62017 6.35897 9.95786 8.00297 11.4072 8.87181C12.593 9.58247 13.8787 9.78667 14.9033 9.74876L10.1836 5.88743C9.96993 5.71262 9.93859 5.39802 10.1133 5.18431C10.2881 4.97058 10.6027 4.93913 10.8164 5.11399L15.0459 8.57395C14.595 6.55152 13.7518 5.11852 12.6797 4.24583ZM23.8945 3.38352C22.1364 2.93835 20.5543 3.24154 19.3203 4.24583C18.2301 5.13325 17.3746 6.59962 16.9297 8.67649L19.7002 6.60032C19.9211 6.43491 20.2348 6.4801 20.4004 6.70091C20.5656 6.92179 20.5205 7.23555 20.2998 7.4011L17.1621 9.75267C18.1757 9.77949 19.4321 9.56741 20.5928 8.87181C22.0421 8.00297 23.3798 6.35897 23.8945 3.38352Z" fill="#1A1A1A"/>
</svg>
