<svg width="20" height="20" viewBox="0 0 20 20" fill="none" xmlns="http://www.w3.org/2000/svg">
<path d="M10 0.5C7.8813 0.5 5.84762 1.32627 4.34668 2.7998C2.84549 4.2737 2.0001 6.27485 2 8.36328L2.00586 8.65039C2.12472 11.6048 4.05568 14.2751 5.89062 16.1768C6.84841 17.1693 7.80455 17.9774 8.52051 18.5371C8.87888 18.8173 9.17803 19.0362 9.38867 19.1855C9.49394 19.2602 9.57729 19.3174 9.63477 19.3564C9.66345 19.3759 9.68577 19.3911 9.70117 19.4014C9.70888 19.4065 9.71455 19.4113 9.71875 19.4141C9.72074 19.4154 9.72246 19.4162 9.72363 19.417L9.72559 19.418L10 19L9.72656 19.418C9.89284 19.5267 10.1072 19.5267 10.2734 19.418L10 19L10.2744 19.418L10.2764 19.417C10.2775 19.4162 10.2793 19.4154 10.2812 19.4141C10.2855 19.4113 10.2911 19.4065 10.2988 19.4014C10.3142 19.3911 10.3366 19.3759 10.3652 19.3564C10.4227 19.3174 10.5061 19.2602 10.6113 19.1855C10.822 19.0362 11.1211 18.8173 11.4795 18.5371C12.1954 17.9774 13.1516 17.1693 14.1094 16.1768C16.0035 14.2137 18 11.4314 18 8.36328C17.9999 6.27485 17.1545 4.2737 15.6533 2.7998C14.1524 1.32627 12.1187 0.5 10 0.5ZM10 1.5C11.8594 1.5 13.641 2.22545 14.9531 3.51367C16.2647 4.80149 16.9999 6.54611 17 8.36328C17 11.0224 15.2464 13.5591 13.3906 15.4824C12.4735 16.4329 11.5545 17.2104 10.8643 17.75C10.5196 18.0195 10.2327 18.2287 10.0332 18.3701C10.022 18.378 10.0106 18.3851 10 18.3926C9.98939 18.3851 9.97796 18.378 9.9668 18.3701C9.7673 18.2287 9.48043 18.0195 9.13574 17.75C8.4455 17.2104 7.52651 16.4329 6.60938 15.4824C4.81151 13.6191 3.10941 11.1805 3.00488 8.6123L3 8.36328C3.0001 6.54611 3.73527 4.80149 5.04688 3.51367C6.35895 2.22545 8.14055 1.5 10 1.5ZM10 5.40918C8.35198 5.40918 7.00024 6.72313 7 8.36328C7.00005 10.0036 8.35186 11.3184 10 11.3184C11.6481 11.3184 12.9999 10.0036 13 8.36328C12.9998 6.72313 11.648 5.40918 10 5.40918ZM10 6.40918C11.1131 6.40918 11.9998 7.29262 12 8.36328C11.9999 9.4341 11.1132 10.3184 10 10.3184C8.88677 10.3184 8.00005 9.4341 8 8.36328C8.00025 7.29262 8.8869 6.40918 10 6.40918Z" fill="currentColor"/>
</svg>
