<svg width="20" height="20" viewBox="0 0 20 20" fill="none" xmlns="http://www.w3.org/2000/svg">
<path d="M10 1C6.57726 1 4.12178 1.16192 2.63379 1.30273C1.38851 1.42063 0.5 2.4744 0.5 3.69434V13.3418C0.500163 14.5416 1.36298 15.5864 2.59277 15.7119C3.5548 15.8101 4.9314 15.912 6.72949 15.9639C7.19502 16.6522 7.65565 17.2397 8.1084 17.8086C8.61014 18.439 9.09751 19.0476 9.58398 19.7773C9.67672 19.9164 9.83282 20 10 20C10.1672 20 10.3233 19.9164 10.416 19.7773C10.9025 19.0476 11.3899 18.439 11.8916 17.8086C12.3442 17.2399 12.8041 16.652 13.2695 15.9639C15.0681 15.912 16.445 15.8101 17.4072 15.7119C18.637 15.5864 19.4998 14.5416 19.5 13.3418V3.69434C19.5 2.4744 18.6115 1.42063 17.3662 1.30273C15.8782 1.16192 13.4227 1 10 1ZM10 2C13.3908 2 15.8146 2.15999 17.2715 2.29785C17.9728 2.36422 18.5 2.95894 18.5 3.69434V13.3418C18.4998 14.0654 17.9894 14.647 17.3057 14.7168C16.3235 14.817 14.8869 14.9263 12.9873 14.9746C12.8643 14.9777 12.7484 15.0257 12.6602 15.1074L12.582 15.2002C12.0961 15.9417 11.6087 16.5569 11.1084 17.1855C10.7449 17.6422 10.3737 18.107 10 18.624C9.62633 18.107 9.25508 17.6422 8.8916 17.1855C8.39129 16.5569 7.90391 15.9417 7.41797 15.2002C7.35056 15.0974 7.24874 15.0241 7.13281 14.9922L7.0127 14.9746L5.6748 14.9277C4.42326 14.8721 3.43095 14.7919 2.69434 14.7168C2.0106 14.647 1.50016 14.0654 1.5 13.3418V3.69434C1.5 2.95894 2.02718 2.36422 2.72852 2.29785C4.18538 2.15999 6.60922 2 10 2ZM9.63965 11.5723C9.48381 11.5723 9.33989 11.6059 9.20801 11.6738C9.08005 11.7418 8.97834 11.8361 8.90234 11.9561C8.83035 12.076 8.79395 12.216 8.79395 12.376C8.79395 12.616 8.87604 12.81 9.04004 12.958C9.20795 13.1059 9.40781 13.1796 9.63965 13.1797C9.79565 13.1797 9.93841 13.1461 10.0664 13.0781C10.1943 13.0101 10.2961 12.9158 10.3721 12.7959C10.448 12.6759 10.4863 12.5359 10.4863 12.376C10.4863 12.136 10.4042 11.9419 10.2402 11.7939C10.0762 11.6459 9.87565 11.5723 9.63965 11.5723ZM9.64648 4.41992C9.33448 4.41992 9.04153 4.44977 8.76953 4.50977C8.4977 4.56576 8.25397 4.64419 8.03809 4.74414C7.82209 4.84414 7.64205 4.95608 7.49805 5.08008L7.82227 6.00391C8.03416 5.84003 8.27603 5.71022 8.54785 5.61426C8.8198 5.51827 9.12589 5.46974 9.46582 5.46973C9.96174 5.46973 10.348 5.56774 10.624 5.76367C10.9 5.95967 11.0381 6.2582 11.0381 6.6582C11.038 6.89413 10.9662 7.11442 10.8223 7.31836C10.6782 7.51834 10.3881 7.75628 9.95215 8.03223C9.62015 8.24023 9.37015 8.44825 9.20215 8.65625C9.03827 8.86013 8.94398 9.10578 8.91992 9.39355C8.89593 9.68152 8.93421 10.0539 9.03418 10.5098H10.1084C10.0444 10.1298 10.0201 9.82376 10.0361 9.5918C10.0562 9.35991 10.1299 9.16385 10.2578 9.00391C10.3858 8.84394 10.5818 8.67783 10.8457 8.50586C11.2136 8.26592 11.502 8.03822 11.71 7.82227C11.918 7.60227 12.0644 7.38397 12.1484 7.16797C12.2324 6.94802 12.2744 6.71748 12.2744 6.47754C12.2743 6.04974 12.1596 5.68191 11.9316 5.37402C11.7037 5.06612 11.392 4.82999 10.9961 4.66602C10.6042 4.50207 10.1543 4.41997 9.64648 4.41992Z" fill="#1A1A1A"/>
</svg>
