<svg width="32" height="32" viewBox="0 0 32 32" fill="none" xmlns="http://www.w3.org/2000/svg">
<path d="M21.9414 2.01612C22.4461 2.04981 22.8686 2.13396 23.166 2.21045C23.314 2.24854 23.4325 2.28434 23.5156 2.31201C23.557 2.32581 23.5908 2.33855 23.6143 2.34717C23.6258 2.35141 23.6367 2.35428 23.6436 2.35694L23.6553 2.3628L23.6543 2.36377H23.6562C23.6578 2.36438 23.6596 2.36511 23.6611 2.36573C23.6843 2.37533 23.7062 2.388 23.7275 2.40088C23.7344 2.40498 23.7424 2.40818 23.749 2.4126C23.766 2.42404 23.7814 2.43824 23.7969 2.45166C23.8062 2.45973 23.8166 2.46739 23.8252 2.47608C23.8596 2.51083 23.8879 2.55198 23.9111 2.59619C23.9184 2.6099 23.9267 2.62388 23.9326 2.63819C23.9359 2.64621 23.9386 2.65534 23.9414 2.66358C23.9494 2.6866 23.9563 2.71083 23.9609 2.73487C23.9614 2.73654 23.9625 2.73912 23.9629 2.74073H23.9619L23.9629 2.7417L23.9639 2.74365V2.74658C23.9643 2.74902 23.9653 2.75305 23.9658 2.75635C23.9671 2.76421 23.9689 2.77603 23.9707 2.78858C23.9745 2.81523 23.9794 2.85378 23.9844 2.8999C23.9944 2.99364 24.0055 3.12777 24.0098 3.29151C24.0183 3.61969 24.0009 4.0788 23.8994 4.60889C23.6952 5.67471 23.1485 7.03484 21.7979 8.20557C20.3957 9.42044 18.9606 9.4284 17.8945 9.12061C17.5527 9.02186 17.2508 8.88786 16.998 8.75733C16.9892 8.75954 16.9795 8.75952 16.9707 8.76123V12.853C18.6508 13.0117 19.713 13.9558 20.3467 14.8814C20.6906 15.3838 20.9124 15.8834 21.0479 16.2554C21.1158 16.442 21.1628 16.5995 21.1934 16.7114C21.2085 16.7671 21.22 16.8122 21.2275 16.8442C21.2312 16.8599 21.2343 16.873 21.2363 16.8823C21.2372 16.8867 21.2377 16.8912 21.2383 16.894C21.2386 16.8953 21.2391 16.8971 21.2393 16.898V16.8999H21.2402V16.9009C21.247 16.9343 21.25 16.9676 21.25 17.0005H29.25C29.5261 17.0005 29.75 17.2243 29.75 17.5005V29.0005C29.7497 29.2764 29.526 29.5005 29.25 29.5005C28.974 29.5005 28.7503 29.2764 28.75 29.0005V22.0005H3.25V29.0005C3.24974 29.2764 3.02598 29.5005 2.75 29.5005C2.47402 29.5005 2.25026 29.2764 2.25 29.0005V17.5005C2.25 17.2243 2.47386 17.0005 2.75 17.0005H11.751C11.751 16.9702 11.7531 16.9395 11.7588 16.9087L12.25 17.0005C11.7961 16.9153 11.7614 16.9084 11.7588 16.9077V16.9058C11.759 16.9048 11.7595 16.9032 11.7598 16.9019C11.7603 16.899 11.7608 16.8946 11.7617 16.8901C11.7636 16.8808 11.767 16.8678 11.7705 16.8521C11.7776 16.8199 11.7874 16.7742 11.8018 16.7183C11.8305 16.6062 11.8755 16.449 11.9404 16.2622C12.07 15.8899 12.2837 15.3897 12.6201 14.8862C13.2408 13.9576 14.2907 13.0116 15.9707 12.853V8.35987C15.8462 8.47024 15.7097 8.58201 15.5596 8.68701C14.6501 9.32272 13.2888 9.77827 11.5693 9.08155C9.91284 8.41002 8.95662 7.29963 8.41895 6.35694C8.15161 5.88799 7.98671 5.4594 7.88867 5.146C7.83977 4.98952 7.80691 4.85913 7.78613 4.76709C7.77589 4.72164 7.76772 4.68328 7.7627 4.65674C7.76038 4.64446 7.75819 4.63327 7.75684 4.62549C7.75628 4.62224 7.75616 4.61822 7.75586 4.61573L7.75488 4.6128V4.60303C7.75146 4.57883 7.74987 4.55413 7.75 4.52979C7.75004 4.52094 7.75047 4.51122 7.75098 4.50244C7.75193 4.48692 7.75444 4.47095 7.75684 4.45557C7.76448 4.40635 7.77858 4.35885 7.7998 4.31494C7.80518 4.30387 7.81212 4.29246 7.81836 4.28174C7.82863 4.26408 7.83924 4.24624 7.85156 4.22998C7.85642 4.22363 7.86294 4.21757 7.86816 4.21143C7.88415 4.19243 7.90122 4.17323 7.91992 4.15674C7.92101 4.15581 7.9227 4.15473 7.92383 4.15381L7.9248 4.15283H7.92383L7.93359 4.14307C7.93929 4.13836 7.94857 4.13215 7.95801 4.12451C7.9774 4.10879 8.0054 4.08547 8.04004 4.05908C8.10972 4.00607 8.21026 3.93387 8.33789 3.8501C8.59461 3.68167 8.96707 3.46588 9.43359 3.271C10.3675 2.88106 11.6971 2.56825 13.2471 2.90088C14.8916 3.25401 15.7691 4.46025 16.2236 5.50342C16.2569 5.57991 16.2873 5.65679 16.3164 5.73194C16.5061 4.72676 17.0126 3.61825 18.2129 2.89795C19.5723 2.08246 20.9316 1.94881 21.9414 2.01612ZM3.25 21.0005H28.75V18.0005H3.25V21.0005ZM16.4707 13.8276C14.9148 13.8276 13.9995 14.6231 13.4521 15.4419C13.1752 15.8564 12.9947 16.2752 12.8848 16.5913C12.8303 16.748 12.7932 16.8778 12.7705 16.9663C12.7674 16.9784 12.7652 16.9899 12.7627 17.0005H20.2354C20.2332 16.9922 20.231 16.9834 20.2285 16.9741C20.2043 16.8854 20.1657 16.7545 20.1084 16.5972C19.9932 16.2807 19.8057 15.8621 19.5215 15.4468C18.9589 14.6249 18.0278 13.8278 16.4707 13.8276ZM13.0381 3.8794C11.738 3.60032 10.6194 3.85888 9.81934 4.19287C9.41977 4.35975 9.10188 4.54392 8.88672 4.68506C8.86067 4.70217 8.83643 4.72014 8.81348 4.73584C8.82307 4.76963 8.83067 4.80845 8.84277 4.84717C8.92354 5.10538 9.06247 5.46608 9.28809 5.86182C9.73811 6.65074 10.5365 7.58396 11.9443 8.15479C13.2896 8.69995 14.2965 8.34889 14.9863 7.8667C15.0302 7.83601 15.071 7.80172 15.1123 7.77002L11.7676 6.28467L11.6797 6.23389C11.4907 6.09879 11.4158 5.84514 11.5137 5.62451C11.6118 5.40396 11.8502 5.28963 12.0771 5.33936L12.1738 5.37061L15.6348 6.90772C15.5672 6.61725 15.464 6.26423 15.3066 5.90283C14.9202 5.01606 14.2432 4.1385 13.0381 3.8794ZM21.875 3.01319C21.01 2.95552 19.8678 3.07233 18.7275 3.75635C17.6706 4.39083 17.3137 5.44068 17.2344 6.40479C17.2226 6.54832 17.2175 6.68931 17.2168 6.82373L19.7227 5.39307C19.9623 5.25652 20.2684 5.34002 20.4053 5.57959C20.5416 5.81912 20.458 6.12524 20.2188 6.26221L17.4277 7.85596C17.6376 7.96638 17.8895 8.07809 18.1719 8.15967C18.9805 8.39313 20.0466 8.40025 21.1436 7.44971C22.2914 6.45468 22.746 5.31335 22.917 4.42139C23.0026 3.974 23.0168 3.58728 23.0098 3.3169C23.0087 3.27651 23.0038 3.23758 23.002 3.20264C22.9751 3.19517 22.9463 3.18602 22.916 3.17823C22.6668 3.11417 22.307 3.04203 21.875 3.01319Z" fill="#1A1A1A"/>
</svg>
