<svg width="32" height="32" viewBox="0 0 32 32" fill="none" xmlns="http://www.w3.org/2000/svg">
<g clip-path="url(#clip0_10_3353)">
<path d="M16.0421 6.00195C16.0568 6.00317 16.0714 6.00526 16.0861 6.00781C16.0989 6.01006 16.1116 6.0124 16.1242 6.01562C16.1306 6.01729 16.1372 6.01857 16.1437 6.02051L16.1642 6.02832C16.1823 6.03461 16.1996 6.04246 16.2169 6.05078L16.2374 6.05957L16.2384 6.06055L16.2404 6.06152C16.2416 6.06218 16.2435 6.06346 16.2453 6.06445C16.2493 6.06667 16.2551 6.06946 16.2619 6.07324C16.2763 6.08127 16.2974 6.09342 16.3234 6.1084C16.3754 6.1384 16.4498 6.18229 16.5431 6.24023C16.7304 6.3565 16.9949 6.52996 17.3107 6.76074C17.9417 7.22188 18.7818 7.91624 19.6222 8.85352C21.3043 10.7297 23.0001 13.5937 23.0001 17.5C23.0001 21.6499 21.3095 24.5164 19.6164 26.3398C18.7721 27.2491 17.928 27.899 17.2931 28.3223C16.9755 28.534 16.7095 28.6902 16.5206 28.7939C16.5139 28.7976 16.5067 28.8011 16.5001 28.8047V31C16.5001 31.2761 16.2763 31.5 16.0001 31.5C15.7241 31.4999 15.5001 31.2761 15.5001 31V28.8047C15.4935 28.8011 15.4865 28.7977 15.4796 28.7939C15.2907 28.6901 15.0247 28.534 14.7072 28.3223C14.0723 27.899 13.2282 27.249 12.3839 26.3398C10.6908 24.5164 9.00014 21.6498 9.00014 17.5C9.00014 13.5938 10.696 10.7297 12.3781 8.85352C13.2184 7.91625 14.0586 7.22189 14.6896 6.76074C15.0054 6.52997 15.2699 6.35652 15.4572 6.24023C15.5505 6.1823 15.6249 6.13841 15.6769 6.1084C15.7028 6.09343 15.724 6.08128 15.7384 6.07324C15.7452 6.06946 15.751 6.06667 15.755 6.06445C15.7568 6.06348 15.7587 6.06221 15.7599 6.06152L15.7619 6.06055L15.7628 6.05957L15.7872 6.04883C15.802 6.04189 15.8169 6.03575 15.8322 6.03027L15.8566 6.02051C15.8633 6.0185 15.8704 6.01734 15.8771 6.01562C15.8894 6.0125 15.9017 6.01001 15.9142 6.00781C15.9285 6.00531 15.9428 6.00318 15.9572 6.00195C15.963 6.00144 15.9689 6.00031 15.9747 6H16.0255C16.0311 6.00029 16.0366 6.00148 16.0421 6.00195ZM16.0988 0.759766C16.1254 0.76515 16.1519 0.7723 16.1779 0.782227C16.1979 0.78988 16.2185 0.797435 16.2374 0.807617L31.2355 8.80664C31.4789 8.93663 31.5713 9.23984 31.4415 9.4834C31.3116 9.72686 31.0084 9.81917 30.7648 9.68945L30.0001 9.28125V28.248C30 28.524 29.7761 28.748 29.5001 28.748H21.5001C21.2242 28.7479 21.0003 28.524 21.0001 28.248C21.0002 27.9721 21.2242 27.7482 21.5001 27.748H29.0001V9.24805C29.0002 9.08662 29.0777 8.94391 29.1964 8.85254L16.0001 1.81445L2.80287 8.85254C2.92192 8.94389 3.00007 9.08641 3.00014 9.24805V27.748H10.5001C10.7761 27.7481 11 27.972 11.0001 28.248C11 28.524 10.7761 28.748 10.5001 28.748H2.50014C2.22417 28.7479 2.00026 28.524 2.00014 28.248V9.28125L1.23549 9.68945C0.991943 9.81923 0.688721 9.72682 0.558732 9.4834C0.429041 9.23983 0.521321 8.93657 0.764787 8.80664L15.7619 0.807617C15.7809 0.797369 15.8013 0.789924 15.8214 0.782227C15.8477 0.77212 15.8746 0.765211 15.9015 0.759766C15.9171 0.756609 15.9326 0.751687 15.9484 0.75H16.0519C16.0677 0.751674 16.0832 0.756595 16.0988 0.759766ZM15.9845 7.08984C15.8164 7.19425 15.5728 7.35302 15.2794 7.56738C14.6918 7.99683 13.9066 8.64653 13.1222 9.52148C11.5544 11.2703 10.0001 13.9065 10.0001 17.5C10.0001 21.35 11.5596 23.9836 13.1163 25.6602C13.8969 26.5008 14.678 27.101 15.2619 27.4902C15.3449 27.5456 15.4258 27.5939 15.5001 27.6406V21.207L11.6466 17.3535C11.4515 17.1583 11.4515 16.8417 11.6466 16.6465C11.8419 16.4513 12.1584 16.4513 12.3537 16.6465L15.5001 19.793V9.5C15.5001 9.22392 15.7241 9.00009 16.0001 9C16.2763 9 16.5001 9.22386 16.5001 9.5V19.793L19.6466 16.6465L19.7247 16.582C19.9188 16.4539 20.1828 16.4757 20.3537 16.6465C20.5245 16.8173 20.5463 17.0813 20.4181 17.2754L20.3537 17.3535L16.5001 21.207V27.6416C16.5746 27.5947 16.6552 27.5457 16.7384 27.4902C17.3222 27.101 18.1033 26.5008 18.8839 25.6602C20.4407 23.9836 22.0001 21.35 22.0001 17.5C22.0001 13.9065 20.4459 11.2703 18.8781 9.52148C18.0936 8.64652 17.3085 7.99681 16.7208 7.56738C16.4275 7.353 16.1839 7.19424 16.0158 7.08984C16.0105 7.08656 16.0053 7.08326 16.0001 7.08008C15.995 7.08323 15.9898 7.08658 15.9845 7.08984Z" fill="#1A1A1A"/>
</g>
<defs>
<clipPath id="clip0_10_3353">
<rect width="32" height="32" fill="white"/>
</clipPath>
</defs>
</svg>
