<svg width="660" height="406" viewBox="0 0 660 406" fill="none" xmlns="http://www.w3.org/2000/svg">
<path opacity="0.05" d="M494.244 66.5767C493.602 65.1943 492.455 63.306 491.472 61.9409C489.798 59.6511 486.449 56.0829 485.315 55.3505C483.656 54.3148 481.359 53.8447 478.708 53.9876C476.525 54.1283 472.402 55.0359 471.377 55.6312C470.93 55.8989 471.053 55.9893 472.6 56.5124C477.187 58.0712 480.265 60.6265 484.024 65.9104C486.286 69.1037 486.336 69.6578 484.094 66.6318C481.468 63.092 480.003 61.5847 477.719 60.1491C474.143 57.8507 470.62 56.6729 468.847 57.1478C467.581 57.4871 467.54 57.7941 468.476 59.8132C470.03 63.2208 471.291 64.6101 476.244 68.3651C477.428 69.2817 478.941 70.6031 479.601 71.3146C480.82 72.641 480.82 72.641 481.586 75.5936C482.001 77.2341 482.433 79.2154 482.545 79.9997C482.721 81.2106 482.636 80.9866 481.93 78.5359C480.459 73.2309 479.495 71.9349 474.285 68.0512C472.535 66.7684 470.509 65.1897 469.776 64.572C468.168 63.1769 466.004 60.6236 465.794 59.841C465.708 59.5187 465.542 59.2672 465.45 59.2918C465.127 59.3782 461.517 62.2946 459.872 63.7963C458.728 64.8676 458.343 65.3655 458.345 65.8337C458.357 66.5214 459.238 68.7032 461.083 72.551C462.12 74.7649 462.382 75.5582 463.194 79.1402C464.705 85.7914 464.766 87.0332 463.32 81.8203C462.66 79.3572 461.587 76.0918 460.978 74.5529C459.994 72.078 458.177 68.5187 457.242 67.2396C456.928 66.8055 456.723 66.9593 450.323 72.0788L443.717 77.3521L445.229 82.9917C446.604 88.1249 446.737 88.8048 446.778 90.8909C446.793 92.1451 446.741 93.146 446.682 93.1123C446.601 93.0848 446.409 92.0013 446.214 90.7212C445.618 86.5634 443.208 79.6845 442.128 79.061C441.894 78.9262 425.171 93.399 425.046 93.852C424.991 94.0148 424.995 94.5813 425.067 95.1292C425.279 97.0217 424.996 100.848 424.537 102.451C424.002 104.321 423.108 106.51 422.206 108.207L421.545 109.42L422.203 107.641C423.22 104.901 424.055 101.939 424.152 100.827C424.2 100.271 424.037 98.8346 423.786 97.6191C423.413 95.7698 423.304 95.4537 423.052 95.6198C422.23 96.2348 408.455 107.253 407.931 107.69C407.618 107.996 407.423 108.097 407.501 107.928C407.609 107.776 412.54 102.976 418.468 97.2924C424.412 91.5793 429.509 86.661 429.822 86.3551L430.378 85.7619L427.978 84.9988C420.364 82.5487 415.75 81.4412 413.718 81.591C409.722 81.8721 409.745 81.866 412.262 81.3149C413.564 81.0156 415.299 80.7725 416.138 80.7699C418.993 80.745 424.207 81.7903 429.855 83.5336C431.36 83.9938 432.736 84.3406 432.874 84.3036C433.197 84.2173 447.564 70.9922 447.521 70.8311C447.478 70.6699 442.666 68.086 440.038 66.8411C437.257 65.489 432.369 63.5422 429.678 62.7088C428.65 62.3677 424.263 61.372 419.946 60.4562C415.63 59.5403 412.172 58.7892 412.235 58.7476C412.804 58.5704 424.373 60.0349 427.123 60.6303C433.024 61.9357 439.986 64.4372 446.507 67.5994L449.736 69.1521L453.104 66.2513C454.973 64.6649 457.247 62.7479 458.17 61.9578L459.847 60.5711L458.969 59.5974C457.59 58.0425 453.861 54.8969 450.729 52.6026C442.769 46.742 435.422 42.6168 429.72 40.7646C427.528 40.0442 429.128 40.3064 432.067 41.1471C440.181 43.4385 444.85 46.0364 454.82 53.8749C460.069 57.995 461.197 58.7044 462.14 58.4515C462.739 58.2911 466.252 55.4746 466.789 54.7141C466.953 54.4975 466.484 53.7597 465.131 52.0251C464.115 50.7184 461.455 47.237 459.267 44.3198C457.05 41.3859 454.834 38.5501 454.339 37.992C452.407 35.8452 446.045 30.1484 443.464 28.2495C443.282 28.1254 443.199 27.9996 443.268 27.9811C443.476 27.9256 449.099 31.9699 451.888 34.1833C456.586 37.9079 459.413 40.9993 465.356 48.9055C467.118 51.246 468.197 52.5111 468.263 52.2961C468.446 51.5069 468.415 47.617 468.179 45.2625C467.891 42.2556 466.931 39.1328 465.428 36.3776C464.891 35.3866 464.484 34.509 464.517 34.4506C464.635 34.2463 467.462 38.7192 468.235 40.3133C469.121 42.1482 469.898 46.0602 469.966 49.0765C470.018 51.8504 470.081 51.8089 471.166 47.9407C472.551 42.9807 473.146 38.4791 472.829 35.4554C472.635 33.5337 471.377 30.2194 470.379 28.9817C469.452 27.8239 466.999 26.3101 463.551 24.7669C459.742 23.0736 449.226 18.9093 447.571 18.44C444.057 17.4817 440.398 17.4507 436.176 18.36C428.648 20.0069 420.966 24.4832 412.263 32.2428C409.057 35.1003 403.453 40.7961 403.539 41.1183C403.564 41.2104 403.877 41.2745 404.264 41.2449C406.275 41.1995 411.49 41.6031 413.52 41.9967C416.066 42.4742 417.922 43.2349 423.199 45.892C425.082 46.843 428.31 48.3957 430.384 49.3204C436.471 52.0563 439.368 54.2158 439.948 56.3796C440.288 57.6456 439.998 58.3153 439.008 58.5805C436.799 59.1726 431.968 57.2595 421.724 51.7148C414.385 47.7108 408.495 46.3532 402.59 47.2445C396.144 48.2316 392.437 52.6294 390.172 61.9455C389.746 63.7621 388.928 69.4582 389.046 69.8956C389.076 70.0107 389.912 69.5399 390.919 68.8756C393.365 67.2332 396.354 65.8649 398.09 65.6218C400.483 65.2521 404.178 65.6928 413.689 67.4867C419.018 68.5011 424.649 70.9152 425.824 72.7222C426.328 73.4998 426.33 73.5981 425.951 74.1189C425.737 74.4231 425.418 74.706 425.256 74.7492C424.29 75.0082 420.65 74.7746 416.211 74.1383C410.341 73.3179 409.259 73.2378 406.771 73.4358C402.447 73.7802 398.426 74.9808 395.078 76.939C392.965 78.1711 391.989 79.2223 391.512 80.7564C390.568 83.7725 391.122 87.4975 393.69 95.1484C395.759 101.305 395.986 102.428 396.392 109.005C396.728 114.22 397.168 116.322 398.044 116.828C398.388 117.007 400.972 117.351 403.797 117.581C409.191 118.01 410.804 118.318 417.446 120.091C422.098 121.337 425.459 121.818 427.297 121.498C428.335 121.319 428.863 121.078 429.907 120.28C430.649 119.736 431.378 119.048 431.575 118.773C432.043 118.031 432.639 115.009 433.197 110.369C433.764 105.579 434.274 103.246 435.04 101.684C435.649 100.46 436.462 99.9956 437.307 100.386C437.983 100.698 438.418 102.876 438.616 106.746C438.818 110.812 438.518 112.916 436.982 117.497C436.196 119.903 436.04 120.611 436.336 120.704C437.683 121.034 444.66 121.015 447.793 120.644C450.551 120.349 451.567 119.905 452.689 118.568C454.842 116.017 456.619 108.559 457.04 100.28C457.439 92.0065 457.647 90.6676 458.578 89.6288C460.156 87.8738 462.232 91.3882 463.362 97.7222C464.147 102.125 464.166 106.339 463.427 113.988L463.242 115.691L464.304 115.233C467.007 114.09 471.958 111.48 473.61 110.371C478.142 107.306 482.94 102.468 486.837 97.0325C489.373 93.5156 493.075 87.0715 494.216 84.1504C495.271 81.5487 496.155 77.3891 496.163 75.1171C496.174 73.4116 494.988 68.1538 494.244 66.5767Z" fill="#095C53"/>
<path opacity="0.05" d="M602.59 145.917C602.955 146.353 603.551 146.923 604.037 147.32C604.862 147.984 606.414 148.947 606.893 149.101C607.592 149.314 608.465 149.262 609.407 148.954C610.18 148.693 611.579 147.967 611.891 147.654C612.026 147.514 611.973 147.493 611.365 147.454C609.561 147.335 608.204 146.711 606.339 145.17C605.215 144.237 605.143 144.042 606.244 144.916C607.532 145.939 608.206 146.341 609.168 146.638C610.679 147.121 612.063 147.205 612.656 146.863C613.08 146.618 613.065 146.503 612.533 145.866C611.643 144.788 611.055 144.408 608.906 143.533C608.391 143.317 607.718 142.987 607.411 142.794C606.844 142.434 606.844 142.434 606.282 141.444C605.974 140.892 605.627 140.22 605.511 139.948C605.331 139.528 605.383 139.601 605.874 140.416C606.917 142.186 607.389 142.56 609.643 143.457C610.398 143.751 611.281 144.124 611.604 144.276C612.319 144.624 613.346 145.335 613.497 145.597C613.559 145.705 613.643 145.779 613.674 145.761C613.782 145.699 614.802 144.299 615.25 143.599C615.558 143.102 615.649 142.886 615.603 142.717C615.533 142.47 615.004 141.769 613.967 140.56C613.38 139.862 613.209 139.601 612.57 138.388C611.383 136.137 611.241 135.695 612.266 137.434C612.742 138.259 613.444 139.332 613.812 139.828C614.406 140.625 615.405 141.733 615.865 142.104C616.02 142.23 616.079 142.154 617.892 139.691L619.764 137.152L618.674 135.265C617.683 133.547 617.569 133.315 617.353 132.567C617.226 132.116 617.148 131.75 617.173 131.757C617.205 131.759 617.378 132.131 617.572 132.573C618.189 134.015 619.722 136.262 620.172 136.382C620.269 136.408 624.899 129.576 624.901 129.4C624.905 129.336 624.849 129.132 624.77 128.942C624.511 128.28 624.243 126.874 624.254 126.251C624.266 125.525 624.377 124.65 624.538 123.951L624.659 123.45L624.594 124.155C624.492 125.241 624.477 126.389 624.549 126.799C624.586 127.004 624.783 127.507 624.991 127.92C625.304 128.551 625.374 128.655 625.449 128.57C625.686 128.269 629.587 122.967 629.734 122.759C629.817 122.618 629.878 122.563 629.866 122.631C629.842 122.696 628.528 124.903 626.94 127.525C625.349 130.158 623.987 132.424 623.903 132.564L623.76 132.832L624.699 132.875C627.68 133.023 629.451 132.976 630.169 132.726C631.582 132.239 631.574 132.243 630.72 132.685C630.28 132.918 629.678 133.174 629.376 133.256C628.349 133.54 626.368 133.667 624.164 133.584C623.577 133.564 623.047 133.572 623.001 133.598C622.893 133.661 618.991 139.816 619.022 139.87C619.053 139.924 621.038 140.39 622.106 140.585C623.238 140.804 625.189 141.034 626.239 141.074C626.643 141.098 628.321 141.033 629.965 140.946C631.609 140.86 632.928 140.796 632.91 140.817C632.722 140.936 628.41 141.526 627.361 141.577C625.108 141.676 622.357 141.447 619.7 140.937L618.386 140.689L617.452 142.06C616.932 142.813 616.297 143.723 616.041 144.097L615.57 144.759L615.981 145.025C616.628 145.453 618.276 146.226 619.627 146.751C623.062 148.095 626.109 148.872 628.344 148.989C629.203 149.037 628.601 149.097 627.461 149.078C624.314 149.036 622.38 148.55 618.029 146.687C615.739 145.709 615.264 145.562 614.948 145.745C614.748 145.86 613.753 147.215 613.633 147.541C613.595 147.635 613.836 147.856 614.491 148.35C614.983 148.723 616.279 149.721 617.349 150.561C618.432 151.405 619.504 152.213 619.737 152.367C620.64 152.954 623.484 154.393 624.598 154.828C624.675 154.855 624.718 154.893 624.694 154.906C624.625 154.946 622.207 154.031 620.988 153.503C618.935 152.614 617.617 151.773 614.711 149.497C613.85 148.823 613.339 148.471 613.336 148.555C613.346 148.857 613.733 150.257 614.045 151.083C614.439 152.139 615.087 153.172 615.895 154.02C616.184 154.325 616.416 154.602 616.41 154.626C616.387 154.711 614.936 153.372 614.503 152.872C614.006 152.296 613.349 150.961 613.033 149.88C612.746 148.885 612.727 148.906 612.71 150.406C612.689 152.327 612.91 154.008 613.316 155.067C613.572 155.741 614.345 156.814 614.825 157.164C615.271 157.492 616.301 157.801 617.693 158.024C619.23 158.266 623.423 158.752 624.065 158.761C625.424 158.767 626.747 158.425 628.181 157.689C630.735 156.368 633.072 154.013 635.46 150.375C636.34 149.035 637.81 146.441 637.747 146.333C637.73 146.302 637.611 146.309 637.474 146.357C636.753 146.568 634.834 146.926 634.065 146.98C633.101 147.054 632.358 146.959 630.199 146.511C629.429 146.35 628.115 146.102 627.278 145.969C624.819 145.571 623.566 145.072 623.148 144.348C622.904 143.924 622.943 143.655 623.274 143.464C624.014 143.037 625.94 143.26 630.168 144.269C633.201 145.004 635.455 144.924 637.498 144.033C639.726 143.054 640.638 141.111 640.554 137.534C640.533 136.838 640.277 134.705 640.193 134.559C640.17 134.52 639.914 134.771 639.616 135.107C638.893 135.936 637.947 136.718 637.345 136.973C636.518 137.338 635.143 137.536 631.542 137.808C629.523 137.957 627.26 137.63 626.661 137.092C626.405 136.861 626.394 136.825 626.481 136.601C626.529 136.471 626.616 136.338 626.67 136.307C626.994 136.12 628.328 135.853 629.99 135.653C632.185 135.382 632.583 135.306 633.461 134.995C634.986 134.453 636.32 133.632 637.338 132.602C637.98 131.954 638.231 131.481 638.254 130.882C638.303 129.703 637.744 128.414 636.079 125.904C634.738 123.885 634.548 123.502 633.767 121.17C633.142 119.323 632.78 118.607 632.416 118.509C632.274 118.478 631.309 118.604 630.269 118.794C628.283 119.16 627.672 119.205 625.106 119.207C623.309 119.207 622.051 119.359 621.419 119.652C621.062 119.816 620.895 119.954 620.596 120.343C620.381 120.61 620.185 120.929 620.14 121.047C620.043 121.36 620.12 122.507 620.367 124.233C620.625 126.015 620.667 126.905 620.542 127.542C620.44 128.042 620.192 128.288 619.85 128.229C619.576 128.182 619.209 127.439 618.763 126.063C618.298 124.617 618.203 123.829 618.314 122.03C618.365 121.086 618.353 120.816 618.237 120.811C617.72 120.822 615.206 121.503 614.113 121.939C613.147 122.312 612.824 122.57 612.549 123.161C612.019 124.288 612.099 127.148 612.746 130.174C613.402 133.194 613.456 133.697 613.221 134.162C612.822 134.947 611.734 133.88 610.715 131.706C610.006 130.195 609.592 128.677 609.12 125.849L609.022 125.217L608.684 125.484C607.819 126.158 606.287 127.577 605.798 128.136C604.461 129.679 603.198 131.886 602.319 134.222C601.744 135.735 601.032 138.416 600.903 139.579C600.774 140.619 600.857 142.203 601.074 143.023C601.234 143.639 602.17 145.42 602.59 145.917Z" fill="#095C53"/>
<path opacity="0.05" d="M195.742 322.317C196.454 323.851 197.727 325.946 198.818 327.461C200.676 330.003 204.393 333.962 205.651 334.775C207.492 335.925 210.041 336.446 212.983 336.288C215.405 336.131 219.982 335.124 221.119 334.464C221.614 334.167 221.478 334.066 219.762 333.486C214.671 331.756 211.255 328.92 207.083 323.056C204.573 319.512 204.518 318.897 207.006 322.256C209.92 326.184 211.545 327.857 214.081 329.45C218.05 332 221.959 333.308 223.926 332.78C225.331 332.404 225.377 332.063 224.338 329.823C222.613 326.041 221.214 324.499 215.717 320.332C214.404 319.315 212.724 317.848 211.992 317.059C210.64 315.587 210.64 315.587 209.789 312.31C209.329 310.49 208.849 308.291 208.725 307.42C208.53 306.077 208.624 306.325 209.407 309.045C211.039 314.932 212.109 316.37 217.891 320.68C219.833 322.104 222.082 323.856 222.896 324.542C224.68 326.09 227.082 328.923 227.314 329.792C227.41 330.149 227.595 330.429 227.697 330.401C228.054 330.305 232.061 327.069 233.887 325.402C235.156 324.213 235.583 323.661 235.581 323.141C235.568 322.378 234.591 319.957 232.543 315.687C231.392 313.23 231.101 312.349 230.2 308.374C228.524 300.993 228.455 299.615 230.06 305.4C230.793 308.133 231.983 311.757 232.659 313.465C233.751 316.212 235.768 320.162 236.805 321.581C237.154 322.063 237.382 321.892 244.484 316.211L251.814 310.359L250.137 304.1C248.611 298.403 248.463 297.649 248.418 295.334C248.401 293.942 248.459 292.831 248.524 292.869C248.614 292.899 248.827 294.102 249.043 295.522C249.705 300.136 252.38 307.77 253.579 308.462C253.838 308.612 272.396 292.55 272.535 292.048C272.596 291.867 272.592 291.238 272.511 290.63C272.277 288.53 272.591 284.284 273.099 282.505C273.693 280.429 274.685 278.001 275.686 276.117L276.421 274.77L275.691 276.746C274.561 279.786 273.635 283.074 273.528 284.307C273.474 284.924 273.655 286.518 273.934 287.867C274.347 289.919 274.468 290.27 274.747 290.086C275.66 289.403 290.947 277.175 291.529 276.691C291.876 276.352 292.092 276.239 292.005 276.426C291.886 276.595 286.414 281.922 279.835 288.23C273.238 294.57 267.582 300.028 267.235 300.367L266.617 301.026L269.281 301.873C277.731 304.592 282.851 305.821 285.107 305.654C289.541 305.342 289.515 305.349 286.722 305.961C285.278 306.293 283.351 306.563 282.421 306.566C279.253 306.593 273.466 305.433 267.198 303.499C265.528 302.988 264.001 302.603 263.848 302.644C263.49 302.74 247.545 317.417 247.593 317.595C247.641 317.774 252.982 320.642 255.898 322.023C258.983 323.524 264.408 325.684 267.394 326.609C268.536 326.988 273.404 328.093 278.194 329.109C282.984 330.125 286.822 330.959 286.752 331.005C286.12 331.202 273.282 329.577 270.23 328.916C263.681 327.467 255.956 324.691 248.718 321.182L245.135 319.459L241.398 322.678C239.323 324.438 236.799 326.566 235.775 327.443L233.915 328.981L234.889 330.062C236.419 331.788 240.558 335.278 244.033 337.825C252.867 344.328 261.02 348.906 267.348 350.962C269.78 351.761 268.005 351.471 264.743 350.537C255.738 347.995 250.558 345.111 239.493 336.413C233.668 331.84 232.416 331.053 231.369 331.334C230.705 331.512 226.806 334.637 226.21 335.481C226.028 335.722 226.549 336.541 228.051 338.466C229.178 339.916 232.13 343.779 234.558 347.017C237.019 350.273 239.477 353.419 240.027 354.039C242.171 356.421 249.231 362.743 252.096 364.851C252.297 364.989 252.389 365.128 252.312 365.149C252.083 365.21 245.842 360.722 242.747 358.266C237.533 354.132 234.396 350.702 227.801 341.927C225.845 339.33 224.648 337.926 224.575 338.165C224.371 339.041 224.406 343.357 224.668 345.97C224.987 349.307 226.052 352.773 227.72 355.831C228.316 356.93 228.769 357.904 228.731 357.969C228.601 358.196 225.463 353.232 224.606 351.463C223.622 349.427 222.76 345.085 222.685 341.738C222.627 338.659 222.557 338.705 221.352 342.998C219.815 348.503 219.155 353.498 219.507 356.854C219.722 358.987 221.119 362.665 222.226 364.038C223.255 365.323 225.977 367.003 229.804 368.716C234.031 370.595 245.701 375.216 247.538 375.737C251.437 376.8 255.499 376.835 260.184 375.826C268.538 373.998 277.063 369.03 286.721 360.419C290.279 357.248 296.498 350.927 296.402 350.569C296.375 350.467 296.027 350.396 295.598 350.429C293.367 350.479 287.579 350.031 285.326 349.595C282.501 349.065 280.44 348.221 274.585 345.272C272.495 344.216 268.912 342.493 266.611 341.467C259.856 338.431 256.641 336.034 255.997 333.633C255.621 332.228 255.942 331.485 257.04 331.191C259.493 330.533 264.853 332.657 276.221 338.81C284.366 343.253 290.903 344.76 297.456 343.771C304.609 342.675 308.723 337.795 311.237 327.456C311.71 325.44 312.617 319.119 312.487 318.634C312.453 318.506 311.525 319.028 310.408 319.766C307.693 321.588 304.376 323.107 302.45 323.376C299.795 323.787 295.693 323.298 285.139 321.307C279.225 320.181 272.976 317.502 271.672 315.497C271.112 314.634 271.111 314.525 271.531 313.947C271.769 313.609 272.123 313.295 272.302 313.247C273.374 312.96 277.414 313.219 282.34 313.925C288.854 314.836 290.055 314.924 292.816 314.705C297.615 314.323 302.076 312.99 305.793 310.817C308.137 309.45 309.221 308.283 309.75 306.581C310.797 303.234 310.182 299.1 307.332 290.609C305.036 283.777 304.784 282.53 304.334 275.231C303.961 269.444 303.473 267.111 302.501 266.55C302.119 266.351 299.252 265.97 296.117 265.714C290.13 265.238 288.341 264.896 280.969 262.928C275.807 261.546 272.077 261.012 270.037 261.367C268.885 261.566 268.3 261.833 267.141 262.718C266.317 263.322 265.508 264.087 265.289 264.392C264.77 265.215 264.108 268.569 263.489 273.718C262.86 279.034 262.294 281.622 261.445 283.356C260.768 284.714 259.866 285.23 258.928 284.796C258.178 284.45 257.695 282.033 257.475 277.739C257.252 273.226 257.585 270.892 259.289 265.808C260.161 263.137 260.334 262.352 260.005 262.248C258.511 261.882 250.768 261.903 247.292 262.315C244.231 262.642 243.103 263.136 241.858 264.619C239.468 267.45 237.497 275.727 237.029 284.915C236.587 294.096 236.355 295.582 235.323 296.734C233.572 298.682 231.267 294.782 230.014 287.753C229.142 282.866 229.121 278.19 229.941 269.702L230.147 267.812L228.968 268.319C225.968 269.589 220.474 272.485 218.641 273.715C213.611 277.116 208.287 282.486 203.962 288.518C201.147 292.421 197.04 299.572 195.773 302.814C194.602 305.701 193.622 310.318 193.613 312.839C193.6 314.732 194.917 320.566 195.742 322.317Z" fill="#095C53"/>
<path opacity="0.05" d="M71.738 293.505C72.1645 293.101 72.714 292.45 73.0924 291.924C73.724 291.031 74.6176 289.37 74.7463 288.865C74.9214 288.132 74.8116 287.235 74.4345 286.284C74.1155 285.503 73.2784 284.107 72.9352 283.806C72.7827 283.676 72.7647 283.732 72.7631 284.361C72.7557 286.228 72.199 287.666 70.7288 289.688C69.839 290.906 69.6426 290.992 70.4737 289.802C71.4455 288.408 71.8168 287.688 72.0615 286.677C72.4631 285.089 72.4617 283.657 72.0709 283.067C71.7917 282.646 71.6745 282.669 71.0513 283.258C69.9965 284.244 69.6432 284.875 68.8781 287.146C68.6881 287.69 68.3907 288.406 68.2115 288.734C67.8762 289.342 67.8762 289.342 66.8911 289.984C66.3424 290.336 65.6713 290.737 65.3983 290.874C64.9774 291.087 65.0488 291.029 65.8579 290.47C67.6165 289.282 67.9719 288.771 68.7527 286.391C69.007 285.594 69.3355 284.66 69.4715 284.317C69.7843 283.558 70.4521 282.454 70.7124 282.282C70.8196 282.211 70.8912 282.119 70.8709 282.088C70.7998 281.981 69.2915 281.019 68.541 280.602C68.0093 280.315 67.7802 280.236 67.6093 280.294C67.3594 280.382 66.67 280.972 65.4899 282.118C64.8079 282.768 64.5501 282.961 63.3405 283.697C61.0949 285.064 60.6486 285.239 62.3765 284.071C63.1958 283.528 64.2577 282.736 64.7454 282.325C65.5293 281.662 66.6073 280.561 66.9602 280.063C67.0804 279.895 66.999 279.839 64.3436 278.127L61.6068 276.36L59.7309 277.603C58.0235 278.735 57.7913 278.867 57.0339 279.138C56.5775 279.297 56.2052 279.4 56.2104 279.375C56.2105 279.342 56.583 279.139 57.0269 278.911C58.4734 278.183 60.6919 276.459 60.7874 275.988C60.808 275.886 53.469 271.549 53.288 271.558C53.2218 271.558 53.0152 271.629 52.8239 271.723C52.1581 272.032 50.7253 272.398 50.0832 272.427C49.3341 272.46 48.4247 272.402 47.6938 272.28L47.1692 272.187L47.9003 272.209C49.0264 272.245 50.2112 272.187 50.6293 272.087C50.8384 272.036 51.3435 271.8 51.7568 271.56C52.3871 271.197 52.4892 271.118 52.3977 271.047C52.0721 270.821 46.3568 267.138 46.133 267C45.9829 266.923 45.9219 266.864 45.9932 266.872C46.0619 266.892 48.4206 268.106 51.2244 269.576C54.041 271.048 56.4632 272.308 56.6133 272.385L56.8983 272.516L56.883 271.545C56.8452 268.462 56.6843 266.64 56.3805 265.915C55.788 264.49 55.7931 264.497 56.303 265.35C56.5719 265.789 56.8735 266.393 56.9772 266.699C57.3362 267.74 57.5934 269.773 57.6486 272.051C57.6648 272.658 57.7067 273.203 57.7372 273.249C57.8082 273.356 64.4026 276.986 64.4562 276.951C64.5098 276.915 64.8643 274.84 64.9971 273.727C65.1505 272.545 65.2628 270.52 65.2376 269.434C65.2361 269.016 65.0623 267.291 64.868 265.601C64.6736 263.912 64.5243 262.556 64.5472 262.574C64.6817 262.76 65.5645 267.167 65.684 268.245C65.9302 270.562 65.8693 273.413 65.513 276.184L65.3413 277.554L66.8142 278.429C67.6231 278.918 68.6024 279.514 69.0044 279.755L69.7166 280.197L69.9649 279.757C70.3641 279.063 71.0566 277.314 71.5113 275.889C72.6774 272.261 73.2844 269.07 73.2624 266.759C73.2571 265.87 73.3574 266.487 73.4104 267.664C73.5676 270.911 73.1903 272.935 71.5477 277.54C70.6853 279.963 70.5643 280.462 70.7724 280.776C70.9044 280.975 72.3644 281.914 72.708 282.017C72.8073 282.05 73.0195 281.788 73.4875 281.081C73.8405 280.55 74.7869 279.151 75.5848 277.994C76.3853 276.824 77.1501 275.666 77.2934 275.417C77.8412 274.448 79.1433 271.425 79.5209 270.248C79.544 270.167 79.5798 270.121 79.5951 270.144C79.6407 270.213 78.8519 272.764 78.3849 274.054C77.5996 276.228 76.8163 277.64 74.6552 280.781C74.0158 281.712 73.6857 282.261 73.7724 282.259C74.0833 282.229 75.5011 281.741 76.3327 281.366C77.3963 280.893 78.4199 280.159 79.2426 279.272C79.539 278.954 79.8097 278.698 79.8352 278.703C79.9243 278.721 78.6361 280.302 78.1482 280.78C77.5863 281.329 76.2518 282.092 75.1578 282.487C74.1505 282.846 74.1734 282.864 75.7201 282.786C77.7025 282.685 79.4206 282.35 80.4868 281.864C81.1653 281.557 82.2224 280.691 82.5524 280.175C82.8619 279.694 83.1144 278.612 83.2558 277.163C83.4077 275.563 83.6407 271.209 83.6093 270.547C83.5289 269.145 83.0916 267.804 82.2418 266.373C80.7173 263.823 78.1397 261.565 74.2372 259.335C72.7998 258.514 70.0314 257.164 69.9242 257.235C69.8936 257.255 69.9085 257.377 69.9668 257.515C70.2298 258.245 70.7216 260.2 70.8265 260.99C70.9641 261.979 70.9136 262.751 70.5893 265.005C70.4725 265.81 70.3008 267.18 70.217 268.051C69.9632 270.611 69.5292 271.935 68.8095 272.412C68.3884 272.691 68.1082 272.667 67.8899 272.338C67.4027 271.603 67.5098 269.603 68.2805 265.18C68.8442 262.007 68.6184 259.687 67.569 257.639C66.4181 255.404 64.3565 254.588 60.6742 254.902C59.9581 254.969 57.7761 255.369 57.6306 255.465C57.5924 255.491 57.8669 255.738 58.233 256.025C59.1331 256.718 59.9995 257.642 60.3011 258.247C60.7295 259.076 61.0214 260.48 61.5315 264.176C61.814 266.248 61.6219 268.602 61.1056 269.253C60.8832 269.532 60.8475 269.545 60.6107 269.47C60.4732 269.429 60.3308 269.347 60.2953 269.294C60.0821 268.972 59.7213 267.613 59.4098 265.913C58.9902 263.668 58.8868 263.262 58.5094 262.377C57.8536 260.839 56.922 259.517 55.7959 258.533C55.0867 257.912 54.5828 257.684 53.9637 257.698C52.7457 257.723 51.4523 258.382 48.971 260.258C46.9747 261.769 46.5919 261.989 44.2378 262.944C42.3734 263.706 41.6589 264.124 41.5815 264.506C41.5582 264.654 41.7493 265.64 42.0115 266.701C42.5157 268.725 42.6007 269.352 42.7671 271.997C42.882 273.85 43.1182 275.137 43.4605 275.77C43.6532 276.127 43.8056 276.29 44.2252 276.574C44.5152 276.779 44.8561 276.961 44.9808 276.999C45.3093 277.079 46.4868 276.927 48.2508 276.562C50.0709 276.182 50.9858 276.082 51.6505 276.171C52.1726 276.243 52.4421 276.484 52.4029 276.84C52.3716 277.125 51.6291 277.552 50.2391 278.098C48.7778 278.67 47.9723 278.818 46.1098 278.819C45.134 278.826 44.8562 278.856 44.8585 278.976C44.903 279.509 45.7651 282.056 46.2845 283.156C46.7304 284.127 47.0175 284.444 47.6436 284.69C48.8398 285.165 51.7832 284.9 54.8606 284.039C57.933 283.171 58.4479 283.083 58.9416 283.296C59.7763 283.657 58.7464 284.847 56.5701 286.036C55.0571 286.862 53.5194 287.386 50.6336 288.054L49.9886 288.195L50.2859 288.526C51.0352 289.374 52.5957 290.864 53.2034 291.332C54.8791 292.612 57.2353 293.773 59.6996 294.531C61.2957 295.027 64.1045 295.589 65.312 295.648C66.3921 295.715 68.0206 295.528 68.8519 295.253C69.4766 295.048 71.2527 293.97 71.738 293.505Z" fill="#095C53"/>
<path opacity="0.05" d="M115.103 152.811C107.274 148.36 101.47 139.693 99.1467 131.141C99.0172 130.663 98.8972 130.181 98.7884 129.698C98.6797 129.215 98.5813 128.729 98.4942 128.24C98.4062 127.752 98.3295 127.262 98.263 126.771C98.1974 126.28 98.1421 125.788 98.0972 125.293C98.0531 124.8 98.0193 124.305 97.9957 123.81C97.9731 123.315 97.9606 122.819 97.9601 122.323C97.9588 121.828 97.9686 121.332 97.9893 120.837C98.0093 120.342 98.0412 119.846 98.0832 119.353C98.1252 118.859 98.1783 118.366 98.2423 117.875C98.3064 117.383 98.3806 116.893 98.4657 116.405C98.5509 115.916 98.647 115.43 98.754 114.946C98.8611 114.462 98.9782 113.98 99.1054 113.501C99.2326 113.022 99.3715 112.546 99.5196 112.073C99.6686 111.6 99.8267 111.131 99.9965 110.665C100.165 110.199 100.345 109.737 100.535 109.279C100.724 108.82 100.924 108.366 101.133 107.916C98.9388 105.703 96.8069 103.431 94.7376 101.102C95.0456 106.633 95.4092 112.24 95.2372 117.783C95.3126 120.976 95.5112 124.125 95.798 127.306C96.3055 129.537 96.5631 131.831 97.133 134.047C98.4799 139.279 100.929 144.503 103.629 149.162C96.694 145.562 91.18 137.898 88.8651 130.564C85.2737 119.191 88.4526 110.554 93.5569 100.36C90.5065 96.4248 87.3089 92.6906 84.5735 88.5194C84.733 94.2591 84.4541 99.9733 84.4133 105.711C84.3224 118.656 85.633 131.402 90.7043 143.428C82.452 137.645 78.2407 127.961 76.5487 118.288C76.034 115.34 75.6811 112.358 75.8297 109.363C76.1658 102.615 79.5823 92.2811 82.8341 86.2832L75.0942 75.1366C71.5111 88.1965 71.6443 108.703 74.6804 121.805C75.7168 126.278 77.8835 130.448 78.7781 134.937C75.3731 131.064 72.322 127.269 69.5849 122.889C68.8819 121.668 67.9401 120.305 67.5202 118.969C63.9364 111.931 61.9203 99.3299 63.9805 91.6191C64.2971 88.7916 65.2711 85.5018 66.5357 82.949C67.8212 79.3707 70.8208 75.9483 73.1419 72.9604C71.7883 71.505 70.5961 69.867 69.3197 68.341C67.936 66.6844 66.4445 65.11 64.982 63.5214C63.7642 68.3066 63.0225 73.1412 62.3472 78.027C60.0489 94.6402 60.3432 109.615 63.3299 126.11C57.1378 117.982 53.0269 109.448 51.7966 99.1765C50.1619 85.5273 54.8909 72.3421 63.2966 61.7206C60.4708 58.5542 57.4959 55.7339 54.3156 52.9247C52.5312 59.1081 51.9367 65.7407 51.0738 72.1093C50.1522 78.9161 48.9497 85.6753 48.9564 92.5656C48.9865 95.6178 49.104 98.6656 49.3094 101.711C49.464 104.055 50.1086 107.165 49.6559 109.46C49.5474 109.397 49.4315 109.345 49.3306 109.271C48.0928 108.362 43.9841 97.3308 43.3986 95.4944C42.9177 93.9971 42.5391 92.4734 42.2638 90.9241C39.7444 77.023 44.4146 62.985 52.3019 51.5994C49.6105 49.0584 46.6702 46.7854 43.7043 44.5771C39.2142 58.3801 35.6688 76.0562 38.4041 90.4842C38.7779 92.4538 39.1855 94.4274 39.7134 96.3612C40.3251 98.6029 41.9922 102.617 41.9397 104.816L41.6612 105.068C40.9143 104.73 40.0012 102.663 39.6176 101.874C39.0721 101.03 38.5779 100.199 38.1265 99.2997C32.5902 89.1469 26.8207 71.21 30.1838 59.9153C32.2392 53.0132 37.4658 48.476 41.8383 43.1075C39.3248 41.4613 36.7674 39.8863 34.165 38.3833C32.7387 41.369 31.5638 44.4736 30.4323 47.5801C26.0412 59.6397 25.5369 68.9444 27.8157 81.519C28.478 85.1751 29.107 88.8434 30.3439 92.3586C30.8199 93.7116 31.4036 95.0352 31.8588 96.392L32.3762 96.7174L31.8365 96.3036L31.9247 96.8655C31.6108 97.0083 31.6116 97.0858 31.2537 96.9668C29.8315 96.4972 26.5662 90.1111 25.9253 88.6739C21.454 78.6647 17.0287 59.8869 21.0039 49.7047C23.2646 43.9147 27.1822 41.2869 31.4755 37.1939C28.4133 35.9134 25.4313 34.3997 22.3216 33.2447C15.3549 30.6552 8.07671 29.2151 0.810399 27.764C1.25319 26.4325 1.66985 25.0839 2.14435 23.7631C14.177 26.1425 24.1233 28.8506 35.061 34.4156C36.8646 35.3328 38.737 36.2025 40.4644 37.2534C40.4417 33.9718 40.2911 30.5999 40.5909 27.3303C41.1827 20.8687 43.8846 14.1831 48.4639 9.51796C55.0733 2.78241 63.7052 0.372739 72.9574 0.358581C77.0137 0.352568 81.046 0.878033 85.1112 0.853874C81.4012 2.88306 77.4386 4.50297 73.7991 6.63983C65.9247 11.2651 56.4097 19.704 50.8051 26.9403C49.0551 29.1987 47.8152 31.6986 46.2581 34.0711C45.1903 35.6976 43.8754 37.2167 42.661 38.739C45.3274 40.7171 47.9687 42.7277 50.5856 44.7707C55.6215 34.1537 62.5248 21.8514 72.5815 15.228C75.8903 13.0488 79.5976 11.5636 83.314 10.2365C85.4015 9.49151 87.6416 8.64247 89.8609 8.45796C91.6651 8.30815 93.4951 8.42575 95.2892 8.20886C92.039 10.3536 88.6906 12.4467 85.7384 14.9977C79.3547 20.5117 74.0565 27.242 67.8231 32.9457C62.7763 37.5628 56.9896 41.3485 51.9773 45.9714C54.6146 48.0549 56.9257 50.3383 59.4269 52.5567C68.0014 39.7681 78.185 29.0716 93.9318 25.9538C99.374 24.8762 104.29 25.3401 109.616 26.7839C105.196 28.2475 101.021 30.1463 96.8023 32.1069C91.7629 34.3922 86.8338 36.8943 82.0156 39.6132C77.1966 42.332 72.5072 45.257 67.9466 48.3889C65.4483 50.0979 62.7442 51.7593 60.6236 53.9344C63.0114 56.05 65.1205 58.4469 67.2421 60.8233C67.5661 60.5016 67.8942 60.1835 68.2255 59.8682C68.5559 59.5528 68.8895 59.2411 69.2271 58.933C69.5638 58.6249 69.9038 58.3195 70.2478 58.0178C70.591 57.7161 70.9373 57.4188 71.2868 57.1243C71.6364 56.8289 71.9882 56.5379 72.3431 56.2514C72.699 55.9642 73.0563 55.6804 73.4177 55.4003C73.7791 55.1193 74.1427 54.8436 74.5095 54.5707C74.8755 54.2977 75.2447 54.0283 75.617 53.7634C75.9893 53.4977 76.3639 53.2363 76.7408 52.9785C77.1178 52.7207 77.4979 52.4665 77.8803 52.2159C78.2626 51.9662 78.6473 51.7199 79.0352 51.4774C79.4222 51.2347 79.8123 50.9965 80.2048 50.7619C80.5972 50.5273 80.9919 50.2971 81.3881 50.0703C81.7852 49.8437 82.1837 49.6214 82.5853 49.4027C82.9869 49.184 83.3908 48.9697 83.7962 48.7589C84.2024 48.5482 84.6101 48.3419 85.02 48.1399C85.4299 47.9371 85.8421 47.7395 86.2557 47.5455C86.6694 47.3514 87.0853 47.1618 87.5035 46.9757C87.9209 46.7904 88.3413 46.6096 88.7624 46.4322C89.1835 46.2548 89.6068 46.0827 90.0315 45.9141C90.4563 45.7454 90.8833 45.5812 91.3109 45.4213C91.7385 45.2614 92.1684 45.1059 92.6005 44.9539C93.0318 44.8028 93.4645 44.656 93.8986 44.5135C94.3328 44.371 94.7683 44.2329 95.2061 44.0992C95.643 43.9655 96.0822 43.8361 96.5212 43.711C96.9609 43.5868 97.4021 43.4661 97.8439 43.3497C98.2865 43.2333 98.7297 43.1221 99.1743 43.0144C99.6188 42.9076 100.064 42.805 100.51 42.7068C100.957 42.6086 101.404 42.5147 101.853 42.426C102.301 42.3364 102.75 42.2529 103.201 42.1728C103.651 42.0927 104.102 42.017 104.553 41.9463C105.004 41.8756 105.457 41.8094 105.91 41.7473C111.798 40.8942 117.806 40.7618 123.661 39.7532C121.602 41.6489 119.258 43.1152 116.883 44.5779C107.569 50.3145 97.8012 53.6309 87.2423 56.2922C80.8047 57.9153 74.5576 59.041 68.737 62.4243C71.2499 65.2796 73.8214 68.1643 75.8929 71.3626C77.6945 70.1175 79.5055 68.7036 81.4309 67.6626C82.5672 66.7278 84.6101 65.4187 86.0272 65.0108C91.0762 61.7154 101.651 58.0163 107.657 56.6371C115.824 54.7612 124.982 55.9262 132.147 60.4098C117.593 61.1574 108.411 65.6971 94.8723 69.6302C89.2319 71.2686 83.5836 72.2381 77.7957 73.1651C79.3728 75.4706 81.016 77.7294 82.7256 79.9397C96.2863 77.6652 109.007 72.0839 122.854 71.0034C126.161 70.7452 137.399 70.2713 139.465 72.0378L139.337 72.2814C136.173 73.6577 132.713 74.5624 129.472 75.7949C120.826 79.0841 111.779 82.4354 102.447 82.9731C96.2256 83.3307 89.8815 82.6345 83.7052 81.9435C85.6065 84.4399 87.3556 87.0837 89.1644 89.6506C93.7517 89.2114 98.3074 87.675 102.807 86.7011C115.865 83.8764 133.349 81.5803 145.986 86.9656C142.362 87.6209 138.858 88.6495 135.274 89.4796C124.115 92.0671 111.992 94.9842 100.451 94.2629C97.3839 94.0712 94.3725 93.4684 91.3549 92.9181C93.5035 95.4019 95.6286 97.9054 97.7294 100.429C101.585 100.146 105.453 99.1084 109.238 98.3599C116.384 96.947 123.799 95.93 131.099 96.382C138.617 96.8476 147.177 99.8924 152.287 105.626C149.517 105.446 146.742 104.939 143.979 104.644C141.499 104.379 138.986 104.318 136.494 104.273C123.331 104.042 112.098 106.41 99.0634 102.181C101.335 104.428 103.572 106.738 105.957 108.866C108.97 108.432 111.914 107.387 114.932 106.875C121.699 105.729 129.409 106.439 136.108 107.868C136.924 108.036 137.733 108.23 138.535 108.45C139.339 108.67 140.133 108.915 140.921 109.185C141.709 109.456 142.487 109.751 143.256 110.07C144.025 110.389 144.782 110.732 145.53 111.099C146.277 111.466 147.011 111.857 147.734 112.27C148.456 112.684 149.165 113.12 149.859 113.578C150.554 114.036 151.233 114.516 151.898 115.017C152.562 115.518 153.21 116.041 153.841 116.583C155.033 117.599 156.346 118.715 157.205 120.037C152.294 119.596 145.814 117.91 140.729 117.039C132.754 115.673 124.533 115.244 116.642 113.469C113.506 112.763 110.516 111.43 107.424 110.528C110.106 112.789 112.64 115.221 115.341 117.473C118.509 117.18 121.623 117.185 124.794 117.41C137.971 118.346 156.881 124.209 165.627 134.292C159.764 134.414 146.809 131.845 140.975 130.158C138.099 129.326 134.063 127.473 131.159 127.277C136.307 129.745 142.355 134.51 147.09 137.898C149.998 139.681 152.723 141.746 155.641 143.516C144.785 143.841 135.31 140.895 127.31 133.377C121.85 128.245 117.451 121.889 111.163 117.653C113.921 121.306 115.613 125.371 118.047 129.198C121.823 135.135 126.887 140.786 132.247 145.345C134.216 147.019 136.318 148.524 138.348 150.121C129.977 149.928 123.398 147.01 117.578 140.903C111.207 134.216 109.509 125.708 109.691 116.765C107.433 114.438 105.143 112.123 103.05 109.644C104.133 115.579 105.359 121.405 106.715 127.283C107.419 130.339 107.992 133.368 108.961 136.359C110.021 139.632 111.22 142.917 112.506 146.109C113.389 148.299 114.539 150.528 115.108 152.817L115.103 152.811Z" fill="#095C53"/>
<path opacity="0.05" d="M641.97 320.952C633.269 326.857 621.196 328.466 611.041 326.489C610.472 326.377 609.906 326.255 609.344 326.119C608.782 325.984 608.222 325.836 607.665 325.676C607.109 325.516 606.556 325.344 606.008 325.16C605.459 324.975 604.915 324.779 604.374 324.571C603.834 324.363 603.298 324.143 602.768 323.913C602.237 323.681 601.711 323.438 601.192 323.183C600.672 322.929 600.158 322.663 599.65 322.386C599.142 322.109 598.639 321.821 598.144 321.522C597.648 321.223 597.16 320.913 596.678 320.593C596.196 320.272 595.72 319.941 595.253 319.6C594.785 319.259 594.325 318.908 593.874 318.546C593.422 318.184 592.978 317.813 592.542 317.433C592.105 317.052 591.679 316.662 591.26 316.262C590.841 315.862 590.431 315.454 590.031 315.036C589.63 314.619 589.238 314.192 588.856 313.757C588.473 313.323 588.1 312.879 587.737 312.429C584.287 313.585 580.808 314.646 577.301 315.612C583.254 318.143 589.314 320.654 595.031 323.693C598.415 325.261 601.816 326.678 605.296 328.018C607.895 328.637 610.431 329.551 613.046 330.097C619.221 331.384 625.956 331.514 632.229 331.089C624.881 336.496 614.009 338.319 605.133 336.961C591.367 334.856 583.96 327.071 575.914 316.466C570.219 317.632 564.658 319.055 558.878 319.769C564.972 322.562 570.814 325.802 576.803 328.804C590.316 335.577 604.343 340.778 619.556 341.669C609.242 347.331 596.926 346.747 585.92 343.529C582.568 342.548 579.262 341.38 576.201 339.679C569.306 335.846 560.244 326.937 555.638 320.437L539.97 322.795C551.802 333.285 573.351 343.723 588.641 347.301C593.861 348.522 599.347 348.404 604.51 349.782C598.697 351.351 593.147 352.589 587.148 353.197C585.506 353.304 583.593 353.587 581.977 353.338C572.756 353.461 558.517 349.074 551.503 342.938C548.704 341.148 545.761 338.431 543.739 335.79C540.654 332.597 538.616 327.69 536.684 323.717C534.461 324.385 532.13 324.788 529.873 325.338C527.424 325.933 525.006 326.683 522.587 327.396C526.972 331.14 531.653 334.411 536.423 337.638C552.639 348.615 568.477 356.031 587.295 361.411C575.587 363.704 564.528 363.609 553.134 359.599C537.994 354.271 526.622 342.516 519.832 328.232C515.057 329.559 510.569 331.22 505.986 333.103C511.542 338.161 518.183 342.205 524.409 346.394C531.064 350.871 537.523 355.617 544.744 359.164C547.957 360.707 551.21 362.156 554.506 363.511C557.041 364.559 560.631 365.488 562.801 367.145C562.68 367.227 562.566 367.321 562.436 367.389C560.845 368.216 547.171 366.83 544.945 366.496C543.129 366.228 541.338 365.838 539.573 365.328C523.712 360.796 511.417 348.663 503.559 334.528C499.509 336.037 495.611 337.944 491.768 339.912C503.911 351.735 520.597 364.567 537.121 369.144C539.377 369.768 541.654 370.359 543.952 370.804C546.616 371.319 551.68 371.643 553.957 372.833L554.077 373.254C553.338 373.863 550.702 373.753 549.677 373.747C548.513 373.884 547.387 373.973 546.212 373.982C532.721 374.544 510.957 371.335 500.861 361.986C494.691 356.273 492.634 348.458 489.266 341.109C486.245 342.892 483.277 344.759 480.36 346.709C482.752 349.744 485.397 352.576 488.068 355.363C498.435 366.183 507.921 371.511 522.269 375.61C526.44 376.803 530.607 378.036 534.927 378.553C536.59 378.753 538.277 378.824 539.933 379.047L540.541 378.673L539.829 379.025L540.463 379.222C540.451 379.625 540.532 379.664 540.223 379.977C538.998 381.225 530.624 381.351 528.788 381.281C515.997 380.802 494.045 375.751 485.43 366.335C480.531 360.981 479.799 355.522 477.727 348.913C474.806 351.46 471.682 353.803 468.868 356.465C462.562 362.426 457.299 369.307 452.031 376.17C450.865 375.019 449.667 373.887 448.529 372.709C457.228 361.332 465.195 352.311 476.666 343.724C478.557 342.308 480.434 340.795 482.426 339.528C478.976 337.859 475.367 336.278 472.096 334.277C465.633 330.324 460.024 324.045 457.5 316.842C453.853 306.445 455.782 296.16 460.539 286.461C462.625 282.209 465.256 278.257 467.327 273.986C467.539 278.919 467.192 283.905 467.553 288.82C468.336 299.454 472.268 313.773 476.957 323.377C478.42 326.375 480.399 328.963 482.081 331.818C483.234 333.775 484.147 335.936 485.115 337.993C488.562 336.221 492.031 334.491 495.52 332.804C486.997 322.052 477.671 308.476 475.921 294.525C475.345 289.935 475.702 285.286 476.229 280.708C476.525 278.137 476.791 275.353 477.742 272.933C478.516 270.966 479.583 269.11 480.282 267.118C480.852 271.629 481.317 276.216 482.466 280.625C484.949 290.156 489.266 299.177 492.025 308.648C494.259 316.316 495.239 324.331 497.496 331.965C501.039 330.278 504.623 329.035 508.237 327.559C499.264 311.981 493.312 295.796 498.169 277.693C499.847 271.437 502.869 266.526 507.129 261.692C506.382 267.078 506.217 272.43 506.095 277.861C505.889 284.318 505.968 290.772 506.33 297.221C506.692 303.672 507.337 310.092 508.266 316.485C508.767 319.983 509.113 323.673 510.297 327.016C513.745 325.606 517.343 324.633 520.927 323.637C520.757 323.131 520.593 322.624 520.434 322.114C520.274 321.605 520.119 321.095 519.971 320.582C519.822 320.071 519.677 319.557 519.539 319.041C519.4 318.526 519.267 318.01 519.139 317.492C519.01 316.973 518.886 316.455 518.769 315.935C518.652 315.414 518.539 314.894 518.432 314.371C518.324 313.847 518.223 313.324 518.126 312.799C518.029 312.275 517.937 311.749 517.852 311.223C517.765 310.696 517.685 310.168 517.609 309.641C517.534 309.113 517.464 308.583 517.398 308.054C517.334 307.524 517.274 306.994 517.22 306.463C517.166 305.932 517.118 305.401 517.074 304.869C517.031 304.337 516.993 303.804 516.96 303.272C516.928 302.74 516.9 302.208 516.878 301.674C516.857 301.141 516.84 300.607 516.829 300.074C516.818 299.539 516.812 299.006 516.812 298.472C516.811 297.938 516.816 297.405 516.826 296.871C516.836 296.338 516.852 295.805 516.873 295.27C516.894 294.738 516.922 294.204 516.953 293.671C516.985 293.139 517.023 292.607 517.065 292.075C517.108 291.543 517.156 291.011 517.209 290.481C517.262 289.95 517.321 289.42 517.384 288.889C517.449 288.359 517.518 287.83 517.593 287.302C517.667 286.773 517.747 286.246 517.833 285.718C517.918 285.192 518.01 284.665 518.105 284.141C518.202 283.616 518.303 283.092 518.409 282.569C518.515 282.045 518.627 281.524 518.744 281.002C518.861 280.482 518.983 279.962 519.111 279.444C519.238 278.926 519.37 278.409 519.509 277.893C519.646 277.377 519.79 276.864 519.939 276.351C520.087 275.838 520.241 275.326 520.399 274.817C520.558 274.308 520.722 273.799 520.891 273.293C523.034 266.686 525.995 260.324 527.958 253.671C528.882 256.805 529.209 260.017 529.516 263.259C530.721 275.974 529.156 287.917 526.497 300.35C524.877 307.93 522.834 315.055 523.375 322.897C527.662 321.737 532.01 320.532 536.429 320.012C536.054 317.482 535.507 314.856 535.41 312.302C535.017 310.63 534.699 307.814 535.003 306.12C534.155 299.131 535.735 286.146 537.389 279.144C539.636 269.621 545.581 260.63 553.973 255.436C547.249 271.068 547.268 283.027 544.404 299.237C543.211 305.991 541.313 312.407 539.299 318.948C542.527 318.485 545.741 317.929 548.938 317.279C553.55 301.901 554.266 285.697 560.276 270.635C561.712 267.038 567.012 255.023 569.928 253.769L570.117 254.029C569.926 258.054 569.09 262.144 568.709 266.174C567.694 276.928 566.538 288.133 562.288 298.185C559.453 304.887 555.452 311.173 551.542 317.286C555.138 316.582 558.809 316.114 562.431 315.543C564.337 310.512 565.078 304.947 566.379 299.731C570.155 284.597 576.768 265.098 588.928 254.639C587.745 258.773 587.015 262.974 586.036 267.156C582.991 280.179 579.793 294.383 573.084 306.1C571.301 309.214 569.116 312.057 566.983 314.934C570.694 313.965 574.412 313.03 578.139 312.131C579.832 307.947 580.74 303.36 581.908 299.009C584.114 290.795 586.873 282.504 591.112 275.09C595.478 267.455 603.083 260.059 611.725 257.664C610.107 260.473 608.145 263.118 606.41 265.86C604.854 268.321 603.493 270.922 602.162 273.508C595.129 287.177 591.815 300.166 580.662 311.637C584.188 310.417 587.762 309.266 591.22 307.864C592.32 304.485 592.744 300.862 593.765 297.437C596.055 289.757 600.776 282.047 605.727 275.767C606.325 275 606.945 274.252 607.59 273.525C608.235 272.797 608.9 272.091 609.591 271.405C610.28 270.72 610.99 270.056 611.721 269.416C612.452 268.775 613.202 268.159 613.972 267.565C614.742 266.971 615.53 266.404 616.335 265.86C617.141 265.317 617.964 264.8 618.802 264.309C619.64 263.817 620.493 263.353 621.361 262.916C622.229 262.478 623.11 262.069 624.003 261.688C625.683 260.964 627.529 260.163 629.356 259.946C626.361 264.862 621.253 270.781 617.718 275.658C612.174 283.307 607.483 291.696 601.553 299.047C599.197 301.968 596.258 304.413 593.718 307.185C597.47 305.542 601.325 304.143 605.076 302.475C606.404 299.006 608.016 295.746 609.887 292.541C617.665 279.221 633.559 262.437 648.632 258.477C645.737 264.681 636.363 276.927 631.587 282.167C629.232 284.75 625.208 288.023 623.506 290.963C628.746 286.844 636.857 282.966 642.848 279.754C646.215 277.628 649.785 275.838 653.144 273.695C647.884 285.234 639.911 293.639 627.91 298.141C619.717 301.214 610.791 302.543 603.11 306.944C608.359 305.939 613.49 306.264 618.754 305.688C626.921 304.795 635.453 302.406 642.993 299.143C645.761 297.944 648.422 296.518 651.142 295.216C646.622 303.885 640.172 309.272 630.774 312.217C620.482 315.442 610.695 312.831 601.421 308.028C597.818 309.193 594.212 310.397 590.536 311.312C597.311 313.238 604.047 314.959 610.902 316.571C614.468 317.41 617.936 318.371 621.568 318.899C625.544 319.478 629.604 319.917 633.61 320.215C636.359 320.42 639.288 320.366 641.978 320.95L641.97 320.952Z" fill="#095C53"/>
<path opacity="0.05" d="M394.43 255.651C387.413 254.308 380.841 249.282 376.913 243.454C376.693 243.127 376.48 242.796 376.275 242.461C376.07 242.126 375.872 241.786 375.682 241.442C375.491 241.098 375.308 240.749 375.133 240.398C374.958 240.046 374.791 239.69 374.631 239.33C374.472 238.971 374.32 238.608 374.176 238.242C374.033 237.876 373.897 237.507 373.77 237.135C373.642 236.763 373.523 236.388 373.412 236.011C373.301 235.634 373.198 235.254 373.104 234.873C373.009 234.491 372.923 234.108 372.846 233.722C372.768 233.337 372.699 232.949 372.638 232.561C372.577 232.173 372.525 231.783 372.482 231.392C372.439 231.001 372.404 230.61 372.377 230.218C372.35 229.825 372.333 229.433 372.323 229.04C372.314 228.646 372.313 228.253 372.322 227.86C372.329 227.467 372.346 227.074 372.372 226.681C372.397 226.289 372.431 225.897 372.473 225.506C370.26 224.404 368.079 223.243 365.93 222.022C367.574 226.097 369.279 230.215 370.565 234.42C371.437 236.799 372.391 239.113 373.419 241.429C374.37 242.975 375.149 244.632 376.143 246.15C378.49 249.735 381.664 253.032 384.881 255.841C378.754 254.909 372.656 250.562 369.045 245.646C363.443 238.023 363.624 230.725 364.854 221.766C361.558 219.59 358.203 217.603 355.084 215.169C356.67 219.438 357.919 223.801 359.354 228.12C362.592 237.864 366.831 247.1 373.711 254.836C366.037 252.601 360.401 246.405 356.66 239.572C355.521 237.491 354.494 235.341 353.841 233.054C352.37 227.901 352.297 219.268 353.207 213.934L344.548 207.54C345.192 218.262 350.529 233.627 356.156 242.691C358.076 245.785 360.768 248.363 362.586 251.506C359.04 249.467 355.78 247.396 352.606 244.806C351.766 244.069 350.711 243.286 350.054 242.39C345.566 238.02 340.834 229.072 340.411 222.756C339.927 220.552 339.818 217.832 340.116 215.592C340.167 212.577 341.546 209.241 342.526 206.404C341.138 205.657 339.824 204.732 338.476 203.912C337.014 203.021 335.492 202.22 333.988 201.4C334.295 205.305 334.973 209.125 335.714 212.966C338.231 226.028 342.276 237.199 348.731 248.822C342.006 244.3 336.739 238.942 333.192 231.543C328.479 221.71 328.663 210.601 332.262 200.478C329.331 198.822 326.377 197.464 323.272 196.167C323.511 201.266 324.758 206.398 325.737 211.401C326.783 216.748 327.606 222.131 329.371 227.304C330.173 229.588 331.04 231.847 331.972 234.081C332.686 235.802 333.965 237.972 334.211 239.811C334.113 239.792 334.013 239.783 333.918 239.753C332.756 239.386 326.854 232.152 325.945 230.922C325.202 229.921 324.528 228.873 323.926 227.78C318.484 217.985 318.406 206.25 321.421 195.686C318.751 194.465 315.962 193.509 313.171 192.608C313.324 204.12 315.176 218.299 320.915 228.435C321.699 229.819 322.509 231.197 323.399 232.514C324.431 234.042 326.708 236.63 327.23 238.295L327.086 238.555C326.438 238.492 325.225 237.173 324.735 236.678C324.11 236.184 323.527 235.686 322.958 235.126C316.208 228.916 307.294 216.92 306.935 207.579C306.716 201.871 309.482 197.129 311.395 191.981C309.087 191.387 306.764 190.857 304.426 190.393C304.117 193 304.028 195.631 303.972 198.253C303.754 208.43 305.752 215.546 310.674 224.407C312.105 226.984 313.514 229.578 315.341 231.901C316.044 232.796 316.82 233.641 317.509 234.543L317.98 234.656L317.469 234.483L317.679 234.882C317.48 235.07 317.5 235.128 317.201 235.13C316.013 235.14 311.93 231.179 311.082 230.263C305.168 223.889 297.049 210.918 297.434 202.256C297.653 197.331 299.924 194.357 302.102 190.187C299.476 190.007 296.85 189.632 294.22 189.559C288.327 189.394 282.494 190.171 276.666 190.937C276.659 189.824 276.627 188.705 276.646 187.592C286.29 186.306 294.451 185.799 304.085 187.185C305.674 187.413 307.302 187.588 308.868 187.936C308.013 185.477 307.038 182.984 306.428 180.452C305.223 175.449 305.544 169.738 307.792 165.065C311.035 158.319 316.901 154.305 323.846 151.932C326.89 150.891 330.052 150.256 333.099 149.2C330.831 151.671 328.269 153.899 326.082 156.434C321.35 161.918 316.36 170.685 313.999 177.55C313.262 179.693 312.969 181.887 312.406 184.067C312.019 185.561 311.42 187.037 310.897 188.491C313.404 189.295 315.901 190.13 318.388 190.996C319.458 181.737 321.5 170.736 327.361 163.194C329.289 160.712 331.694 158.65 334.146 156.704C335.523 155.612 336.988 154.402 338.608 153.697C339.924 153.124 341.329 152.745 342.62 152.123C340.727 154.564 338.748 156.991 337.182 159.661C333.797 165.432 331.537 171.839 328.312 177.714C325.702 182.47 322.323 186.791 319.74 191.542C322.252 192.433 324.571 193.558 327.016 194.585C330.189 182.792 335.104 172.158 346.133 165.796C349.945 163.596 353.755 162.689 358.123 162.413C355.177 164.641 352.527 167.133 349.86 169.683C346.659 172.686 343.597 175.824 340.673 179.096C337.749 182.369 334.974 185.763 332.349 189.279C330.91 191.201 329.303 193.139 328.266 195.314C330.6 196.293 332.796 197.554 334.996 198.797C335.157 198.473 335.322 198.15 335.49 197.829C335.658 197.507 335.829 197.188 336.004 196.87C336.178 196.553 336.355 196.237 336.536 195.922C336.717 195.608 336.901 195.297 337.088 194.986C337.275 194.675 337.465 194.367 337.659 194.061C337.853 193.754 338.048 193.45 338.248 193.147C338.448 192.844 338.651 192.544 338.856 192.245C339.061 191.947 339.27 191.65 339.482 191.356C339.694 191.062 339.908 190.77 340.125 190.48C340.343 190.19 340.563 189.902 340.786 189.616C341.01 189.331 341.236 189.048 341.465 188.767C341.694 188.486 341.926 188.207 342.16 187.931C342.395 187.654 342.633 187.381 342.872 187.109C343.113 186.838 343.355 186.569 343.601 186.302C343.847 186.035 344.095 185.771 344.346 185.509C344.597 185.248 344.851 184.988 345.107 184.732C345.363 184.475 345.622 184.221 345.883 183.97C346.144 183.719 346.408 183.47 346.674 183.224C346.941 182.978 347.21 182.735 347.481 182.494C347.752 182.253 348.026 182.016 348.302 181.781C348.578 181.546 348.856 181.313 349.137 181.084C349.417 180.855 349.7 180.628 349.986 180.404C350.271 180.18 350.558 179.959 350.848 179.741C351.138 179.523 351.429 179.309 351.724 179.096C352.018 178.884 352.315 178.675 352.612 178.469C352.911 178.263 353.211 178.06 353.513 177.86C353.816 177.659 354.12 177.463 354.427 177.268C354.733 177.075 355.041 176.884 355.352 176.696C355.662 176.508 355.974 176.324 356.288 176.142C356.602 175.961 356.918 175.783 357.235 175.608C357.553 175.433 357.873 175.261 358.193 175.093C358.514 174.924 358.837 174.759 359.161 174.597C363.365 172.452 367.843 170.818 371.982 168.566C370.92 170.515 369.534 172.215 368.125 173.92C362.595 180.606 356.107 185.591 348.858 190.286C344.438 193.149 340.034 195.59 336.527 199.617C339.143 201.12 341.811 202.629 344.184 204.502C345.219 203.107 346.217 201.583 347.397 200.309C348.012 199.317 349.212 197.812 350.172 197.144C353.122 193.38 360.118 187.901 364.276 185.332C369.93 181.837 377.104 180.373 383.63 181.91C372.892 186.189 367.156 191.943 357.994 198.354C354.176 201.025 350.183 203.195 346.073 205.37C347.846 206.698 349.657 207.975 351.505 209.198C361.108 204.027 369.235 196.587 379.357 192.239C381.775 191.2 390.092 187.975 392.095 188.773L392.061 188.989C390.036 190.831 387.67 192.394 385.551 194.147C379.898 198.825 373.96 203.652 367.09 206.439C362.509 208.297 357.567 209.394 352.752 210.452C354.818 211.842 356.807 213.38 358.82 214.846C362.153 213.344 365.182 211.027 368.312 209.147C377.396 203.691 389.939 197.501 400.804 198.318C398.25 199.736 395.882 201.403 393.402 202.942C385.684 207.734 377.325 213.021 368.474 215.427C366.122 216.066 363.706 216.383 361.3 216.74C363.548 218.057 365.783 219.394 368.005 220.752C370.828 219.555 373.467 217.788 376.119 216.259C381.124 213.374 386.432 210.716 392.03 209.191C397.794 207.621 405 207.721 410.302 210.722C408.176 211.294 405.962 211.622 403.812 212.106C401.883 212.54 399.979 213.136 398.097 213.739C388.153 216.927 380.322 221.574 369.454 221.727C371.734 222.835 374.004 223.998 376.338 224.986C378.49 223.892 380.433 222.355 382.569 221.2C387.358 218.611 393.33 217.175 398.725 216.537C399.38 216.455 400.038 216.394 400.696 216.355C401.356 216.315 402.015 216.295 402.676 216.297C403.336 216.299 403.996 216.322 404.655 216.365C405.314 216.408 405.97 216.472 406.625 216.557C407.28 216.642 407.931 216.748 408.579 216.874C409.227 217 409.871 217.146 410.51 217.313C411.148 217.48 411.781 217.667 412.408 217.873C413.035 218.08 413.655 218.307 414.267 218.553C415.421 219.012 416.693 219.514 417.675 220.288C413.875 221.21 408.578 221.6 404.537 222.244C398.2 223.255 391.917 225.032 385.537 225.714C383.002 225.985 380.416 225.748 377.864 225.86C380.456 226.873 382.98 228.053 385.583 229.053C387.887 228.025 390.227 227.233 392.665 226.593C402.8 223.93 418.498 223.503 427.64 228.841C423.269 230.43 412.884 231.81 408.073 232.033C405.7 232.142 402.196 231.782 399.965 232.376C404.461 232.915 410.22 234.948 414.641 236.283C417.28 236.879 419.854 237.734 422.497 238.318C414.428 241.335 406.56 241.542 398.633 237.94C393.222 235.481 388.295 231.831 382.492 230.256C385.496 232.295 387.804 234.915 390.61 237.167C394.961 240.661 400.207 243.612 405.397 245.666C407.303 246.421 409.266 247.014 411.198 247.695C404.862 249.687 399.177 249.177 393.247 246.077C386.754 242.682 383.307 236.727 381.16 229.965C378.869 228.794 376.559 227.64 374.354 226.314C376.682 230.494 379.092 234.556 381.61 238.623C382.92 240.739 384.124 242.867 385.615 244.865C387.247 247.053 388.987 249.214 390.768 251.282C391.99 252.701 393.423 254.081 394.435 255.654L394.43 255.651Z" fill="#095C53"/>
</svg>
