<svg width="32" height="32" viewBox="0 0 32 32" fill="none" xmlns="http://www.w3.org/2000/svg">
<path d="M27 2.5C27.1794 2.5 27.3455 2.59622 27.4346 2.75195L31.4346 9.75195C31.5041 9.8738 31.5185 10.0198 31.4756 10.1533C31.4326 10.2868 31.3355 10.3957 31.208 10.4541V10.4551L31.2061 10.4561C31.2047 10.4566 31.2024 10.457 31.2002 10.458C31.1956 10.4601 31.1888 10.4631 31.1807 10.4668C31.1639 10.4743 31.1393 10.4855 31.1084 10.499C31.0461 10.5263 30.9563 10.565 30.8447 10.6113C30.6212 10.704 30.3076 10.8283 29.9482 10.9541C29.8073 11.0034 29.6564 11.0514 29.5 11.1006V29C29.5 29.2761 29.2761 29.5 29 29.5H3C2.72395 29.4999 2.5 29.2761 2.5 29V11.083C2.37879 11.0457 2.26021 11.012 2.14844 10.9746C1.76301 10.8458 1.4265 10.7166 1.18652 10.6201C1.06643 10.5718 0.969265 10.5315 0.902344 10.5029C0.869259 10.4888 0.843164 10.4776 0.825195 10.4697C0.816243 10.4658 0.808584 10.4621 0.803711 10.46C0.801472 10.459 0.799145 10.4576 0.797852 10.457H0.796875L0.795898 10.4561C0.667174 10.3984 0.568193 10.2894 0.524414 10.1553C0.480688 10.0212 0.495558 9.87442 0.56543 9.75195L4.56543 2.75195C4.65442 2.59623 4.82065 2.50007 5 2.5H27ZM8.31348 10.6201C8.07347 10.7166 7.73697 10.8458 7.35156 10.9746C6.59541 11.2273 5.59324 11.5 4.75 11.5C4.35425 11.5 3.92384 11.4385 3.5 11.3486V28.5H13.5V11.3486C13.0762 11.4385 12.6457 11.5 12.25 11.5C11.4067 11.5 10.4046 11.2273 9.64844 10.9746C9.26301 10.8458 8.9265 10.7166 8.68652 10.6201C8.61577 10.5917 8.55313 10.5651 8.5 10.543C8.44687 10.5651 8.38423 10.5917 8.31348 10.6201ZM14.5 28.5H28.5V24.5H14.5V28.5ZM23.3135 10.6201C23.0735 10.7166 22.737 10.8458 22.3516 10.9746C21.5954 11.2273 20.5932 11.5 19.75 11.5C18.9067 11.5 17.9046 11.2273 17.1484 10.9746C16.763 10.8458 16.4265 10.7166 16.1865 10.6201C16.1158 10.5917 16.0531 10.5651 16 10.543C15.9469 10.5651 15.8842 10.5917 15.8135 10.6201C15.5735 10.7166 15.237 10.8458 14.8516 10.9746C14.7397 11.012 14.6213 11.0457 14.5 11.083V23.5H28.5V11.3682C28.165 11.4389 27.8295 11.4896 27.5166 11.5C26.6205 11.5298 25.5505 11.2555 24.7432 10.9961C24.3316 10.8638 23.9723 10.7297 23.7158 10.6289C23.6335 10.5966 23.5618 10.5665 23.502 10.542C23.4484 10.5644 23.3851 10.5913 23.3135 10.6201ZM23.376 15.2373C24.3631 14.4338 25.6388 14.2613 26.9756 14.6895C27.1917 14.7588 27.3427 14.9662 27.3535 15.1904L27.3496 15.2881C27.0591 17.4025 26.1305 18.6374 25.042 19.29C24.0619 19.8775 22.9878 19.9689 22.2129 19.8633V22.5C22.2129 22.7761 21.989 23 21.7129 23C21.4369 22.9998 21.2129 22.776 21.2129 22.5V19.9023C20.5038 19.9183 19.6466 19.7666 18.8516 19.29C17.763 18.6374 16.8344 17.4025 16.5439 15.2881L16.54 15.1904C16.5509 14.9662 16.7019 14.7588 16.918 14.6895C18.2547 14.2613 19.5305 14.4338 20.5176 15.2373C21.1439 15.7473 21.6288 16.4919 21.9463 17.4453C22.2638 16.4917 22.7495 15.7473 23.376 15.2373ZM19.8818 16.0615C19.2629 15.5577 18.4793 15.3746 17.5947 15.5469C17.9098 17.0893 18.6275 17.938 19.3857 18.3926C20.0245 18.7754 20.7165 18.8931 21.2725 18.8799C21.0462 17.5144 20.5324 16.5912 19.8818 16.0615ZM26.2988 15.5469C25.4142 15.3745 24.6306 15.5578 24.0117 16.0615C23.3611 16.5912 22.8474 17.5144 22.6211 18.8799C23.1771 18.8931 23.8691 18.7754 24.5078 18.3926C25.266 17.938 25.9837 17.0892 26.2988 15.5469ZM1.7168 9.75293C1.9235 9.83353 2.18 9.93018 2.46484 10.0254C3.20464 10.2726 4.07783 10.5 4.75 10.5C5.42214 10.5 6.29533 10.2726 7.03516 10.0254C7.39722 9.90438 7.71426 9.78332 7.94043 9.69238C7.99406 9.67082 8.04233 9.64951 8.08496 9.63184L9.83691 3.5H5.29102L1.7168 9.75293ZM9.10254 9.70898C9.32508 9.79771 9.62504 9.91181 9.96484 10.0254C10.7046 10.2726 11.5778 10.5 12.25 10.5C12.9221 10.5 13.7953 10.2726 14.5352 10.0254C14.8972 9.90438 15.2143 9.78332 15.4404 9.69238C15.4611 9.68408 15.4809 9.67477 15.5 9.66699V3.5H10.877L9.10254 9.70898ZM16.5 9.66699C16.5191 9.67476 16.5389 9.68407 16.5596 9.69238C16.7857 9.78331 17.1028 9.90437 17.4648 10.0254C18.2046 10.2726 19.0778 10.5 19.75 10.5C20.4221 10.5 21.2953 10.2726 22.0352 10.0254C22.3882 9.90741 22.6979 9.78836 22.9229 9.69824L21.5957 3.5H16.5V9.66699ZM23.9336 9.63867C23.9774 9.65643 24.0267 9.67688 24.0811 9.69824C24.323 9.7933 24.6628 9.91959 25.0498 10.0439C25.84 10.2978 26.7704 10.5237 27.4834 10.5C28.1132 10.479 28.9277 10.252 29.6172 10.0107C29.8694 9.92248 30.0979 9.83288 30.2852 9.75781L26.709 3.5H22.6191L23.9336 9.63867Z" fill="#1A1A1A"/>
</svg>
