<svg width="353" height="342" viewBox="0 0 353 342" fill="none" xmlns="http://www.w3.org/2000/svg">
<path opacity="0.2" d="M6.41861 181.306C8.5289 185.849 12.3019 192.054 15.5327 196.54C21.0386 204.066 32.0515 215.792 35.7795 218.199C41.235 221.603 48.7881 223.148 57.5048 222.678C64.682 222.216 78.2415 219.233 81.611 217.277C83.0788 216.397 82.6746 216.1 77.5896 214.381C62.5061 209.258 52.3857 200.86 40.0234 183.495C32.5857 173.001 32.422 171.18 39.7934 181.125C48.4287 192.758 53.245 197.711 60.7565 202.429C72.5165 209.982 84.1004 213.853 89.9286 212.292C94.0915 211.178 94.2266 210.168 91.1497 203.533C86.0382 192.334 81.8936 187.769 65.6053 175.428C61.7149 172.416 56.7378 168.073 54.5696 165.735C50.5616 161.376 50.5616 161.376 48.0413 151.673C46.677 146.281 45.2559 139.77 44.8894 137.193C44.3092 133.213 44.5877 133.949 46.9091 142.003C51.7455 159.437 54.9154 163.697 72.0473 176.46C77.8016 180.675 84.4657 185.864 86.8758 187.894C92.1611 192.478 99.2783 200.87 99.9678 203.442C100.252 204.501 100.798 205.328 101.101 205.246C102.16 204.963 114.031 195.378 119.441 190.443C123.203 186.922 124.468 185.286 124.461 183.747C124.423 181.487 121.527 174.317 115.459 161.672C112.049 154.396 111.187 151.789 108.518 140.017C103.55 118.159 103.349 114.078 108.104 131.209C110.274 139.304 113.8 150.035 115.805 155.093C119.04 163.226 125.015 174.923 128.089 179.127C129.121 180.554 129.797 180.048 150.84 163.224L172.56 145.894L167.591 127.36C163.068 110.49 162.631 108.255 162.497 101.4C162.447 97.278 162.619 93.9886 162.811 94.0993C163.079 94.1898 163.709 97.7507 164.35 101.957C166.31 115.622 174.236 138.228 177.787 140.277C178.555 140.72 233.543 93.1571 233.955 91.6683C234.136 91.1334 234.124 89.2718 233.884 87.4711C233.19 81.2516 234.119 68.6786 235.627 63.4099C237.386 57.2631 240.326 50.0707 243.292 44.4925L245.468 40.5045L243.304 46.3541C239.959 55.3581 237.214 65.093 236.895 68.7459C236.736 70.5723 237.272 75.2937 238.099 79.2883C239.323 85.3659 239.683 86.4047 240.51 85.8589C243.213 83.8377 288.508 47.6268 290.232 46.192C291.261 45.1868 291.901 44.8531 291.645 45.4083C291.292 45.9082 275.077 61.6828 255.586 80.3621C236.038 99.1373 219.279 115.301 218.251 116.306L216.421 118.256L224.313 120.764C249.349 128.816 264.522 132.455 271.204 131.963C284.342 131.039 284.267 131.059 275.991 132.87C271.711 133.854 266.003 134.653 263.247 134.661C253.859 134.743 236.713 131.308 218.141 125.579C213.192 124.066 208.668 122.926 208.214 123.048C207.155 123.332 159.91 166.795 160.052 167.324C160.194 167.854 176.019 176.345 184.66 180.437C193.801 184.88 209.876 191.278 218.723 194.017C222.106 195.138 236.531 198.41 250.723 201.42C264.916 204.43 276.286 206.898 276.079 207.035C274.207 207.617 236.168 202.805 227.125 200.848C207.722 196.558 184.831 188.337 163.386 177.945L152.77 172.842L141.697 182.375C135.55 187.588 128.072 193.888 125.036 196.485L119.525 201.042L122.411 204.242C126.944 209.352 139.207 219.69 149.504 227.23C175.679 246.49 199.838 260.047 218.587 266.134C225.793 268.501 220.532 267.64 210.867 264.877C184.187 257.346 168.837 248.809 136.052 223.048C118.793 209.508 115.085 207.177 111.982 208.008C110.014 208.535 98.4606 217.791 96.6969 220.291C96.1577 221.003 97.7001 223.427 102.149 229.128C105.491 233.422 114.237 244.863 121.431 254.45C128.721 264.092 136.006 273.412 137.634 275.246C143.987 282.301 164.907 301.023 173.394 307.263C173.99 307.671 174.263 308.085 174.036 308.146C173.355 308.328 154.865 295.037 145.694 287.763C130.244 275.522 120.949 265.363 101.409 239.38C95.6152 231.688 92.0668 227.53 91.8506 228.237C91.248 230.831 91.3491 243.614 92.1256 251.352C93.0713 261.234 96.2283 271.497 101.171 280.551C102.936 283.808 104.277 286.692 104.166 286.884C103.779 287.556 94.4834 272.856 91.9432 267.617C89.0286 261.587 86.4742 248.731 86.2503 238.818C86.0779 229.702 85.8711 229.838 82.3025 242.551C77.7488 258.851 75.7929 273.645 76.8346 283.582C77.4731 289.898 81.61 300.79 84.8908 304.857C87.9391 308.662 96.0062 313.637 107.344 318.709C119.869 324.273 154.447 337.959 159.89 339.501C171.443 342.651 183.476 342.752 197.359 339.764C222.111 334.352 247.372 319.641 275.987 294.14C286.53 284.749 304.957 266.031 304.673 264.971C304.592 264.669 303.562 264.458 302.29 264.556C295.678 264.705 278.529 263.378 271.855 262.085C263.484 260.516 257.378 258.016 240.029 249.284C233.837 246.158 223.221 241.055 216.403 238.016C196.388 229.025 186.86 221.928 184.953 214.817C183.838 210.656 184.789 208.456 188.044 207.584C195.31 205.638 211.193 211.925 244.877 230.148C269.011 243.306 288.379 247.768 307.794 244.839C328.99 241.595 341.178 227.142 348.627 196.525C350.028 190.556 352.716 171.836 352.331 170.398C352.229 170.02 349.48 171.567 346.171 173.751C338.127 179.148 328.3 183.645 322.592 184.444C314.724 185.659 302.572 184.21 271.3 178.315C253.776 174.981 235.262 167.047 231.398 161.109C229.739 158.553 229.734 158.231 230.979 156.519C231.684 155.519 232.733 154.59 233.263 154.448C236.442 153.596 248.411 154.364 263.006 156.455C282.306 159.151 285.865 159.415 294.047 158.764C308.265 157.632 321.485 153.686 332.496 147.251C339.442 143.202 342.653 139.747 344.222 134.706C347.324 124.794 345.503 112.552 337.058 87.4082C330.255 67.1762 329.508 63.4843 328.175 41.8685C327.069 24.7323 325.623 17.8226 322.743 16.1612C321.612 15.5723 313.115 14.4423 303.827 13.6866C286.088 12.2751 280.787 11.2624 258.943 5.43645C243.649 1.34317 232.598 -0.237802 226.552 0.813719C223.141 1.403 221.405 2.19209 217.971 4.81451C215.53 6.60329 213.135 8.86627 212.485 9.77009C210.948 12.2086 208.987 22.1393 207.153 37.3872C205.289 53.1294 203.612 60.7946 201.094 65.9283C199.09 69.9514 196.417 71.4782 193.639 70.1951C191.417 69.1686 189.985 62.0116 189.333 49.2942C188.671 35.9311 189.657 29.0184 194.707 13.9635C197.292 6.05505 197.804 3.72874 196.83 3.42217C192.402 2.33778 169.46 2.40053 159.159 3.6186C150.09 4.58796 146.75 6.04994 143.061 10.4434C135.979 18.8264 130.138 43.3364 128.752 70.5451C127.442 97.7336 126.755 102.134 123.696 105.548C118.509 111.315 111.68 99.7654 107.966 78.9496C105.384 64.4789 105.322 50.6307 107.75 25.4942L108.359 19.8987L104.868 21.4012C95.9787 25.1602 79.7002 33.7358 74.2683 37.3796C59.3645 47.4519 43.5895 63.3521 30.7747 81.2162C22.4347 92.774 10.265 113.952 6.51096 123.552C3.04338 132.102 0.137144 145.772 0.110768 153.238C0.0720456 158.843 3.97437 176.122 6.41861 181.306Z" fill="#CAD0D9"/>
</svg>
