<svg width="200" height="64" viewBox="0 0 200 64" fill="none" xmlns="http://www.w3.org/2000/svg">
<g clip-path="url(#clip0_3073_199466)">
<path fill-rule="evenodd" clip-rule="evenodd" d="M46.4441 23.7408C46.4441 13.9451 40.5419 4.62956 29.9952 4.62956C19.4485 4.62956 27.0924 5.10974 26.1248 5.49388C26.2216 4.43748 26.3183 3.47714 26.3183 3.47714C26.5119 1.65244 25.1572 0.5 23.2221 0.5C21.2869 0.5 19.9323 1.65244 20.1258 3.47714C20.1258 3.47714 20.1258 4.43748 20.3193 5.49388C19.5452 5.0137 17.6101 4.62956 16.449 4.62956C5.90228 4.62956 0 13.9451 0 23.7408C0 33.5366 5.99904 42.9481 16.1587 42.9481C26.3183 42.9481 19.5452 42.372 20.2225 41.8918C20.1258 42.7561 20.029 43.9085 20.029 43.9085C19.8355 45.7332 21.1901 46.8857 23.1253 46.8857C25.0605 46.8857 26.4151 45.7332 26.2216 43.9085C26.2216 43.9085 26.2216 42.7561 26.0281 41.8918C26.6086 42.372 28.9308 42.9481 30.0919 42.9481C40.2516 42.9481 46.2506 33.5366 46.2506 23.7408M43.5414 23.7408C43.5414 30.3674 39.4775 37.8582 30.479 37.8582C21.4804 37.8582 26.9957 37.5701 25.7378 37.282C25.7378 37.282 24.867 28.5427 24.867 22.9726C24.867 17.4024 25.7378 10.3918 25.7378 10.3918C26.8989 10.0076 28.3503 9.71952 30.1887 9.71952C39.671 9.71952 43.5414 17.1143 43.5414 23.6448M21.6739 22.9726C21.6739 28.5427 20.8031 37.282 20.8031 37.282C19.5452 37.5701 17.9003 37.8582 16.0619 37.8582C6.96663 37.8582 2.99952 30.4634 2.99952 23.7408C2.99952 17.0183 6.86985 9.81553 16.3522 9.81553C25.8345 9.81553 19.642 10.1037 20.8031 10.4878C20.8031 10.4878 21.6739 17.7866 21.6739 23.0686M70.537 44.2927C70.537 45.9253 69.1824 46.8857 67.6343 46.8857C66.0861 46.8857 64.7315 46.0213 64.3445 44.6768C64.3445 44.6768 63.1834 36.4177 61.3449 31.4238C59.8936 27.4863 56.7973 21.8201 56.7973 21.8201H56.7005C56.7005 21.8201 53.5075 27.6783 52.1529 31.4238C50.4112 36.4177 49.1534 44.6768 49.1534 44.6768C48.8631 46.0213 47.8955 46.8857 45.8636 46.8857C43.8316 46.8857 42.9608 45.9253 42.9608 44.2927C42.9608 42.6601 43.0576 43.0442 43.6381 41.9878C43.6381 41.9878 47.315 36.1296 50.0242 29.311C51.3788 25.8537 53.701 15.1936 53.701 15.1936C53.9913 13.4649 54.8621 12.1204 56.7005 12.1204C58.539 12.1204 59.4098 12.7927 59.7001 14.5213C59.7001 14.5213 61.6352 23.6448 62.9899 27.3902C65.4088 34.4009 69.763 41.8918 69.763 41.8918C70.2467 42.9482 70.4403 43.5244 70.4403 44.1966M71.5046 29.5991C71.5046 38.6265 76.9231 46.9817 86.6957 46.9817C96.4683 46.9817 101.887 38.6265 101.887 29.5991C101.887 20.5716 96.4683 12.2164 86.6957 12.2164C76.9231 12.2164 71.5046 20.5716 71.5046 29.5991ZM74.4074 29.5991C74.4074 23.8369 77.9874 17.1143 86.6957 17.1143C95.404 17.1143 98.9841 23.8369 98.9841 29.5991C98.9841 35.3613 95.404 42.0838 86.6957 42.0838C77.9874 42.0838 74.4074 35.3613 74.4074 29.5991ZM136.043 29.5991C136.043 20.5716 130.624 12.2164 121.335 12.2164C112.046 12.2164 112.917 15.1936 111.659 18.2668H111.563V15.2896C111.756 13.4649 110.885 12.1204 109.144 12.1204C107.402 12.1204 106.144 13.2728 106.241 15.0975C106.241 15.0975 107.499 28.3506 107.402 36.8979C107.305 45.4451 105.951 58.7942 105.951 58.7942C105.854 60.6189 107.209 61.7713 109.047 61.7713C110.885 61.7713 112.337 60.6189 112.143 58.7942L110.692 40.2591H110.789C112.24 43.1402 116.207 46.8857 121.142 46.8857C130.527 46.8857 135.849 38.5305 135.849 29.503M133.14 29.5991C133.14 35.3613 130.14 42.0838 121.626 42.0838C113.111 42.0838 110.111 35.3613 110.111 29.5991C110.111 23.8369 113.111 17.1143 121.626 17.1143C130.14 17.1143 133.14 23.8369 133.14 29.5991ZM141.268 29.0228C141.558 22.4924 145.041 17.0183 153.846 17.0183C162.651 17.0183 165.554 24.125 165.554 29.0228H141.268ZM154.04 42.0838C146.105 42.0838 141.558 39.2027 141.558 31.7119H165.36C167.779 31.7119 168.553 30.6555 168.553 28.7347C168.553 20.5716 163.135 12.2164 153.653 12.2164C144.17 12.2164 138.171 20.3796 138.171 29.5991C138.171 38.8186 143.009 46.9817 154.04 46.9817C165.07 46.9817 167.876 42.7561 167.876 39.971C167.876 37.186 166.812 37.4741 165.844 37.4741C163.716 37.4741 161.78 42.0838 154.136 42.0838M176.294 30.4634C178.616 30.1753 182.68 29.7912 185.293 29.7912C187.905 29.7912 193.033 30.3674 195.259 30.6555C194.969 36.6097 193.517 44.0046 193.517 44.0046C193.227 45.8293 194.678 46.9817 196.613 46.9817C198.549 46.9817 199.903 45.8293 199.71 44.0046C199.71 44.0046 198.065 34.497 198.065 28.4466C198.065 22.3963 199.71 15.2896 199.71 15.2896C200 13.4649 198.549 12.3125 196.613 12.3125C194.678 12.3125 193.227 13.4649 193.517 15.2896C193.517 15.2896 194.969 21.532 195.259 26.5259C193.033 26.718 188.292 27.1982 185.293 27.1982C182.293 27.1982 178.713 26.718 176.294 26.5259C176.584 21.532 177.939 15.1936 177.939 15.1936C178.229 13.3689 176.778 12.2164 174.843 12.2164C172.908 12.2164 171.553 13.3689 171.747 15.1936C171.747 15.1936 173.004 23.2607 173.004 28.3506C173.004 33.4405 171.747 43.9085 171.747 43.9085C171.65 45.7332 172.908 46.8857 174.843 46.8857C176.778 46.8857 178.229 45.7332 177.939 43.9085C177.939 43.9085 176.584 36.3216 176.294 30.3674" fill="#9F2178"/>
<path fill-rule="evenodd" clip-rule="evenodd" d="M66.8599 54.4726C66.6664 53.9924 66.2793 53.5122 65.9891 53.2241C65.5053 52.7439 64.7312 52.2637 63.3766 52.2637C62.022 52.2637 60.8609 52.8399 60.2803 53.5122C59.603 54.2805 59.0225 55.3369 59.0225 56.8735C59.0225 58.4101 59.5063 59.3704 59.99 60.0427C60.5706 60.811 61.635 61.4832 63.1831 61.4832C64.7312 61.4832 64.828 61.2912 65.3118 60.907C65.9891 60.5229 66.4729 59.8506 66.8599 59.2744L65.215 58.4101C65.215 58.6021 65.0215 58.8903 64.6345 59.1784C64.2474 59.4665 63.8604 59.6586 63.2798 59.6586C62.5058 59.6586 61.9252 59.2744 61.635 58.8903C61.4414 58.6982 61.1512 58.122 61.1512 56.8735C61.1512 55.625 61.4414 55.1448 61.8285 54.6646C62.3122 54.0884 62.8928 53.9924 63.2798 53.9924C63.6669 53.9924 64.0539 53.9924 64.3442 54.2805C64.6345 54.4726 64.9248 54.8567 65.1183 55.2409L66.7632 54.3765L66.8599 54.4726ZM71.7946 56.1052H73.7297V54.6646H67.9242V56.1052H69.8594V61.1951H71.7946V56.1052ZM74.6006 54.6646L76.5358 60.5229C76.5358 60.811 76.7293 61.1951 76.7293 61.3872C76.7293 61.8674 76.3422 61.8674 75.8584 61.8674C75.3747 61.8674 75.3746 61.8674 75.1811 61.8674V63.404C75.7617 63.404 76.1488 63.404 76.2455 63.404C77.0196 63.404 77.6001 63.2119 77.9872 62.7317C78.2774 62.3476 78.471 61.8674 78.6645 61.3872L80.8899 54.6646H78.858L77.6969 59.3704L76.6325 54.6646H74.6006ZM83.7927 54.6646V55.625C83.6959 56.4893 83.5024 57.4497 83.1153 58.4101C82.9218 58.7942 82.7283 59.1784 82.3413 59.5625H81.7608V62.5397H83.5991V61.0991H87.7597V62.5397H89.5982V59.5625H88.7273V54.5686H83.8894L83.7927 54.6646ZM86.6954 56.1052V59.7546H84.1797C84.3732 59.5625 84.5668 59.2744 84.6635 58.9863C84.9538 58.4101 85.0506 57.9299 85.1473 57.3537C85.1473 56.8735 85.244 56.5854 85.3408 56.1052H86.6954ZM100.822 54.6646H97.2421C96.7583 54.6646 95.9842 54.6646 95.5004 55.1448C95.1134 55.4329 94.8232 55.9131 94.8232 56.5854C94.8232 57.2576 95.0167 57.5457 95.2102 57.8338C95.5004 58.122 95.9842 58.314 96.468 58.314C96.081 58.314 95.694 58.5061 95.5004 58.6982C95.2102 58.8903 95.1134 59.2744 95.1134 59.4665V59.8506C94.9199 60.0427 94.9199 60.3308 94.8232 60.6189C94.8232 60.811 94.6296 61.003 94.4361 61.1951H96.3713C96.5648 61.003 96.6616 60.907 96.7583 60.7149C96.8551 60.4268 96.8551 60.3308 96.9518 60.1387V59.6586C97.0486 59.4665 97.1453 59.1784 97.4356 58.9863C97.6291 58.7942 98.0162 58.6982 98.3065 58.6982H98.887V61.0991H100.822V54.5686V54.6646ZM98.9838 56.0092V57.4497H98.0162C97.7259 57.4497 97.3389 57.4497 97.1453 57.2576C97.0486 57.1616 96.9518 56.9695 96.9518 56.7775C96.9518 56.5854 96.9518 56.4894 97.0486 56.2973C97.2421 56.1052 97.6292 56.0092 98.0162 56.0092H98.9838ZM121.916 52.4558H119.98V55.1448C119.593 54.6646 119.11 54.5686 118.722 54.5686C118.045 54.5686 117.561 54.8567 117.174 55.2409C116.594 55.8171 116.304 56.8735 116.304 58.0259C116.304 59.1784 116.594 60.2348 117.174 60.811C117.561 61.1951 118.045 61.4832 118.722 61.4832C119.4 61.4832 119.593 61.3872 119.98 60.907V63.5H121.916V60.907C122.303 61.3872 122.786 61.4832 123.173 61.4832C123.851 61.4832 124.335 61.1951 124.722 60.811C125.302 60.2348 125.592 59.1784 125.592 58.0259C125.592 56.8735 125.302 55.8171 124.722 55.2409C124.335 54.8567 123.851 54.5686 123.173 54.5686C122.496 54.5686 122.303 54.6646 121.916 55.1448V52.4558ZM119.98 59.5625C119.787 59.8506 119.497 60.0427 119.206 60.0427C118.916 60.0427 118.723 60.0427 118.529 59.6586C118.239 59.2744 118.142 58.5061 118.142 58.0259C118.142 57.5457 118.142 56.7774 118.529 56.3933C118.723 56.1052 119.013 56.0092 119.206 56.0092C119.497 56.0092 119.787 56.2012 119.98 56.4893V59.6586V59.5625ZM121.819 56.3933C122.012 56.1052 122.303 55.9131 122.593 55.9131C122.883 55.9131 123.077 55.9131 123.27 56.2973C123.56 56.6814 123.657 57.4497 123.657 57.9299C123.657 58.4101 123.657 59.1784 123.27 59.5625C123.077 59.8506 122.786 59.9467 122.593 59.9467C122.303 59.9467 122.012 59.7546 121.819 59.4665V56.2973V56.3933ZM134.688 56.1052H136.623V54.6646H130.817V56.1052H132.752V61.1951H134.688V56.1052ZM141.267 54.4726C139.913 54.4726 139.139 55.0488 138.752 55.529C138.268 56.0092 137.881 56.7775 137.881 58.0259C137.881 59.2744 138.365 60.0427 138.752 60.5229C139.139 61.0031 140.009 61.5793 141.267 61.5793C142.525 61.5793 143.396 61.0031 143.783 60.5229C144.267 60.0427 144.654 59.2744 144.654 58.0259C144.654 56.7775 144.17 56.0092 143.783 55.529C143.396 55.0488 142.525 54.4726 141.267 54.4726ZM141.267 56.0092C141.945 56.0092 142.235 56.3933 142.428 56.7775C142.719 57.2576 142.719 57.8339 142.719 58.0259C142.719 58.218 142.719 58.7942 142.428 59.2744C142.235 59.5625 141.848 60.0427 141.267 60.0427C140.687 60.0427 140.3 59.6585 140.106 59.2744C139.816 58.7942 139.816 58.218 139.816 58.0259C139.816 57.8339 139.816 57.2576 140.106 56.7775C140.3 56.4894 140.687 56.0092 141.267 56.0092ZM147.847 54.6646V55.625C147.75 56.4893 147.557 57.4497 147.17 58.4101C146.976 58.7942 146.783 59.1784 146.395 59.5625H145.815V62.5397H147.653V61.0991H151.814V62.5397H153.652V59.5625H152.782V54.5686H147.944L147.847 54.6646ZM150.653 56.1052V59.7546H148.137C148.331 59.5625 148.524 59.2744 148.621 58.9863C148.911 58.4101 149.008 57.9299 149.105 57.3537C149.105 56.8735 149.201 56.5854 149.298 56.1052H150.653ZM155.007 61.2912H156.942V60.4268L159.264 57.8338V61.3872H161.2V54.8567H159.264V55.625L156.942 58.218V54.7607H155.007V61.2912ZM164.876 57.2576V58.6022H165.554C166.231 58.6022 166.425 58.7942 166.521 58.7942C166.715 58.9863 166.715 59.1784 166.715 59.2744C166.715 59.3704 166.715 59.6585 166.425 59.8506C166.231 60.0427 165.941 60.0427 165.65 60.0427C165.167 60.0427 164.876 59.9466 164.586 59.7546C164.296 59.5625 164.199 59.2744 164.102 59.0823L162.748 59.8506C163.038 60.3308 163.425 60.715 163.812 61.0031C164.296 61.2912 164.876 61.4832 165.747 61.4832C166.618 61.4832 167.199 61.3872 167.779 61.0031C168.263 60.715 168.747 60.1387 168.747 59.2744C168.747 58.4101 168.553 58.5061 168.263 58.218C168.069 58.0259 167.876 57.9299 167.489 57.8338C167.779 57.8338 167.973 57.6418 168.166 57.4497C168.456 57.1616 168.553 56.8735 168.553 56.4893C168.553 55.9131 168.36 55.3369 167.586 54.9527C167.295 54.7607 166.812 54.5686 165.844 54.5686C164.876 54.5686 164.393 54.5686 163.715 55.1448C163.231 55.4329 162.941 55.9131 162.844 56.1052L164.296 56.8735C164.393 56.6814 164.586 56.3933 164.78 56.2973C164.973 56.1052 165.36 56.0092 165.747 56.0092C166.134 56.0092 166.231 56.0092 166.328 56.1052C166.521 56.2012 166.618 56.3933 166.618 56.5854C166.618 56.7775 166.521 56.9695 166.425 57.0656C166.134 57.2576 165.65 57.2576 165.36 57.2576H164.876ZM176.1 56.7775C176.1 56.0092 176.004 55.1448 174.939 54.7607C174.649 54.6647 174.165 54.5686 173.391 54.5686C172.036 54.5686 171.456 54.9528 171.166 55.1448C170.585 55.625 170.488 56.2012 170.488 56.5854H172.327C172.327 56.2973 172.424 56.0091 172.617 55.9131C172.617 55.9131 172.907 55.7211 173.294 55.7211C173.681 55.7211 173.778 55.721 173.972 55.9131C174.165 56.1052 174.262 56.3933 174.262 56.6814V56.9695L173.391 57.1616C172.714 57.3537 172.133 57.4497 171.649 57.6418C170.488 58.122 170.295 58.9863 170.295 59.5625C170.295 60.811 171.262 61.4832 172.424 61.4832C173.585 61.4832 173.972 61.1951 174.455 60.5229C174.455 60.811 174.455 61.0031 174.552 61.2912H176.391C176.294 61.0991 176.197 60.811 176.197 60.2348V56.7775H176.1ZM174.165 58.5061C174.165 59.0823 173.972 59.4665 173.778 59.6586C173.585 59.9467 173.198 60.1387 172.714 60.1387C172.23 60.1387 172.327 60.1387 172.133 60.0427C171.94 59.9467 171.843 59.7546 171.843 59.4665C171.843 59.1784 171.843 58.9863 172.133 58.8903C172.424 58.6982 172.811 58.6021 173.681 58.4101H174.068C174.068 58.314 174.068 58.6982 174.068 58.6982L174.165 58.5061ZM178.132 61.2912H180.067V60.4268L182.39 57.8338V61.3872H184.325V54.8567H182.39V55.625L180.067 58.218V54.7607H178.132V61.2912ZM182.003 52.4558C182.003 52.6479 182.003 52.8399 181.809 53.032C181.616 53.2241 181.325 53.2241 181.229 53.2241C180.938 53.2241 180.745 53.1281 180.648 53.032C180.551 52.936 180.455 52.6479 180.455 52.4558H179.003C179.003 53.032 179.197 53.6083 179.584 53.8964C180.067 54.3765 180.648 54.3765 181.229 54.3765C181.809 54.3765 182.39 54.3765 182.873 53.8964C183.164 53.6083 183.454 53.032 183.454 52.4558H182.003ZM186.55 61.2912H188.485V58.5061H190.517V61.2912H192.453V54.7607H190.517V57.0656H188.485V54.7607H186.55V61.2912ZM91.0496 53.9924H92.9847V52.4558H91.0496V53.9924ZM92.9847 54.6646H91.0496V61.1951H92.9847V54.6646ZM127.237 53.9924H129.172V52.4558H127.237V53.9924ZM129.172 54.6646H127.237V61.1951H129.172V54.6646ZM193.71 54.6646L195.646 60.5229C195.646 60.811 195.839 61.1951 195.839 61.3872C195.839 61.8674 195.452 61.8674 194.968 61.8674C194.485 61.8674 194.485 61.8674 194.291 61.8674V63.404C194.872 63.404 195.259 63.404 195.355 63.404C196.129 63.404 196.71 63.2119 197.097 62.7317C197.387 62.3476 197.581 61.8674 197.774 61.3872L200 54.6646H197.968L196.807 59.3704L195.742 54.6646H193.71Z" fill="#9F2178"/>
</g>
<defs>
<clipPath id="clip0_3073_199466">
<rect width="200" height="63" fill="white" transform="translate(0 0.5)"/>
</clipPath>
</defs>
</svg>
