<svg width="448" height="317" viewBox="0 0 448 317" fill="none" xmlns="http://www.w3.org/2000/svg">
<path opacity="0.2" d="M349.125 315.884C328.336 311.907 308.862 297.022 297.223 279.762C296.572 278.796 295.941 277.816 295.333 276.824C294.726 275.832 294.139 274.825 293.576 273.805C293.011 272.787 292.469 271.754 291.95 270.713C291.432 269.67 290.936 268.617 290.462 267.551C289.991 266.488 289.541 265.412 289.114 264.33C288.689 263.245 288.286 262.152 287.91 261.051C287.532 259.949 287.178 258.839 286.85 257.723C286.52 256.607 286.216 255.481 285.936 254.352C285.656 253.222 285.401 252.086 285.172 250.945C284.942 249.803 284.736 248.656 284.556 247.506C284.376 246.356 284.222 245.201 284.094 244.045C283.966 242.887 283.862 241.727 283.783 240.566C283.703 239.403 283.652 238.241 283.624 237.077C283.597 235.913 283.593 234.749 283.619 233.585C283.642 232.421 283.693 231.257 283.768 230.094C283.842 228.932 283.942 227.771 284.067 226.613C277.511 223.35 271.048 219.911 264.681 216.296C269.552 228.364 274.604 240.557 278.415 253.012C280.999 260.056 283.824 266.909 286.87 273.766C289.687 278.344 291.996 283.251 294.941 287.748C301.897 298.363 311.3 308.128 320.832 316.446C302.677 313.686 284.609 300.813 273.909 286.256C257.312 263.68 257.85 242.068 261.493 215.538C251.728 209.095 241.788 203.209 232.545 196.002C237.243 208.645 240.946 221.563 245.197 234.353C254.79 263.209 267.351 290.562 287.735 313.47C264.998 306.852 248.3 288.502 237.215 268.269C233.84 262.104 230.798 255.739 228.862 248.966C224.504 233.706 224.286 208.142 226.982 192.344L201.326 173.41C203.236 205.162 219.05 250.664 235.72 277.505C241.411 286.667 249.387 294.302 254.774 303.608C244.267 297.57 234.607 291.438 225.202 283.768C222.714 281.585 219.588 279.267 217.642 276.612C204.342 263.671 190.321 237.174 189.071 218.469C187.635 211.942 187.313 203.889 188.195 197.256C188.348 188.326 192.432 178.447 195.335 170.047C191.223 167.834 187.33 165.093 183.336 162.665C179.003 160.028 174.493 157.655 170.037 155.228C170.949 166.79 172.956 178.102 175.151 189.478C182.609 228.161 194.595 261.24 213.722 295.661C193.794 282.269 178.19 266.402 167.68 244.49C153.714 215.373 154.259 182.475 164.924 152.498C156.241 147.594 147.488 143.572 138.286 139.73C138.994 154.83 142.69 170.029 145.59 184.844C148.69 200.678 151.129 216.619 156.358 231.936C158.734 238.701 161.302 245.39 164.063 252.006C166.181 257.103 169.969 263.531 170.698 268.976C170.409 268.919 170.112 268.892 169.832 268.803C166.389 267.717 148.9 246.294 146.208 242.653C144.005 239.687 142.01 236.585 140.225 233.348C124.1 204.34 123.868 169.59 132.802 138.306C124.891 134.69 116.629 131.859 108.359 129.192C108.813 163.283 114.3 205.272 131.304 235.288C133.626 239.386 136.026 243.466 138.664 247.368C141.721 251.89 148.468 259.555 150.016 264.486L149.586 265.256C147.669 265.071 144.073 261.164 142.622 259.699C140.771 258.236 139.042 256.761 137.357 255.102C117.356 236.712 90.9456 201.187 89.8819 173.526C89.2322 156.623 97.4282 142.58 103.095 127.335C96.2564 125.575 89.3742 124.007 82.4467 122.632C81.5325 130.351 81.2675 138.143 81.1006 145.907C80.456 176.046 86.3747 197.12 100.96 223.36C105.2 230.989 109.376 238.671 114.788 245.553C116.871 248.202 119.171 250.703 121.211 253.376L122.608 253.709L121.094 253.197L121.716 254.38C121.125 254.934 121.186 255.106 120.299 255.112C116.78 255.144 104.682 243.412 102.168 240.7C84.6457 221.824 60.5899 183.412 61.73 157.763C62.3787 143.177 69.1069 134.371 75.5623 122.021C67.7799 121.49 59.9996 120.379 52.2064 120.162C34.7458 119.673 17.4621 121.975 0.196288 124.243C0.173976 120.947 0.0805667 117.633 0.136854 114.337C28.7102 110.528 52.8902 109.028 81.4378 113.131C86.1449 113.807 90.9691 114.325 95.6078 115.356C93.0741 108.075 90.1875 100.691 88.3803 93.1928C84.8075 78.376 85.7604 61.465 92.4192 47.6274C102.028 27.6502 119.411 15.7633 139.987 8.73447C149.008 5.65334 158.377 3.77225 167.404 0.644047C160.685 7.96236 153.094 14.5616 146.613 22.0662C132.592 38.3072 117.807 64.2699 110.812 84.6006C108.627 90.9464 107.76 97.4434 106.091 103.897C104.946 108.322 103.17 112.694 101.62 116.998C109.049 119.38 116.447 121.854 123.816 124.418C126.987 96.9991 133.038 64.4205 150.402 42.0855C156.115 34.737 163.24 28.6304 170.505 22.8685C174.586 19.6329 178.928 16.0506 183.726 13.9619C187.627 12.2642 191.788 11.1417 195.616 9.30249C190.007 16.5301 184.141 23.7171 179.502 31.6228C169.471 48.7129 162.775 67.6867 153.222 85.0847C145.486 99.1693 135.475 111.964 127.821 126.036C135.266 128.674 142.136 132.004 149.38 135.046C158.781 100.122 173.346 68.6329 206.023 49.7903C217.317 43.2781 228.607 40.5913 241.55 39.7742C232.821 46.3721 224.97 53.752 217.066 61.3027C207.583 70.196 198.509 79.4881 189.846 89.1783C181.181 98.869 172.96 108.92 165.182 119.334C160.917 125.024 156.158 130.764 153.085 137.205C159.999 140.103 166.505 143.838 173.024 147.519C173.502 146.558 173.991 145.603 174.489 144.651C174.986 143.7 175.492 142.754 176.01 141.814C176.527 140.874 177.052 139.938 177.589 139.006C178.124 138.076 178.67 137.153 179.225 136.234C179.779 135.312 180.342 134.399 180.915 133.494C181.489 132.586 182.069 131.684 182.661 130.788C183.253 129.89 183.853 129.002 184.463 128.118C185.071 127.234 185.688 126.355 186.316 125.485C186.943 124.612 187.579 123.748 188.223 122.889C188.866 122.031 189.52 121.178 190.181 120.332C190.843 119.487 191.512 118.649 192.192 117.816C192.869 116.984 193.557 116.159 194.253 115.34C194.949 114.522 195.653 113.711 196.363 112.907C197.074 112.103 197.793 111.307 198.521 110.517C199.249 109.727 199.986 108.945 200.728 108.17C201.473 107.394 202.223 106.627 202.983 105.868C203.741 105.107 204.509 104.356 205.282 103.611C206.056 102.867 206.838 102.131 207.628 101.401C208.416 100.673 209.215 99.9527 210.017 99.2398C210.82 98.5269 211.632 97.824 212.449 97.1278C213.267 96.4316 214.092 95.7434 214.923 95.0644C215.753 94.3854 216.592 93.7145 217.439 93.0497C218.284 92.3874 219.136 91.7337 219.994 91.0885C220.852 90.4434 221.716 89.8069 222.589 89.1785C223.46 88.5506 224.34 87.9307 225.222 87.3206C226.106 86.7118 226.996 86.1097 227.891 85.5167C228.788 84.9232 229.69 84.3408 230.598 83.765C231.506 83.1912 232.419 82.6265 233.338 82.0704C234.257 81.5143 235.181 80.9673 236.112 80.4308C237.042 79.8924 237.978 79.367 238.919 78.8483C239.861 78.3296 240.807 77.8199 241.757 77.3219C242.708 76.8234 243.666 76.3334 244.626 75.8531C257.081 69.503 270.349 64.6645 282.613 57.9938C279.467 63.7663 275.361 68.8 271.184 73.8484C254.801 93.6499 235.576 108.412 214.096 122.316C201.001 130.794 187.953 138.022 177.562 149.948C185.314 154.397 193.218 158.868 200.248 164.413C203.314 160.282 206.274 155.768 209.77 151.997C211.591 149.059 215.146 144.602 217.99 142.624C226.73 131.477 247.46 115.253 259.78 107.644C276.532 97.2956 297.79 92.9601 317.127 97.5116C285.308 110.182 268.315 127.221 241.166 146.207C229.856 154.116 218.022 160.544 205.845 166.983C211.099 170.917 216.464 174.697 221.941 178.32C250.392 163.006 274.474 140.973 304.465 128.098C311.628 125.023 336.273 115.47 342.207 117.836L342.107 118.474C336.108 123.928 329.096 128.556 322.817 133.748C306.067 147.602 288.474 161.896 268.118 170.15C254.544 175.651 239.902 178.9 225.637 182.035C231.756 186.148 237.649 190.705 243.616 195.045C253.49 190.599 262.464 183.737 271.739 178.168C298.654 162.011 335.82 143.682 368.013 146.1C360.445 150.299 353.427 155.236 346.081 159.792C323.211 173.986 298.443 189.642 272.218 196.766C265.249 198.659 258.093 199.596 250.962 200.655C257.622 204.553 264.245 208.513 270.829 212.536C279.193 208.992 287.014 203.759 294.871 199.231C309.7 190.685 325.429 182.816 342.013 178.3C359.094 173.649 380.445 173.946 396.153 182.833C389.853 184.526 383.296 185.497 376.924 186.931C371.207 188.218 365.568 189.982 359.991 191.767C330.527 201.207 307.324 214.969 275.123 215.423C281.878 218.703 288.603 222.148 295.52 225.075C301.895 221.832 307.654 217.282 313.982 213.862C328.173 206.194 345.866 201.943 361.852 200.052C363.793 199.811 365.741 199.631 367.693 199.513C369.646 199.395 371.6 199.337 373.558 199.343C375.514 199.348 377.47 199.415 379.421 199.544C381.373 199.672 383.318 199.862 385.259 200.113C387.2 200.364 389.129 200.678 391.049 201.05C392.969 201.424 394.876 201.858 396.769 202.351C398.661 202.844 400.536 203.398 402.393 204.01C404.251 204.622 406.088 205.294 407.902 206.023C411.322 207.382 415.09 208.869 418 211.16C406.741 213.892 391.045 215.045 379.073 216.954C360.295 219.948 341.679 225.21 322.777 227.23C315.266 228.033 307.603 227.331 300.042 227.662C307.72 230.662 315.199 234.155 322.912 237.118C329.74 234.073 336.673 231.729 343.897 229.831C373.926 221.946 420.437 220.681 447.526 236.49C434.574 241.196 403.804 245.281 389.548 245.942C382.519 246.266 372.135 245.198 365.526 246.959C378.848 248.553 395.91 254.575 409.01 258.528C416.829 260.294 424.456 262.826 432.288 264.555C408.378 273.488 385.066 274.102 361.579 263.435C345.545 256.151 330.948 245.345 313.753 240.679C322.654 246.717 329.494 254.477 337.806 261.146C350.7 271.493 366.244 280.232 381.62 286.315C387.267 288.549 393.083 290.305 398.808 292.322C380.036 298.223 363.19 296.712 345.621 287.532C326.383 277.478 316.168 259.843 309.806 239.818C303.019 236.35 296.173 232.933 289.64 229.005C296.54 241.383 303.678 253.412 311.141 265.458C315.022 271.723 318.589 278.024 323.008 283.942C327.842 290.421 332.997 296.82 338.274 302.944C341.896 307.146 346.141 311.234 349.139 315.892L349.125 315.884Z" fill="#CAD0D9"/>
</svg>
