<svg width="59" height="40" viewBox="0 0 59 40" fill="none" xmlns="http://www.w3.org/2000/svg">
<rect x="0.814453" width="58" height="40" rx="6" fill="white"/>
<path fill-rule="evenodd" clip-rule="evenodd" d="M17.2858 15.5975C17.9138 15.6508 18.5419 15.2778 18.9344 14.8049C19.3204 14.3187 19.5755 13.666 19.5101 13C18.954 13.0266 18.2671 13.373 17.8746 13.8592C17.5148 14.2788 17.2073 14.9581 17.2858 15.5975ZM24.7558 24.176V13.7926H28.5829C30.5586 13.7926 31.939 15.1779 31.939 17.2027C31.939 19.2274 30.5324 20.6261 28.5306 20.6261H26.339V24.176H24.7558ZM19.5031 15.7241C18.9498 15.6917 18.445 15.8935 18.0372 16.0565C17.7748 16.1614 17.5526 16.2503 17.3835 16.2503C17.1938 16.2503 16.9624 16.1567 16.7026 16.0516C16.3621 15.9139 15.9729 15.7565 15.5648 15.764C14.6293 15.7774 13.7592 16.3169 13.2816 17.176C12.3003 18.8944 13.0265 21.4386 13.9751 22.8373C14.4396 23.53 14.9957 24.2892 15.7284 24.2626C16.0507 24.2502 16.2826 24.15 16.5226 24.0464C16.7988 23.927 17.0858 23.803 17.534 23.803C17.9666 23.803 18.241 23.9238 18.5045 24.0397C18.755 24.1499 18.9955 24.2558 19.3526 24.2493C20.1115 24.236 20.5891 23.5566 21.0536 22.8639C21.5548 22.1205 21.7751 21.3949 21.8085 21.2849L21.8124 21.2721C21.8116 21.2713 21.8054 21.2684 21.7945 21.2633C21.6269 21.1852 20.3462 20.5883 20.3339 18.9876C20.3216 17.6441 21.3498 16.9634 21.5116 16.8562C21.5215 16.8497 21.5281 16.8453 21.5311 16.843C20.8769 15.8573 19.8564 15.7507 19.5031 15.7241ZM34.8311 24.2558C35.8255 24.2558 36.7479 23.743 37.1666 22.9304H37.1993V24.1759H38.6647V19.0075C38.6647 17.509 37.4871 16.5432 35.675 16.5432C33.9937 16.5432 32.7507 17.5223 32.7049 18.8677H34.1311C34.2488 18.2283 34.8311 17.8087 35.6292 17.8087C36.5974 17.8087 37.1404 18.2682 37.1404 19.1141V19.6869L35.1647 19.8068C33.3264 19.92 32.332 20.6859 32.332 22.018C32.332 23.3634 33.3591 24.2558 34.8311 24.2558ZM35.2554 23.0238C34.4114 23.0238 33.875 22.6108 33.875 21.9781C33.875 21.3254 34.3918 20.9458 35.3797 20.8858L37.1395 20.7726V21.3587C37.1395 22.3311 36.3283 23.0238 35.2554 23.0238ZM43.527 24.5824C42.8924 26.4006 42.1663 27.0001 40.6224 27.0001C40.5046 27.0001 40.1121 26.9868 40.0205 26.9601V25.7146C40.1186 25.728 40.3607 25.7413 40.485 25.7413C41.185 25.7413 41.5775 25.4416 41.8196 24.6623L41.9635 24.2028L39.2813 16.6433H40.9364L42.8009 22.7774H42.8336L44.698 16.6433H46.3074L43.527 24.5824ZM26.3398 15.1512H28.1651C29.5389 15.1512 30.3239 15.8972 30.3239 17.2093C30.3239 18.5214 29.5389 19.274 28.1585 19.274H26.3398V15.1512Z" fill="#1A1A1A"/>
</svg>
