<svg width="59" height="40" viewBox="0 0 59 40" fill="none" xmlns="http://www.w3.org/2000/svg">
<rect x="0.814453" width="58" height="40" rx="6" fill="white"/>
<path d="M44.748 21.737H44.7744L46.9111 16.3434H48.4121L43.7959 27.1569H42.3711L44.0879 23.3747L41.0586 16.3434H42.5605L44.748 21.737ZM37.5244 16.0983C38.5455 16.0983 39.3523 16.3787 39.9443 16.9303C40.5362 17.4819 40.8281 18.2525 40.8281 19.2243V23.8561H39.5068V22.8141H39.4463C38.8714 23.672 38.1164 24.1012 37.1641 24.1012C36.3575 24.1012 35.6705 23.8562 35.1299 23.3659C34.5979 22.9106 34.2974 22.2361 34.3145 21.527C34.3145 20.7477 34.6067 20.1346 35.1816 19.6706C35.7566 19.2065 36.5292 18.9792 37.4902 18.9792C38.3137 18.9792 38.9827 19.1367 39.5146 19.4342V19.11C39.5146 18.6286 39.3094 18.1732 38.9492 17.8581C38.5804 17.5254 38.1081 17.3416 37.6191 17.3415C36.8469 17.3415 36.2372 17.6742 35.791 18.3395L34.5723 17.5602C35.2244 16.5883 36.2115 16.0983 37.5244 16.0983ZM30.9766 12.8756C31.8604 12.8581 32.7183 13.2003 33.3447 13.8307C34.5975 15.0215 34.6746 17.026 33.499 18.3131L33.3447 18.4713C32.7012 19.0928 31.9117 19.4079 30.9766 19.4079H28.6943V23.8561H27.3125V12.8756H30.9766ZM37.7051 20.1169C37.1474 20.1169 36.6754 20.2576 36.2979 20.529C35.9289 20.8004 35.7402 21.1419 35.7402 21.5534C35.7403 21.921 35.9122 22.2622 36.1953 22.4723C36.5042 22.7174 36.8815 22.8492 37.2676 22.8405C37.8512 22.8405 38.4093 22.6035 38.8213 22.1833C39.276 21.7455 39.5078 21.2288 39.5078 20.6335C39.0787 20.2833 38.4775 20.1081 37.7051 20.1169ZM28.6953 18.0592H31.0127C31.5276 18.0767 32.0251 17.8664 32.377 17.4899C33.0978 16.7281 33.0806 15.5027 32.334 14.7672C31.9821 14.4171 31.5104 14.2243 31.0127 14.2243H28.6953V18.0592Z" fill="#1A1A1A"/>
<path d="M23.9237 18.4444C23.9237 18.0153 23.8894 17.5863 23.8207 17.166H17.9941V19.5914H21.3322C21.1949 20.3707 20.7487 21.0711 20.0965 21.5089V23.085H22.0873C23.2544 21.9905 23.9237 20.3707 23.9237 18.4444Z" fill="#4285F4"/>
<path d="M17.9942 24.6086C19.659 24.6086 21.0663 24.0482 22.0874 23.0851L20.0966 21.509C19.5388 21.8943 18.8266 22.1132 17.9942 22.1132C16.381 22.1132 15.0166 21.0012 14.5274 19.5127H12.4766V21.1413C13.5235 23.269 15.6602 24.6086 17.9942 24.6086Z" fill="#34A853"/>
<path d="M14.5287 19.513C14.2712 18.7337 14.2712 17.8844 14.5287 17.0964V15.4766H12.4774C11.5935 17.254 11.5935 19.3554 12.4774 21.1329L14.5287 19.513Z" fill="#FBBC04"/>
<path d="M17.9942 14.4958C18.8781 14.4783 19.7276 14.8198 20.3626 15.4414L22.1303 13.6377C21.0062 12.5695 19.5302 11.9829 17.9942 12.0004C15.6602 12.0004 13.5235 13.3488 12.4766 15.4765L14.5274 17.1051C15.0166 15.6078 16.381 14.4958 17.9942 14.4958Z" fill="#EA4335"/>
</svg>
