<svg width="59" height="40" viewBox="0 0 59 40" fill="none" xmlns="http://www.w3.org/2000/svg">
<rect x="0.814453" width="58" height="40" rx="6" fill="white"/>
<path fill-rule="evenodd" clip-rule="evenodd" d="M21.2525 25.749H18.3316L16.1412 17.3447C16.0373 16.9581 15.8165 16.6164 15.4918 16.4553C14.6815 16.0505 13.7886 15.7283 12.8145 15.5658V15.2423H17.5198C18.1692 15.2423 18.6563 15.7283 18.7374 16.2928L19.8739 22.3551L22.7934 15.2423H25.6331L21.2525 25.749ZM27.2563 25.749H24.4977L26.7692 15.2423H29.5278L27.2563 25.749ZM33.0972 18.153C33.1783 17.5871 33.6654 17.2635 34.2336 17.2635C35.1265 17.1823 36.0992 17.3448 36.911 17.7482L37.398 15.486C36.5863 15.1625 35.6934 15 34.883 15C32.2056 15 30.2574 16.4553 30.2574 18.4751C30.2574 20.0117 31.6374 20.8185 32.6115 21.3046C33.6654 21.7892 34.0713 22.1128 33.9901 22.5974C33.9901 23.3244 33.1783 23.6479 32.368 23.6479C31.3939 23.6479 30.4198 23.4056 29.5283 23.0008L29.0412 25.2644C30.0153 25.6678 31.0692 25.8302 32.0433 25.8302C35.0454 25.9101 36.911 24.4562 36.911 22.2739C36.911 19.5257 33.0972 19.3646 33.0972 18.153ZM46.5655 25.749L44.3751 15.2423H42.0225C41.5354 15.2423 41.0483 15.5658 40.886 16.0505L36.8301 25.749H39.6698L40.2366 24.2138H43.7257L44.0504 25.749H46.5655ZM42.427 18.0718L43.2374 22.0316H40.9659L42.427 18.0718Z" fill="#172B85"/>
</svg>
