<svg xmlns="http://www.w3.org/2000/svg" xmlns:xlink="http://www.w3.org/1999/xlink"><symbol fill="none" id="icon-arrow" viewBox="0 0 36 16">
<path d="M26.5236 2.97933C26.3284 2.78432 26.0118 2.78415 25.8166 2.97933C25.6216 3.17452 25.6216 3.49112 25.8166 3.68636L29.6301 7.49984H6.5002C6.22417 7.49997 6.0002 7.72378 6.0002 7.99984C6.00031 8.27581 6.22424 8.4997 6.5002 8.49984H29.6281L25.8166 12.3123C25.6216 12.5075 25.6218 12.8241 25.8166 13.0194C26.0118 13.2146 26.3284 13.2145 26.5236 13.0194L31.1906 8.35335C31.3858 8.1582 31.3856 7.84161 31.1906 7.64632L26.5236 2.97933Z" fill="#1A1A1A"/>
</symbol><use xlink:href="#icon-arrow" width="36" height="16" y="0"/><view id="icon-arrow-view" viewBox="0 0 36 16"/><symbol fill="none" id="icon-check" viewBox="0 0 16 16">
<path d="M2.5 8.25L6 11.75L13.5 4.25" stroke="#67C409" stroke-width="1.5" stroke-linecap="round" stroke-linejoin="round"/>
</symbol><use xlink:href="#icon-check" width="16" height="16" y="16"/><view id="icon-check-view" viewBox="0 16 16 16"/><symbol fill="none" id="icon-close" viewBox="0 0 16 16">
<path d="M14.9564 1.05507C15.1517 1.25033 15.1517 1.56692 14.9564 1.76218L8.71401 8.00461L14.9571 14.2477L15.0213 14.3258C15.1492 14.5198 15.1279 14.7841 14.9571 14.9548C14.7864 15.1256 14.5221 15.1469 14.3281 15.019L14.25 14.9548L8.00691 8.71171L1.75688 14.9617L1.67885 15.026C1.4848 15.1539 1.22056 15.1325 1.04978 14.9617C0.879058 14.7909 0.857582 14.5267 0.985556 14.3327L1.04978 14.2546L7.2998 8.00461L1.05047 1.75527C0.855204 1.56001 0.855204 1.24343 1.05047 1.04817C1.24573 0.852905 1.56231 0.852904 1.75757 1.04817L8.00691 7.2975L14.2493 1.05507C14.4446 0.859839 14.7612 0.859896 14.9564 1.05507Z" fill="currentColor"/>
</symbol><use xlink:href="#icon-close" width="16" height="16" y="32"/><view id="icon-close-view" viewBox="0 32 16 16"/><symbol fill="none" id="icon-down" viewBox="0 0 16 16">
<path d="M12.6663 5.66699L7.99967 10.3337L3.33301 5.66699" stroke="currentColor" stroke-linecap="round" stroke-linejoin="round"/>
</symbol><use xlink:href="#icon-down" width="16" height="16" y="48"/><view id="icon-down-view" viewBox="0 48 16 16"/><symbol fill="none" id="icon-facebook" viewBox="0 0 16 16">
<path d="M9.90459 3.9925H11V2.0845C10.811 2.0585 10.1611 2 9.40413 2C7.82476 2 6.74286 2.9935 6.74286 4.8195V6.5H5V8.633H6.74286V14H8.87968V8.6335H10.552L10.8175 6.5005H8.87918V5.031C8.87968 4.4145 9.04566 3.9925 9.90459 3.9925Z" fill="#1A1A1A"/>
</symbol><use xlink:href="#icon-facebook" width="16" height="16" y="64"/><view id="icon-facebook-view" viewBox="0 64 16 16"/><symbol fill="none" id="icon-location" viewBox="0 0 20 20">
<path d="M10 0.5C7.8813 0.5 5.84762 1.32627 4.34668 2.7998C2.84549 4.2737 2.0001 6.27485 2 8.36328L2.00586 8.65039C2.12472 11.6048 4.05568 14.2751 5.89062 16.1768C6.84841 17.1693 7.80455 17.9774 8.52051 18.5371C8.87888 18.8173 9.17803 19.0362 9.38867 19.1855C9.49394 19.2602 9.57729 19.3174 9.63477 19.3564C9.66345 19.3759 9.68577 19.3911 9.70117 19.4014C9.70888 19.4065 9.71455 19.4113 9.71875 19.4141C9.72074 19.4154 9.72246 19.4162 9.72363 19.417L9.72559 19.418L10 19L9.72656 19.418C9.89284 19.5267 10.1072 19.5267 10.2734 19.418L10 19L10.2744 19.418L10.2764 19.417C10.2775 19.4162 10.2793 19.4154 10.2812 19.4141C10.2855 19.4113 10.2911 19.4065 10.2988 19.4014C10.3142 19.3911 10.3366 19.3759 10.3652 19.3564C10.4227 19.3174 10.5061 19.2602 10.6113 19.1855C10.822 19.0362 11.1211 18.8173 11.4795 18.5371C12.1954 17.9774 13.1516 17.1693 14.1094 16.1768C16.0035 14.2137 18 11.4314 18 8.36328C17.9999 6.27485 17.1545 4.2737 15.6533 2.7998C14.1524 1.32627 12.1187 0.5 10 0.5ZM10 1.5C11.8594 1.5 13.641 2.22545 14.9531 3.51367C16.2647 4.80149 16.9999 6.54611 17 8.36328C17 11.0224 15.2464 13.5591 13.3906 15.4824C12.4735 16.4329 11.5545 17.2104 10.8643 17.75C10.5196 18.0195 10.2327 18.2287 10.0332 18.3701C10.022 18.378 10.0106 18.3851 10 18.3926C9.98939 18.3851 9.97796 18.378 9.9668 18.3701C9.7673 18.2287 9.48043 18.0195 9.13574 17.75C8.4455 17.2104 7.52651 16.4329 6.60938 15.4824C4.81151 13.6191 3.10941 11.1805 3.00488 8.6123L3 8.36328C3.0001 6.54611 3.73527 4.80149 5.04688 3.51367C6.35895 2.22545 8.14055 1.5 10 1.5ZM10 5.40918C8.35198 5.40918 7.00024 6.72313 7 8.36328C7.00005 10.0036 8.35186 11.3184 10 11.3184C11.6481 11.3184 12.9999 10.0036 13 8.36328C12.9998 6.72313 11.648 5.40918 10 5.40918ZM10 6.40918C11.1131 6.40918 11.9998 7.29262 12 8.36328C11.9999 9.4341 11.1132 10.3184 10 10.3184C8.88677 10.3184 8.00005 9.4341 8 8.36328C8.00025 7.29262 8.8869 6.40918 10 6.40918Z" fill="currentColor"/>
</symbol><use xlink:href="#icon-location" width="20" height="20" y="80"/><view id="icon-location-view" viewBox="0 80 20 20"/><symbol fill="none" id="icon-scooterok" viewBox="0 0 16 16">
<path d="M12.6663 10.333L7.99967 5.66634L3.33301 10.333" stroke="#1A1A1A" stroke-linecap="round" stroke-linejoin="round"/>
</symbol><use xlink:href="#icon-scooterok" width="16" height="16" y="100"/><view id="icon-scooterok-view" viewBox="0 100 16 16"/><symbol fill="none" id="icon-vector" viewBox="0 0 12 6">
<path d="M10.6663 5.33301L5.99967 0.666342L1.33301 5.33301" stroke="#1A1A1A" stroke-linecap="round" stroke-linejoin="round"/>
</symbol><use xlink:href="#icon-vector" width="12" height="6" y="116"/><view id="icon-vector-view" viewBox="0 116 12 6"/></svg>