<svg width="24" height="24" viewBox="0 0 24 24" fill="none" xmlns="http://www.w3.org/2000/svg">
<path d="M12 2.5C7.62237 2.50001 4.56527 2.72122 2.8291 2.89648C1.58678 3.0219 0.700344 4.07433 0.700195 5.29395V18.6348C0.700359 19.8933 1.63847 20.9633 2.9082 21.0801C4.84019 21.2575 8.17739 21.5 12 21.5C15.8227 21.5 19.1598 21.2575 21.0918 21.0801C22.3616 20.9634 23.2996 19.8933 23.2998 18.6348V5.29395C23.2997 4.07453 22.4139 3.02219 21.1719 2.89648C19.4358 2.72122 16.3779 2.50001 12 2.5ZM12 3.5C16.3442 3.50001 19.3684 3.71969 21.0713 3.8916C21.774 3.9628 22.2997 4.55865 22.2998 5.29395V18.6348C22.2996 19.393 21.7394 20.0168 21.001 20.085C19.0888 20.2606 15.7831 20.5 12 20.5C8.21711 20.5 4.91225 20.2606 3 20.085C2.26124 20.0171 1.70036 19.3932 1.7002 18.6348V5.29395C1.70034 4.55848 2.22674 3.96257 2.92969 3.8916C4.63268 3.7197 7.65619 3.50001 12 3.5ZM9.40039 6.80371C8.73373 6.41887 7.90039 6.90014 7.90039 7.66992V16.3301C7.90039 17.0999 8.73373 17.5811 9.40039 17.1963L16.9004 12.8662C17.5667 12.4813 17.5667 11.5187 16.9004 11.1338L9.40039 6.80371ZM16.4004 12L8.90039 16.3301V7.66992L16.4004 12Z" fill="#B6BDC8"/>
</svg>
