<svg width="32" height="32" viewBox="0 0 32 32" fill="none" xmlns="http://www.w3.org/2000/svg">
<path d="M22.9999 22.4999C24.9328 22.4999 26.4999 24.0669 26.4999 25.9999C26.4998 27.9328 24.9328 29.4998 22.9999 29.4999C21.2367 29.4999 19.7787 28.1959 19.536 26.4999H11.4637C11.2211 28.1959 9.76299 29.4998 7.99988 29.4999C6.06691 29.4999 4.49993 27.9328 4.49987 25.9999C4.49987 24.0669 6.06688 22.4999 7.99988 22.4999C9.76307 22.4999 11.2211 23.8038 11.4637 25.4999H19.536C19.7787 23.8038 21.2367 22.4999 22.9999 22.4999ZM7.99988 23.4999C6.61916 23.4999 5.49988 24.6192 5.49988 25.9999C5.49993 27.3805 6.6192 28.4999 7.99988 28.4999C9.3805 28.4998 10.4998 27.3805 10.4999 25.9999C10.4999 24.6192 9.38053 23.4999 7.99988 23.4999ZM22.9999 23.4999C21.6192 23.4999 20.4999 24.6192 20.4999 25.9999C20.4999 27.3805 21.6192 28.4999 22.9999 28.4999C24.3805 28.4998 25.4998 27.3805 25.4999 25.9999C25.4999 24.6192 24.3805 23.4999 22.9999 23.4999ZM30.7655 3.55847C31.0093 3.42903 31.3118 3.52168 31.4413 3.7655C31.5707 4.00931 31.478 4.31176 31.2342 4.44128L27.4589 6.44617L25.495 20.1288C25.4711 20.2951 25.3648 20.438 25.2128 20.5096L23.4999 21.3163V21.8134C23.4998 22.0894 23.2759 22.3133 22.9999 22.3134C22.7238 22.3134 22.4999 22.0894 22.4999 21.8134V16.5028C15.298 16.5755 10.439 18.2151 7.19226 20.2069C4.34855 21.9516 2.72154 23.9795 1.83581 25.4999H3.65027C3.92636 25.4999 4.15027 25.7238 4.15027 25.9999C4.15021 26.2759 3.92632 26.4998 3.65027 26.4999H0.999875C0.827453 26.4999 0.667405 26.4107 0.576047 26.2645C0.484738 26.1182 0.474885 25.9351 0.550656 25.7802C1.38205 24.0811 3.16562 21.5048 6.66882 19.3553C7.26419 18.9901 7.9086 18.638 8.60534 18.3046C8.53995 18.2201 8.4999 18.115 8.49988 17.9999V14.4999H6.99988C6.17148 14.4999 5.49993 13.8283 5.49988 12.9999C5.49988 12.1715 6.17145 11.4999 6.99988 11.4999H17.9999C18.8282 11.4999 19.4999 12.1715 19.4999 12.9999C19.4998 13.8282 18.8282 14.4998 17.9999 14.4999H17.4999V14.9999C17.4998 15.2759 17.2759 15.4998 16.9999 15.4999C16.7238 15.4999 16.4999 15.276 16.4999 14.9999V14.4999H9.49988V17.8993C12.8122 16.484 17.204 15.4999 22.9999 15.4999L23.0975 15.5096C23.1937 15.5288 23.283 15.576 23.3534 15.6464C23.4471 15.7401 23.4999 15.8673 23.4999 15.9999V20.2108L24.5428 19.7196L26.5048 6.05359C26.5275 5.8957 26.6246 5.75831 26.7655 5.68347L30.7655 3.55847ZM6.99988 12.4999C6.72373 12.4999 6.49988 12.7237 6.49988 12.9999C6.49993 13.276 6.72377 13.4999 6.99988 13.4999H17.9999C18.2759 13.4998 18.4998 13.2759 18.4999 12.9999C18.4999 12.7238 18.276 12.4999 17.9999 12.4999H6.99988Z" fill="#1A1A1A"/>
</svg>
