<svg width="32" height="32" viewBox="0 0 32 32" fill="none" xmlns="http://www.w3.org/2000/svg">
<path d="M17.5 3C17.7761 3 18 3.22386 18 3.5C18 3.77614 17.7761 4 17.5 4H4V28H28V13.5C28 13.2239 28.2239 13 28.5 13C28.7761 13 29 13.2239 29 13.5V28.5C29 28.7761 28.7761 29 28.5 29H3.5L3.39941 28.9902C3.17145 28.9437 3 28.7417 3 28.5V3.5C3 3.22386 3.22386 3 3.5 3H17.5ZM24.5303 3.24121C24.7243 3.1133 24.9884 3.13495 25.1592 3.30566L28.6943 6.8418C28.8894 7.03707 28.8895 7.35362 28.6943 7.54883L14.8467 21.3955C14.7593 21.4827 14.6428 21.5346 14.5195 21.541L10.793 21.7324C10.6518 21.7395 10.514 21.6859 10.4141 21.5859C10.3142 21.486 10.2614 21.3482 10.2686 21.207L10.459 17.4814L10.4717 17.3896C10.4931 17.3008 10.5391 17.2188 10.6045 17.1533L24.4521 3.30566L24.5303 3.24121ZM11.4473 17.7246L11.2939 20.7061L14.2764 20.5527L14.3994 20.4287L11.5713 17.6006L11.4473 17.7246ZM12.2783 16.8936L15.1064 19.7217L27.6338 7.19531L24.8057 4.36621L12.2783 16.8936Z" fill="#1A1A1A"/>
</svg>
