<svg width="32" height="32" viewBox="0 0 32 32" fill="none" xmlns="http://www.w3.org/2000/svg">
<g clip-path="url(#clip0_281_14806)">
<path d="M9.11085 17.0804C10.4854 17.3482 13.3705 16.8923 13.9151 12.9268C11.506 12.1552 9.4669 13.572 9.11085 17.0804Z" stroke="#1A1A1A" stroke-linejoin="round"/>
<path d="M8.88134 17.0804C7.50683 17.3482 4.62167 16.8923 4.07707 12.9268C6.48623 12.1552 8.52529 13.572 8.88134 17.0804Z" stroke="#1A1A1A" stroke-linejoin="round"/>
<path d="M23.1108 17.0804C24.4854 17.3482 27.3705 16.8923 27.9151 12.9268C25.506 12.1552 23.4669 13.572 23.1108 17.0804Z" stroke="#1A1A1A" stroke-linejoin="round"/>
<path d="M22.8813 17.0804C21.5068 17.3482 18.6217 16.8923 18.0771 12.9268C20.4862 12.1552 22.5253 13.572 22.8813 17.0804Z" stroke="#1A1A1A" stroke-linejoin="round"/>
<path d="M22.7627 16.75V20.25" stroke="#1A1A1A" stroke-linecap="round" stroke-linejoin="round"/>
<path d="M8.7627 17.25V20.25" stroke="#1A1A1A" stroke-linecap="round" stroke-linejoin="round"/>
<path d="M9.11085 27.0804C10.4854 27.3482 13.3705 26.8923 13.9151 22.9268C11.506 22.1552 9.4669 23.572 9.11085 27.0804Z" stroke="#1A1A1A" stroke-linejoin="round"/>
<path d="M8.88134 27.0804C7.50683 27.3482 4.62167 26.8923 4.07707 22.9268C6.48623 22.1552 8.52529 23.572 8.88134 27.0804Z" stroke="#1A1A1A" stroke-linejoin="round"/>
<path d="M23.1108 27.0804C24.4854 27.3482 27.3705 26.8923 27.9151 22.9268C25.506 22.1552 23.4669 23.572 23.1108 27.0804Z" stroke="#1A1A1A" stroke-linejoin="round"/>
<path d="M22.8813 27.0804C21.5068 27.3482 18.6217 26.8923 18.0771 22.9268C20.4862 22.1552 22.5253 23.572 22.8813 27.0804Z" stroke="#1A1A1A" stroke-linejoin="round"/>
<path d="M22.7627 26.75V30.25" stroke="#1A1A1A" stroke-linecap="round" stroke-linejoin="round"/>
<path d="M8.7627 27.25V30.25" stroke="#1A1A1A" stroke-linecap="round" stroke-linejoin="round"/>
<path d="M9.11085 7.08044C10.4854 7.3482 13.3705 6.89233 13.9151 2.92681C11.506 2.15515 9.4669 3.57202 9.11085 7.08044Z" stroke="#1A1A1A" stroke-linejoin="round"/>
<path d="M8.88134 7.08044C7.50683 7.3482 4.62167 6.89233 4.07707 2.92681C6.48623 2.15515 8.52529 3.57202 8.88134 7.08044Z" stroke="#1A1A1A" stroke-linejoin="round"/>
<path d="M23.1108 7.08044C24.4854 7.3482 27.3705 6.89233 27.9151 2.92681C25.506 2.15515 23.4669 3.57202 23.1108 7.08044Z" stroke="#1A1A1A" stroke-linejoin="round"/>
<path d="M22.8813 7.08044C21.5068 7.3482 18.6217 6.89233 18.0771 2.92681C20.4862 2.15515 22.5253 3.57202 22.8813 7.08044Z" stroke="#1A1A1A" stroke-linejoin="round"/>
<path d="M22.7627 6.75V10.25" stroke="#1A1A1A" stroke-linecap="round" stroke-linejoin="round"/>
<path d="M8.7627 7.25V10.25" stroke="#1A1A1A" stroke-linecap="round" stroke-linejoin="round"/>
</g>
<defs>
<clipPath id="clip0_281_14806">
<rect width="32" height="32" fill="white"/>
</clipPath>
</defs>
</svg>
