<svg width="41" height="41" viewBox="0 0 41 41" fill="none" xmlns="http://www.w3.org/2000/svg">
<path d="M20.2443 4.67505C20.5202 4.67525 20.7443 4.89903 20.7443 5.17505V7.16919H31.5001C31.6327 7.16922 31.7599 7.22194 31.8536 7.31567L35.6036 11.0657C35.6973 11.1594 35.7501 11.2867 35.7501 11.4192C35.7501 11.5517 35.6973 11.679 35.6036 11.7727L31.8536 15.5227L31.7775 15.5852C31.7535 15.6012 31.7275 15.6137 31.7013 15.6252C31.6939 15.6285 31.6864 15.6311 31.6788 15.634C31.6571 15.6424 31.6351 15.6493 31.6124 15.6545C31.6053 15.6562 31.5982 15.6581 31.5909 15.6594C31.5611 15.665 31.5309 15.6692 31.5001 15.6692H20.7443V17.1692H26.5001C26.7762 17.1693 27.0001 17.3931 27.0001 17.6692V25.1692C27 25.4452 26.7761 25.6691 26.5001 25.6692H20.7443V35.9192H24.6251C24.9012 35.9193 25.1251 36.1431 25.1251 36.4192C25.125 36.6952 24.9011 36.9191 24.6251 36.9192H20.3048C20.2849 36.9216 20.2648 36.925 20.2443 36.925C20.2238 36.925 20.2035 36.9216 20.1837 36.9192H15.8751C15.5991 36.9192 15.3753 36.6952 15.3751 36.4192C15.3751 36.143 15.599 35.9192 15.8751 35.9192H19.7443V25.6692H9.00012C8.8676 25.6692 8.74036 25.6164 8.64661 25.5227L4.89661 21.7727C4.70136 21.5775 4.7014 21.2609 4.89661 21.0657L8.64661 17.3157L8.72278 17.2532C8.80431 17.1988 8.90069 17.1692 9.00012 17.1692H19.7443V15.6692H14.0001C13.7241 15.6692 13.5003 15.4452 13.5001 15.1692V7.66919C13.5001 7.39305 13.724 7.16919 14.0001 7.16919H19.7443V5.17505C19.7443 4.89891 19.9681 4.67505 20.2443 4.67505ZM5.95715 21.4192L9.20715 24.6692H26.0001V18.1692H9.20715L5.95715 21.4192ZM14.5001 14.6692H31.2931L34.5431 11.4192L31.2931 8.16919H14.5001V14.6692Z" fill="#1A1A1A"/>
</svg>
