<svg width="41" height="41" viewBox="0 0 41 41" fill="none" xmlns="http://www.w3.org/2000/svg">
<path d="M20.75 4.05005C31.0281 4.05005 39.375 12.2407 39.375 22.3625C39.375 24.5029 39.0015 26.5585 38.3145 28.469C38.221 28.7287 37.9345 28.8639 37.6748 28.7708C37.415 28.6773 37.2798 28.3909 37.373 28.1311C38.0218 26.3274 38.375 24.3858 38.375 22.3625C38.375 12.8093 30.4923 5.05005 20.75 5.05005C11.0077 5.05005 3.125 12.8093 3.125 22.3625C3.125 24.3858 3.47825 26.3274 4.12695 28.1311C4.22021 28.3909 4.08495 28.6773 3.8252 28.7708C3.56545 28.8639 3.27895 28.7287 3.18555 28.469C2.4985 26.5585 2.125 24.5029 2.125 22.3625C2.125 12.2407 10.4719 4.05005 20.75 4.05005ZM30.5752 11.5159C30.7704 11.3206 31.087 11.3207 31.2822 11.5159C31.4772 11.7111 31.4773 12.0277 31.2822 12.2229L24.2363 19.2688C25.0951 20.1476 25.625 21.3492 25.625 22.675C25.625 25.3674 23.4424 27.55 20.75 27.55C18.0576 27.55 15.875 25.3674 15.875 22.675C15.875 19.9827 18.0576 17.8 20.75 17.8C21.7554 17.8 22.6897 18.1046 23.4658 18.6262L30.5752 11.5159ZM20.75 18.8C18.6099 18.8 16.875 20.5349 16.875 22.675C16.875 24.8152 18.6099 26.55 20.75 26.55C22.8901 26.55 24.625 24.8152 24.625 22.675C24.625 21.5816 24.1717 20.5944 23.4434 19.8899C23.3033 19.9003 23.1598 19.8544 23.0527 19.7473C22.9719 19.6664 22.9259 19.5645 22.9121 19.4592C22.2945 19.0432 21.5507 18.8 20.75 18.8ZM8.125 22.8C8.40114 22.8 8.625 23.0239 8.625 23.3C8.625 23.5762 8.40114 23.8 8.125 23.8H5.125C4.84886 23.8 4.625 23.5762 4.625 23.3C4.625 23.0239 4.84886 22.8 5.125 22.8H8.125ZM35.125 22.8C35.4011 22.8 35.625 23.0239 35.625 23.3C35.625 23.5762 35.4011 23.8 35.125 23.8H32.125C31.8489 23.8 31.625 23.5762 31.625 23.3C31.625 23.0239 31.8489 22.8 32.125 22.8H35.125ZM9.58398 11.5247C9.77925 11.3295 10.0958 11.3295 10.291 11.5247L12.3906 13.6243C12.5855 13.8195 12.5856 14.1361 12.3906 14.3313C12.1954 14.5266 11.8779 14.5266 11.6826 14.3313L9.58398 12.2317C9.38874 12.0364 9.38873 11.7199 9.58398 11.5247ZM21.375 6.55005C21.6511 6.55005 21.875 6.77391 21.875 7.05005V9.55005C21.875 9.82619 21.6511 10.05 21.375 10.05C21.0989 10.05 20.875 9.82619 20.875 9.55005V7.05005C20.875 6.77391 21.0989 6.55005 21.375 6.55005Z" fill="#1A1A1A"/>
</svg>
