<svg width="32" height="32" viewBox="0 0 32 32" fill="none" xmlns="http://www.w3.org/2000/svg">
<path d="M14 4.5C19.2467 4.5 23.5 8.75329 23.5 14C23.5 16.4434 22.5762 18.6703 21.0605 20.3535L26.8535 26.1465C27.0488 26.3417 27.0488 26.6583 26.8535 26.8535C26.6583 27.0488 26.3417 27.0488 26.1465 26.8535L20.3535 21.0605C18.6703 22.5762 16.4434 23.5 14 23.5C8.75329 23.5 4.5 19.2467 4.5 14C4.5 8.75329 8.75329 4.5 14 4.5ZM14 5.5C9.30558 5.5 5.5 9.30558 5.5 14C5.5 18.6944 9.30558 22.5 14 22.5C18.6944 22.5 22.5 18.6944 22.5 14C22.5 9.30558 18.6944 5.5 14 5.5Z" fill="#1A1A1A"/>
</svg>
