<svg width="41" height="41" viewBox="0 0 41 41" fill="none" xmlns="http://www.w3.org/2000/svg">
<path d="M19 4.6748C19.2761 4.6748 19.4999 4.89875 19.5 5.1748V33.9248C19.5 34.0968 19.4125 34.2479 19.2803 34.3379C19.3899 34.4511 19.4909 34.5731 19.582 34.7031L19.7275 34.9307L19.7314 34.9375C19.7965 35.055 19.8531 35.1767 19.9023 35.3008H38.375C38.6511 35.3008 38.875 35.5246 38.875 35.8008C38.8747 36.0767 38.651 36.3008 38.375 36.3008H20.1211C20.1247 36.3706 20.1261 36.4406 20.125 36.5107L20.124 36.5186C20.1014 37.2422 19.8184 37.9339 19.3262 38.4648C18.8338 38.9958 18.1653 39.33 17.4453 39.4072C16.7254 39.4844 16.0019 39.2991 15.4082 38.8848C14.8144 38.4703 14.3905 37.8548 14.2148 37.1523C14.196 37.077 14.1818 37.0009 14.1689 36.9248H9.74805C9.081 38.3989 7.59826 39.4248 5.875 39.4248C3.52779 39.4248 1.625 37.522 1.625 35.1748C1.62505 33.9933 2.10743 32.9246 2.88574 32.1543C2.87861 32.1207 2.875 32.0856 2.875 32.0498V17.6748C2.87511 17.3988 3.09892 17.1748 3.375 17.1748H7.75C7.81358 17.1748 7.87651 17.1873 7.93555 17.2109L7.75 17.6748L7.93652 17.2109H7.9375C7.93837 17.2113 7.94015 17.2124 7.94141 17.2129C7.94385 17.2139 7.9474 17.2152 7.95117 17.2168C7.95911 17.2201 7.96994 17.2247 7.9834 17.2305C8.01087 17.2423 8.04987 17.2595 8.09863 17.2822C8.19665 17.3279 8.33583 17.397 8.50684 17.4902C8.84869 17.6767 9.32051 17.9636 9.85156 18.3721C10.914 19.1893 12.2193 20.4953 13.1973 22.4512C14.0228 24.1023 14.3117 26.0573 14.4014 27.5693C14.4465 28.3304 14.442 28.9914 14.4258 29.4629C14.4232 29.5384 14.4181 29.6092 14.415 29.6748H18.375C18.4183 29.6748 18.4599 29.682 18.5 29.6924V5.1748C18.5001 4.89876 18.7239 4.67481 19 4.6748ZM5.875 31.9248C4.08014 31.9248 2.62511 33.38 2.625 35.1748C2.625 36.9697 4.08007 38.4248 5.875 38.4248C7.66992 38.4248 9.125 36.9697 9.125 35.1748C9.12489 33.38 7.66986 31.9248 5.875 31.9248ZM17.7803 34.5352C17.3241 34.3773 16.8257 34.3891 16.3779 34.5693C15.9301 34.7498 15.562 35.0866 15.3428 35.5166C15.1236 35.9466 15.0675 36.442 15.1846 36.9102C15.3017 37.3783 15.5847 37.7882 15.9805 38.0645C16.3764 38.3408 16.8588 38.4646 17.3389 38.4131C17.819 38.3616 18.2645 38.1382 18.5928 37.7842C18.9208 37.4302 19.1099 36.9696 19.125 36.4873C19.1294 36.1176 19.0383 35.7528 18.8604 35.4287L18.7637 35.2773C18.523 34.934 18.1794 34.6734 17.7803 34.5352ZM3.875 31.4238C4.47105 31.1054 5.15199 30.9248 5.875 30.9248C8.22214 30.9248 10.1249 32.8277 10.125 35.1748C10.125 35.4307 10.101 35.6813 10.0576 35.9248H14.1699C14.2203 35.6271 14.3129 35.3358 14.4521 35.0625C14.781 34.4175 15.3323 33.9132 16.0039 33.6426C16.6756 33.372 17.4231 33.353 18.1074 33.5898C18.2431 33.6368 18.3738 33.6946 18.5 33.7598V30.6572C18.4599 30.6676 18.4183 30.6748 18.375 30.6748H13.9453C13.9094 30.6793 13.8725 30.6804 13.835 30.6768C13.8317 30.6764 13.8285 30.6752 13.8252 30.6748H8.375C8.09886 30.6748 7.875 30.4509 7.875 30.1748C7.87511 29.8988 8.09892 29.6748 8.375 29.6748H13.4141C13.4177 29.6006 13.4237 29.5183 13.4268 29.4287C13.4421 28.9816 13.4462 28.3526 13.4033 27.6289C13.3168 26.1701 13.0396 24.3722 12.3027 22.8984C11.4058 21.1046 10.2109 19.9103 9.24219 19.165C8.75781 18.7924 8.33091 18.5322 8.02832 18.3672C7.87722 18.2848 7.75692 18.2268 7.67676 18.1895C7.66558 18.1842 7.65512 18.1792 7.64551 18.1748H3.875V31.4238ZM28.9502 2.80176C28.9952 2.79729 29.0401 2.80105 29.084 2.80859C29.1355 2.81735 29.1868 2.83251 29.2354 2.8584L29.2363 2.85938L29.2383 2.86035C29.2395 2.86103 29.2412 2.8622 29.2432 2.86328C29.2472 2.86546 29.2529 2.86826 29.2598 2.87207C29.2737 2.87976 29.2934 2.89098 29.3184 2.90527C29.3685 2.93402 29.441 2.97565 29.5312 3.03125C29.7117 3.14245 29.9664 3.30871 30.2705 3.5293C30.8781 3.9701 31.6869 4.63431 32.4961 5.53027C34.1158 7.32373 35.7499 10.063 35.75 13.7998C35.75 17.7522 34.134 21.1891 32.543 23.6191C31.7455 24.8371 30.9484 25.8118 30.3496 26.4824C30.0503 26.8177 29.7997 27.0776 29.623 27.2549C29.5775 27.3006 29.5354 27.3404 29.5 27.375V29.0498H34.625C34.7889 29.0498 34.9427 29.13 35.0361 29.2646C35.1295 29.3994 35.1503 29.5721 35.0928 29.7256L33.2178 34.7256C33.1207 34.9839 32.8327 35.1145 32.5742 35.0176C32.3159 34.9205 32.1853 34.6325 32.2822 34.374L33.9033 30.0498H24.0967L25.7178 34.374C25.8147 34.6325 25.6841 34.9205 25.4258 35.0176C25.1673 35.1145 24.8793 34.9839 24.7822 34.7256L22.9072 29.7256C22.8497 29.5721 22.8705 29.3994 22.9639 29.2646C23.0573 29.13 23.2111 29.0498 23.375 29.0498H28.5V27.2627C28.4647 27.2283 28.4233 27.1889 28.3779 27.1436C28.2012 26.967 27.9508 26.7078 27.6514 26.374C27.0525 25.7065 26.2546 24.7367 25.457 23.5244C23.8659 21.1059 22.2501 17.6846 22.25 13.75C22.2501 10.0293 23.8851 7.30162 25.5049 5.5166C26.3141 4.62487 27.1229 3.96405 27.7305 3.52539C28.0345 3.30589 28.2893 3.14094 28.4697 3.03027C28.5599 2.97494 28.6324 2.9329 28.6826 2.9043C28.7075 2.89012 28.7273 2.87872 28.7412 2.87109C28.748 2.86737 28.7539 2.86445 28.7578 2.8623C28.7597 2.86129 28.7615 2.86002 28.7627 2.85938H28.7637L28.7646 2.8584C28.8222 2.82782 28.8854 2.80835 28.9502 2.80176ZM28.9932 3.88281C28.8319 3.98176 28.598 4.13261 28.3164 4.33594C27.7522 4.74327 26.9981 5.35877 26.2451 6.18848C24.74 7.84714 23.2501 10.3459 23.25 13.75C23.2501 17.4148 24.7593 20.6433 26.293 22.9746C27.0576 24.1369 27.8226 25.0674 28.3955 25.7061C28.4304 25.7449 28.4666 25.7817 28.5 25.8184V20.1328L24.8027 16.4805C24.6065 16.2864 24.604 15.9699 24.7979 15.7734C24.9919 15.5771 25.3085 15.5756 25.5049 15.7695L28.5 18.7275V6.14941C28.5003 5.87354 28.7241 5.64941 29 5.64941C29.2759 5.64941 29.4997 5.87354 29.5 6.14941V13.0752L32.4941 10.1045C32.6901 9.91008 33.0066 9.91061 33.2012 10.1064C33.3957 10.3024 33.3941 10.6189 33.1982 10.8135L29.5 14.4854V25.9287C29.5333 25.892 29.5688 25.8553 29.6035 25.8164C30.1765 25.1746 30.9422 24.2395 31.707 23.0713C33.2409 20.7286 34.75 17.4835 34.75 13.7998C34.7499 10.3779 33.2591 7.86691 31.7539 6.2002C31.0008 5.36637 30.2468 4.74816 29.6826 4.33887C29.4009 4.13448 29.1672 3.98226 29.0059 3.88281C29.0036 3.88143 29.0012 3.88027 28.999 3.87891C28.997 3.88012 28.9952 3.88158 28.9932 3.88281Z" fill="#1A1A1A"/>
</svg>
