<svg width="32" height="32" viewBox="0 0 32 32" fill="none" xmlns="http://www.w3.org/2000/svg">
<path d="M19.9268 4.9707C21.622 5.42665 23.1677 6.32004 24.4091 7.56138C25.6504 8.80272 26.5438 10.3484 26.9998 12.0437" stroke="#1A1A1A" stroke-linecap="round" stroke-linejoin="round"/>
<path d="M18.8916 8.83594C19.9085 9.10952 20.8358 9.64548 21.5804 10.3901C22.3251 11.1348 22.861 12.062 23.1346 13.0789" stroke="#1A1A1A" stroke-linecap="round" stroke-linejoin="round"/>
<path d="M11.56 15.5729C12.597 17.6937 14.3158 19.405 16.441 20.4329C16.5966 20.5066 16.7688 20.5385 16.9405 20.5253C17.1121 20.5122 17.2774 20.4545 17.42 20.3579L20.55 18.2719C20.6882 18.1796 20.8473 18.1232 21.0129 18.1078C21.1784 18.0925 21.3451 18.1186 21.498 18.1839L27.353 20.6939C27.5519 20.7784 27.7179 20.9252 27.8261 21.1122C27.9343 21.2992 27.9789 21.5164 27.953 21.7309C27.7677 23.1789 27.061 24.5097 25.9652 25.4742C24.8695 26.4387 23.4598 26.9708 22 26.9709C17.4913 26.9709 13.1673 25.1798 9.97919 21.9917C6.79107 18.8036 5 14.4796 5 9.97089C5.00013 8.51122 5.53228 7.10165 6.49681 6.00606C7.46134 4.91047 8.79212 4.204 10.24 4.01889C10.4545 3.99302 10.6716 4.03754 10.8587 4.14576C11.0457 4.25397 11.1925 4.42002 11.277 4.61889L13.789 10.4789C13.8536 10.6303 13.8798 10.7953 13.8654 10.9593C13.8509 11.1233 13.7961 11.2811 13.706 11.4189L11.626 14.5969C11.5316 14.74 11.4759 14.9051 11.4643 15.0762C11.4528 15.2472 11.4857 15.4184 11.56 15.5729V15.5729Z" stroke="#1A1A1A" stroke-linecap="round" stroke-linejoin="round"/>
</svg>
