<svg width="32" height="32" viewBox="0 0 32 32" fill="none" xmlns="http://www.w3.org/2000/svg">
<path d="M22.7832 4.69122C24.2439 4.56421 25.5 5.71626 25.5 7.18243V8.50079H27C27.8284 8.50079 28.5 9.17236 28.5 10.0008V14.5008H28.999C29.8271 14.5008 30.5 15.172 30.5 16.0008V20.0008C30.4999 20.8292 29.8284 21.5008 29 21.5008H28.5V26.0008C28.4999 26.8292 27.8284 27.5008 27 27.5008H3C2.17162 27.5008 1.50008 26.8292 1.5 26.0008V9.75079C1.50023 7.93552 2.88877 6.42173 4.69727 6.26446L22.7832 4.69122ZM3 9.50079C2.72386 9.50079 2.5 9.72465 2.5 10.0008V26.0008C2.50008 26.2769 2.72391 26.5008 3 26.5008H27C27.2761 26.5008 27.4999 26.2769 27.5 26.0008V21.5008H24C22.0671 21.5008 20.5001 19.9337 20.5 18.0008C20.5 16.0678 22.0672 14.5009 24 14.5008H27.5V10.0008C27.5 9.72465 27.2761 9.50079 27 9.50079H3ZM24 15.5008C22.6194 15.5009 21.5 16.6202 21.5 18.0008C21.5001 19.3814 22.6193 20.5008 24 20.5008H29C29.2761 20.5008 29.4999 20.2769 29.5 20.0008V16.0008C29.5 15.725 29.2755 15.5008 28.999 15.5008H24ZM22.8701 5.68829L4.7832 7.26056C3.93996 7.33396 3.22609 7.82097 2.83105 8.51056C2.88653 8.50434 2.94286 8.50079 3 8.50079H24.5V7.18243C24.5 6.30274 23.7465 5.6121 22.8701 5.68829Z" fill="#1A1A1A"/>
</svg>
