<svg width="20" height="20" viewBox="0 0 20 20" fill="none" xmlns="http://www.w3.org/2000/svg">
<path d="M11.7246 3.55664C11.5303 3.42882 11.2662 3.45089 11.0957 3.62207C10.9254 3.79334 10.9046 4.05725 11.0332 4.25098L11.0977 4.3291L16.291 9.5H2.5C2.22386 9.5 2 9.72386 2 10C2.00016 10.276 2.22396 10.5 2.5 10.5H16.2871L11.0977 15.6689C10.9021 15.8637 10.9013 16.1803 11.0957 16.376C11.2905 16.5716 11.6071 16.5726 11.8027 16.3779L17.8428 10.3623C17.9391 10.2712 17.9999 10.143 18 10C18 9.87696 17.9546 9.76484 17.8809 9.67773C17.8715 9.66668 17.8629 9.65481 17.8525 9.64453L11.8027 3.62012L11.7246 3.55664Z" fill="#FFFFFF"/>
</svg>
