<svg width="32" height="32" viewBox="0 0 32 32" fill="none" xmlns="http://www.w3.org/2000/svg">
<path d="M19.3838 23.4141H23.7334L18.46 28.6875C18.2025 28.945 17.8969 29.1497 17.5605 29.2891C17.2242 29.4284 16.8631 29.5 16.499 29.5C16.1349 29.5 15.7739 29.4284 15.4375 29.2891C15.1011 29.1497 14.7956 28.945 14.5381 28.6875L10.1172 24.2676L9.26367 23.4141H13.6162V17.8047H19.3838V23.4141ZM14.6162 24.4141H11.6777L15.2451 27.9805C15.4098 28.1451 15.6052 28.2761 15.8203 28.3652C16.0354 28.4543 16.2662 28.5 16.499 28.5C16.7318 28.5 16.9627 28.4543 17.1777 28.3652C17.3928 28.2761 17.5883 28.1451 17.7529 27.9805L21.3193 24.4141H18.3838V18.8047H14.6162V24.4141ZM8.58887 22.7363L3.3125 17.46C3.05502 17.2025 2.85033 16.8969 2.71094 16.5605C2.57158 16.2241 2.50003 15.8631 2.5 15.499C2.5 15.1349 2.57157 14.7739 2.71094 14.4375C2.85031 14.1011 3.05499 13.7956 3.3125 13.5381L7.73535 9.11719L8.58887 8.26465V22.7363ZM25.2676 9.11719L29.6875 13.5381C30.7706 14.6213 30.7706 16.3787 29.6875 17.4619L25.2676 21.8828L24.4141 22.7363V8.26367L25.2676 9.11719ZM4.01953 14.2451C3.85487 14.4098 3.72389 14.6052 3.63477 14.8203C3.54569 15.0354 3.5 15.2662 3.5 15.499C3.50003 15.7318 3.54567 15.9627 3.63477 16.1777C3.72389 16.3928 3.85491 16.5883 4.01953 16.7529L7.58887 20.3223V10.6768L4.01953 14.2451ZM25.4141 20.3213L28.9805 16.7549C29.673 16.0622 29.673 14.9378 28.9805 14.2451L25.4141 10.6777V20.3213ZM16.501 1.5C16.8652 1.5 17.226 1.57156 17.5625 1.71094C17.8989 1.85031 18.2044 2.05498 18.4619 2.3125L22.8828 6.73535L23.7354 7.58887H19.3838V13.1953H13.6162V7.58887H9.26367L14.54 2.3125C14.7975 2.05502 15.1031 1.85033 15.4395 1.71094C15.7759 1.57157 16.1368 1.50003 16.501 1.5ZM16.501 2.5C16.2682 2.50003 16.0373 2.54567 15.8223 2.63477C15.6072 2.72389 15.4117 2.85491 15.2471 3.01953L11.6777 6.58887H14.6162V12.1953H18.3838V6.58887H21.3223L17.7549 3.01953C17.5902 2.85486 17.3948 2.72389 17.1797 2.63477C16.9646 2.54568 16.7338 2.5 16.501 2.5Z" fill="#1A1A1A"/>
</svg>
