<svg width="24" height="24" viewBox="0 0 24 24" fill="none" xmlns="http://www.w3.org/2000/svg">
<path d="M12 4.5C8.73354 4.50001 6.35626 4.64817 4.86816 4.7832C3.7863 4.88138 3 5.7965 3 6.88281V17.0381C3 18.1587 3.83365 19.0999 4.9502 19.1953C6.59395 19.3356 9.13264 19.5 12 19.5C14.8672 19.5 17.406 19.3356 19.0498 19.1953C20.1665 19.1 21 18.1588 21 17.0381V6.88281C21 5.7965 20.2147 4.88138 19.1328 4.7832C17.6447 4.64816 15.2668 4.5 12 4.5ZM16.502 11.999L9.00195 16.3301V7.66895L16.502 11.999Z" fill="#1A1A1A"/>
</svg>
