<svg width="59" height="40" viewBox="0 0 59 40" fill="none" xmlns="http://www.w3.org/2000/svg">
<rect x="0.814453" width="58" height="40" rx="6" fill="white"/>
<path d="M36.0176 10C41.3551 10.0002 45.6825 14.4025 45.6826 19.833C45.6826 25.2637 41.3552 29.6668 36.0176 29.667C33.6244 29.667 31.436 28.7793 29.748 27.3135C28.0601 28.7792 25.8725 29.667 23.4795 29.667C18.1417 29.667 13.8145 25.2638 13.8145 19.833C13.8146 14.4024 18.1418 10 23.4795 10C25.8721 10 28.0602 10.8863 29.748 12.3516C31.4359 10.8861 33.6247 10 36.0176 10Z" fill="#ED0006"/>
<path d="M36.0186 10C41.3562 10 45.6834 14.4024 45.6836 19.833C45.6836 25.2638 41.3563 29.667 36.0186 29.667C33.6256 29.6669 31.4379 28.7792 29.75 27.3135C31.827 25.5099 33.1455 22.829 33.1455 19.833C33.1454 16.8368 31.8274 14.1551 29.75 12.3516C31.4378 10.8863 33.626 10.0001 36.0186 10Z" fill="#F9A000"/>
<path d="M29.749 12.3516C31.8265 14.1552 33.1455 16.8366 33.1455 19.833C33.1455 22.8292 31.8262 25.5099 29.749 27.3135C27.6721 25.5099 26.3535 22.8289 26.3535 19.833C26.3535 16.8369 27.6718 14.1552 29.749 12.3516Z" fill="#FF5E00"/>
</svg>
